{
.formatVersion = 3;
classes = (
{
code = "Ba Bha Ca Cha Da Dda Ddha Dha Ga Gha Ha Ja Jha Ka Kha La Lla Ma Na Nga Nna Nya Pa Pha Sa Sha Ssa Ta Tha Tta Ttha Va Ya";
name = class1;
},
{
code = "Ca Cha Da Ddha Dha Kha Nga Pa Sa Tha";
name = class3;
},
{
code = "Ba Bha Ha Ja Jha Ka Kha Na Nya Pha Sa Tta Ttha Va";
name = class5;
},
{
code = "Ba.half Bha.half Ca.half Cha.half Da.half Dda.half Ddha.half Dha.half Ga.half Gha.half Ha.half Ja.half Jha.half KSsa.half Ka.half Kha.half La.half Lla.half Ma.half Na.half Nga.half Nna.half Nya.half Pa.half Pha.half Repha Sa.half Sha.half Ssa.half Ta.half Tha.half Tta.half Ttha.half Va.half Ya.half";
name = class7;
},
{
code = "Ba Ca Jha La Nya Pa Sa Tha Va Ya";
name = class9;
},
{
code = "Ba.alt Ca.alt Jha.alt La.alt Nya.alt Sa.alt Va.alt";
name = class11;
},
{
code = "Ba Bha Ga Gha Nna Sha Ssa Ta";
name = class13;
},
{
code = "Da Da.half Ka Ka.half Kaa Sa.half Ssa.half Ta.half";
name = class16;
},
{
code = "Ca Cha Da Dda Dha Ha Ja Jha Ka Kha La Lla Ma Na Nga Nya Pa Pha Ra Tha Tta Ttha Va Ya";
name = class14;
},
{
code = "U_dv UU_dv VocR_dv VocRR_dv VocL_dv VocLL_dv Virama Rakar Vattu Ra.alt5 Rakar.alt";
name = markAttachmentSet1;
},
{
code = "Ddha Nya Nya.alt Nyaa Sha Ssa Tha.alt Ya Ya.alt";
name = class18;
},
{
code = "Ba.half Bha.half Ca.half Cha.half Da.half Dda.half Ddha.half Dha.half Ga.half Gha.half Ha.half Ja.half Jha.half KSsa.half Ka.half Kha.half La.half Lla.half Ma.half Na.half Nga.half Nna.half Nya.half Pa.half Pha.half Sa.half Sha.half Ssa.half Ta.half Tha.half Tta.half Ttha.half Va.half Ya.half";
name = class26;
},
{
code = "Ba Ca Cha DNya Da Da.alt Dda Ddha Dha Dha.alt Ga Gha Ha Ja Kha La Laa Lla Ma.alt Na Nga Nna Pa Pa.alt Ra Ra.alt Ru Sa Ssa Tha Tha.alt Tta Ttha Va Ya Ya.alt";
name = class27;
},
{
code = "Baa Bha Bhaa DNyaa DNyu Guu Jaa Jha Jhaa Ju KSsYa KSsa Ka Kaa Khaa Ku Ma Maa Muu Naa Nu Nya Nyaa Pha Phaa Phu RKa Sha Ta Ttaa Tthaa Vaa Yaa";
name = class29;
}
);
familyName = "Noto Sans Modi";

glyphs = (
{
glyphname = .notdef;
layers = (
{
background = {
shapes = (
{
closed = 1;
nodes = (
(506,0,l),
(506,714,l),
(95,714,l),
(95,0,l)
);
},
{
closed = 1;
nodes = (
(146,663,l),
(455,663,l),
(455,51,l),
(146,51,l)
);
}
);
};
layerId = "A38B966D-CDEB-4149-A2FB-BDE2BCA6D0C9";
shapes = (
{
closed = 1;
nodes = (
(506,0,l),
(506,714,l),
(95,714,l),
(95,0,l)
);
},
{
closed = 1;
nodes = (
(146,663,l),
(455,663,l),
(455,51,l),
(146,51,l)
);
}
);
width = 600;
}
);
},
{
glyphname = uni25CC;
layers = (
{
anchors = (
{
name = Anchor11;
position = "{429, 539}";
},
{
name = Anchor13;
position = "{406, 669}";
},
{
name = Anchor15;
position = "{297, 674}";
},
{
name = Anchor3;
position = "{297, -20}";
},
{
name = Anchor5;
position = "{297, -20}";
},
{
name = Anchor7;
position = "{297, 70}";
},
{
name = Anchor9;
position = "{297, -20}";
}
);
background = {
shapes = (
{
closed = 1;
nodes = (
(469,423,o),
(481,435,o),
(481,449,cs),
(481,463,o),
(469,475,o),
(455,475,cs),
(441,475,o),
(429,463,o),
(429,449,cs),
(429,435,o),
(441,423,o),
(455,423,cs)
);
},
{
closed = 1;
nodes = (
(153,107,o),
(165,119,o),
(165,133,cs),
(165,147,o),
(153,159,o),
(139,159,cs),
(125,159,o),
(113,147,o),
(113,133,cs),
(113,119,o),
(125,107,o),
(139,107,cs)
);
},
{
closed = 1;
nodes = (
(227,60,o),
(239,72,o),
(239,86,cs),
(239,100,o),
(227,112,o),
(213,112,cs),
(199,112,o),
(187,100,o),
(187,86,cs),
(187,72,o),
(199,60,o),
(213,60,cs)
);
},
{
closed = 1;
nodes = (
(106,181,o),
(118,193,o),
(118,207,cs),
(118,221,o),
(106,233,o),
(92,233,cs),
(78,233,o),
(66,221,o),
(66,207,cs),
(66,193,o),
(78,181,o),
(92,181,cs)
);
},
{
closed = 1;
nodes = (
(311,42,o),
(323,54,o),
(323,68,cs),
(323,82,o),
(311,94,o),
(297,94,cs),
(283,94,o),
(271,82,o),
(271,68,cs),
(271,54,o),
(283,42,o),
(297,42,cs)
);
},
{
closed = 1;
nodes = (
(88,265,o),
(100,277,o),
(100,291,cs),
(100,305,o),
(88,317,o),
(74,317,cs),
(60,317,o),
(48,305,o),
(48,291,cs),
(48,277,o),
(60,265,o),
(74,265,cs)
);
},
{
closed = 1;
nodes = (
(395,60,o),
(407,72,o),
(407,86,cs),
(407,100,o),
(395,112,o),
(381,112,cs),
(367,112,o),
(355,100,o),
(355,86,cs),
(355,72,o),
(367,60,o),
(381,60,cs)
);
},
{
closed = 1;
nodes = (
(106,349,o),
(118,361,o),
(118,375,cs),
(118,389,o),
(106,401,o),
(92,401,cs),
(78,401,o),
(66,389,o),
(66,375,cs),
(66,361,o),
(78,349,o),
(92,349,cs)
);
},
{
closed = 1;
nodes = (
(153,423,o),
(165,435,o),
(165,449,cs),
(165,463,o),
(153,475,o),
(139,475,cs),
(125,475,o),
(113,463,o),
(113,449,cs),
(113,435,o),
(125,423,o),
(139,423,cs)
);
},
{
closed = 1;
nodes = (
(469,107,o),
(481,119,o),
(481,133,cs),
(481,147,o),
(469,159,o),
(455,159,cs),
(441,159,o),
(429,147,o),
(429,133,cs),
(429,119,o),
(441,107,o),
(455,107,cs)
);
},
{
closed = 1;
nodes = (
(227,470,o),
(239,482,o),
(239,496,cs),
(239,510,o),
(227,522,o),
(213,522,cs),
(199,522,o),
(187,510,o),
(187,496,cs),
(187,482,o),
(199,470,o),
(213,470,cs)
);
},
{
closed = 1;
nodes = (
(516,181,o),
(528,193,o),
(528,207,cs),
(528,221,o),
(516,233,o),
(502,233,cs),
(488,233,o),
(476,221,o),
(476,207,cs),
(476,193,o),
(488,181,o),
(502,181,cs)
);
},
{
closed = 1;
nodes = (
(311,488,o),
(323,500,o),
(323,514,cs),
(323,528,o),
(311,540,o),
(297,540,cs),
(283,540,o),
(271,528,o),
(271,514,cs),
(271,500,o),
(283,488,o),
(297,488,cs)
);
},
{
closed = 1;
nodes = (
(534,265,o),
(546,277,o),
(546,291,cs),
(546,305,o),
(534,317,o),
(520,317,cs),
(506,317,o),
(494,305,o),
(494,291,cs),
(494,277,o),
(506,265,o),
(520,265,cs)
);
},
{
closed = 1;
nodes = (
(395,470,o),
(407,482,o),
(407,496,cs),
(407,510,o),
(395,522,o),
(381,522,cs),
(367,522,o),
(355,510,o),
(355,496,cs),
(355,482,o),
(367,470,o),
(381,470,cs)
);
},
{
closed = 1;
nodes = (
(516,349,o),
(528,361,o),
(528,375,cs),
(528,389,o),
(516,401,o),
(502,401,cs),
(488,401,o),
(476,389,o),
(476,375,cs),
(476,361,o),
(488,349,o),
(502,349,cs)
);
}
);
};
layerId = "A38B966D-CDEB-4149-A2FB-BDE2BCA6D0C9";
shapes = (
{
closed = 1;
nodes = (
(469,423,o),
(481,435,o),
(481,449,cs),
(481,463,o),
(469,475,o),
(455,475,cs),
(441,475,o),
(429,463,o),
(429,449,cs),
(429,435,o),
(441,423,o),
(455,423,cs)
);
},
{
closed = 1;
nodes = (
(153,107,o),
(165,119,o),
(165,133,cs),
(165,147,o),
(153,159,o),
(139,159,cs),
(125,159,o),
(113,147,o),
(113,133,cs),
(113,119,o),
(125,107,o),
(139,107,cs)
);
},
{
closed = 1;
nodes = (
(227,60,o),
(239,72,o),
(239,86,cs),
(239,100,o),
(227,112,o),
(213,112,cs),
(199,112,o),
(187,100,o),
(187,86,cs),
(187,72,o),
(199,60,o),
(213,60,cs)
);
},
{
closed = 1;
nodes = (
(106,181,o),
(118,193,o),
(118,207,cs),
(118,221,o),
(106,233,o),
(92,233,cs),
(78,233,o),
(66,221,o),
(66,207,cs),
(66,193,o),
(78,181,o),
(92,181,cs)
);
},
{
closed = 1;
nodes = (
(311,42,o),
(323,54,o),
(323,68,cs),
(323,82,o),
(311,94,o),
(297,94,cs),
(283,94,o),
(271,82,o),
(271,68,cs),
(271,54,o),
(283,42,o),
(297,42,cs)
);
},
{
closed = 1;
nodes = (
(88,265,o),
(100,277,o),
(100,291,cs),
(100,305,o),
(88,317,o),
(74,317,cs),
(60,317,o),
(48,305,o),
(48,291,cs),
(48,277,o),
(60,265,o),
(74,265,cs)
);
},
{
closed = 1;
nodes = (
(395,60,o),
(407,72,o),
(407,86,cs),
(407,100,o),
(395,112,o),
(381,112,cs),
(367,112,o),
(355,100,o),
(355,86,cs),
(355,72,o),
(367,60,o),
(381,60,cs)
);
},
{
closed = 1;
nodes = (
(106,349,o),
(118,361,o),
(118,375,cs),
(118,389,o),
(106,401,o),
(92,401,cs),
(78,401,o),
(66,389,o),
(66,375,cs),
(66,361,o),
(78,349,o),
(92,349,cs)
);
},
{
closed = 1;
nodes = (
(153,423,o),
(165,435,o),
(165,449,cs),
(165,463,o),
(153,475,o),
(139,475,cs),
(125,475,o),
(113,463,o),
(113,449,cs),
(113,435,o),
(125,423,o),
(139,423,cs)
);
},
{
closed = 1;
nodes = (
(469,107,o),
(481,119,o),
(481,133,cs),
(481,147,o),
(469,159,o),
(455,159,cs),
(441,159,o),
(429,147,o),
(429,133,cs),
(429,119,o),
(441,107,o),
(455,107,cs)
);
},
{
closed = 1;
nodes = (
(227,470,o),
(239,482,o),
(239,496,cs),
(239,510,o),
(227,522,o),
(213,522,cs),
(199,522,o),
(187,510,o),
(187,496,cs),
(187,482,o),
(199,470,o),
(213,470,cs)
);
},
{
closed = 1;
nodes = (
(516,181,o),
(528,193,o),
(528,207,cs),
(528,221,o),
(516,233,o),
(502,233,cs),
(488,233,o),
(476,221,o),
(476,207,cs),
(476,193,o),
(488,181,o),
(502,181,cs)
);
},
{
closed = 1;
nodes = (
(311,488,o),
(323,500,o),
(323,514,cs),
(323,528,o),
(311,540,o),
(297,540,cs),
(283,540,o),
(271,528,o),
(271,514,cs),
(271,500,o),
(283,488,o),
(297,488,cs)
);
},
{
closed = 1;
nodes = (
(534,265,o),
(546,277,o),
(546,291,cs),
(546,305,o),
(534,317,o),
(520,317,cs),
(506,317,o),
(494,305,o),
(494,291,cs),
(494,277,o),
(506,265,o),
(520,265,cs)
);
},
{
closed = 1;
nodes = (
(395,470,o),
(407,482,o),
(407,496,cs),
(407,510,o),
(395,522,o),
(381,522,cs),
(367,522,o),
(355,510,o),
(355,496,cs),
(355,482,o),
(367,470,o),
(381,470,cs)
);
},
{
closed = 1;
nodes = (
(516,349,o),
(528,361,o),
(528,375,cs),
(528,389,o),
(516,401,o),
(502,401,cs),
(488,401,o),
(476,389,o),
(476,375,cs),
(476,361,o),
(488,349,o),
(502,349,cs)
);
}
);
width = 594;
}
);
unicode = 9676;
},
{
glyphname = uniA830;
layers = (
{
background = {
shapes = (
{
closed = 1;
nodes = (
(159,622,l),
(78,622,l),
(78,0,l),
(159,0,l)
);
}
);
};
layerId = "A38B966D-CDEB-4149-A2FB-BDE2BCA6D0C9";
shapes = (
{
closed = 1;
nodes = (
(159,622,l),
(78,622,l),
(78,0,l),
(159,0,l)
);
}
);
width = 237;
}
);
unicode = 43056;
},
{
glyphname = uniA831;
layers = (
{
background = {
shapes = (
{
closed = 1;
nodes = (
(359,622,l),
(278,622,l),
(278,0,l),
(359,0,l)
);
},
{
closed = 1;
nodes = (
(159,622,l),
(78,622,l),
(78,0,l),
(159,0,l)
);
}
);
};
layerId = "A38B966D-CDEB-4149-A2FB-BDE2BCA6D0C9";
shapes = (
{
closed = 1;
nodes = (
(359,622,l),
(278,622,l),
(278,0,l),
(359,0,l)
);
},
{
closed = 1;
nodes = (
(159,622,l),
(78,622,l),
(78,0,l),
(159,0,l)
);
}
);
width = 437;
}
);
unicode = 43057;
},
{
glyphname = uniA832;
layers = (
{
background = {
shapes = (
{
closed = 1;
nodes = (
(359,622,l),
(278,622,l),
(278,0,l),
(359,0,l)
);
},
{
closed = 1;
nodes = (
(159,622,l),
(78,622,l),
(78,0,l),
(159,0,l)
);
},
{
closed = 1;
nodes = (
(559,622,l),
(479,622,l),
(479,0,l),
(559,0,l)
);
}
);
};
layerId = "A38B966D-CDEB-4149-A2FB-BDE2BCA6D0C9";
shapes = (
{
closed = 1;
nodes = (
(359,622,l),
(278,622,l),
(278,0,l),
(359,0,l)
);
},
{
closed = 1;
nodes = (
(159,622,l),
(78,622,l),
(78,0,l),
(159,0,l)
);
},
{
closed = 1;
nodes = (
(559,622,l),
(479,622,l),
(479,0,l),
(559,0,l)
);
}
);
width = 637;
}
);
unicode = 43058;
},
{
glyphname = uniA833;
layers = (
{
background = {
shapes = (
{
closed = 1;
nodes = (
(583,542,l),
(563,622,l),
(40,491,l),
(60,412,l)
);
}
);
};
layerId = "A38B966D-CDEB-4149-A2FB-BDE2BCA6D0C9";
shapes = (
{
closed = 1;
nodes = (
(583,542,l),
(563,622,l),
(40,491,l),
(60,412,l)
);
}
);
width = 622;
}
);
unicode = 43059;
},
{
glyphname = uniA834;
layers = (
{
background = {
shapes = (
{
closed = 1;
nodes = (
(583,542,l),
(563,622,l),
(40,491,l),
(60,412,l)
);
},
{
closed = 1;
nodes = (
(583,345,l),
(563,425,l),
(40,294,l),
(60,215,l)
);
}
);
};
layerId = "A38B966D-CDEB-4149-A2FB-BDE2BCA6D0C9";
shapes = (
{
closed = 1;
nodes = (
(583,542,l),
(563,622,l),
(40,491,l),
(60,412,l)
);
},
{
closed = 1;
nodes = (
(583,345,l),
(563,425,l),
(40,294,l),
(60,215,l)
);
}
);
width = 622;
}
);
unicode = 43060;
},
{
glyphname = uniA835;
layers = (
{
background = {
shapes = (
{
closed = 1;
nodes = (
(583,542,l),
(563,622,l),
(40,491,l),
(60,412,l)
);
},
{
closed = 1;
nodes = (
(583,345,l),
(563,425,l),
(40,294,l),
(60,215,l)
);
},
{
closed = 1;
nodes = (
(583,148,l),
(563,228,l),
(40,97,l),
(60,18,l)
);
}
);
};
layerId = "A38B966D-CDEB-4149-A2FB-BDE2BCA6D0C9";
shapes = (
{
closed = 1;
nodes = (
(583,542,l),
(563,622,l),
(40,491,l),
(60,412,l)
);
},
{
closed = 1;
nodes = (
(583,345,l),
(563,425,l),
(40,294,l),
(60,215,l)
);
},
{
closed = 1;
nodes = (
(583,148,l),
(563,228,l),
(40,97,l),
(60,18,l)
);
}
);
width = 622;
}
);
unicode = 43061;
},
{
glyphname = uniA836;
layers = (
{
background = {
shapes = (
{
closed = 1;
nodes = (
(327,167,o),
(393,232,o),
(393,321,cs),
(393,410,o),
(327,473,o),
(230,473,cs),
(133,473,o),
(67,408,o),
(67,321,cs),
(67,230,o),
(134,167,o),
(230,167,cs)
);
},
{
closed = 1;
nodes = (
(282,404,o),
(317,369,o),
(317,321,cs),
(317,269,o),
(283,237,o),
(230,237,cs),
(177,237,o),
(143,269,o),
(143,321,cs),
(143,369,o),
(175,404,o),
(230,404,cs)
);
}
);
};
layerId = "A38B966D-CDEB-4149-A2FB-BDE2BCA6D0C9";
shapes = (
{
closed = 1;
nodes = (
(327,167,o),
(393,232,o),
(393,321,cs),
(393,410,o),
(327,473,o),
(230,473,cs),
(133,473,o),
(67,408,o),
(67,321,cs),
(67,230,o),
(134,167,o),
(230,167,cs)
);
},
{
closed = 1;
nodes = (
(282,404,o),
(317,369,o),
(317,321,cs),
(317,269,o),
(283,237,o),
(230,237,cs),
(177,237,o),
(143,269,o),
(143,321,cs),
(143,369,o),
(175,404,o),
(230,404,cs)
);
}
);
width = 460;
}
);
unicode = 43062;
},
{
glyphname = uniA837;
layers = (
{
background = {
shapes = (
{
closed = 1;
nodes = (
(453,623,l),
(158,395,ls),
(86,340,o),
(57,301,o),
(57,240,cs),
(57,151,o),
(124,86,o),
(221,86,cs),
(317,86,o),
(383,152,o),
(383,240,cs),
(383,315,o),
(338,371,o),
(262,387,c),
(317,424,o),
(365,459,o),
(407,492,cs),
(499,565,l)
);
},
{
closed = 1;
nodes = (
(272,323,o),
(307,288,o),
(307,240,cs),
(307,189,o),
(273,156,o),
(220,156,cs),
(167,156,o),
(133,189,o),
(133,240,cs),
(133,289,o),
(167,323,o),
(220,323,cs)
);
}
);
};
layerId = "A38B966D-CDEB-4149-A2FB-BDE2BCA6D0C9";
shapes = (
{
closed = 1;
nodes = (
(453,623,l),
(158,395,ls),
(86,340,o),
(57,301,o),
(57,240,cs),
(57,151,o),
(124,86,o),
(221,86,cs),
(317,86,o),
(383,152,o),
(383,240,cs),
(383,315,o),
(338,371,o),
(262,387,c),
(317,424,o),
(365,459,o),
(407,492,cs),
(499,565,l)
);
},
{
closed = 1;
nodes = (
(272,323,o),
(307,288,o),
(307,240,cs),
(307,189,o),
(273,156,o),
(220,156,cs),
(167,156,o),
(133,189,o),
(133,240,cs),
(133,289,o),
(167,323,o),
(220,323,cs)
);
}
);
width = 509;
}
);
unicode = 43063;
},
{
glyphname = uniA838;
layers = (
{
background = {
shapes = (
{
closed = 1;
nodes = (
(-157,-177,l),
(-122,-184,o),
(-90,-188,o),
(-61,-188,cs),
(8,-188,o),
(66,-175,o),
(111,-150,cs),
(202,-100,o),
(246,-3,o),
(246,177,cs),
(246,308,o),
(222,489,o),
(182,633,c),
(101,615,l),
(140,470,o),
(164,308,o),
(164,180,cs),
(164,106,o),
(156,48,o),
(140,7,cs),
(108,-77,o),
(44,-115,o),
(-63,-115,cs),
(-88,-115,o),
(-117,-111,o),
(-151,-104,c)
);
}
);
};
layerId = "A38B966D-CDEB-4149-A2FB-BDE2BCA6D0C9";
shapes = (
{
closed = 1;
nodes = (
(-157,-177,l),
(-122,-184,o),
(-90,-188,o),
(-61,-188,cs),
(8,-188,o),
(66,-175,o),
(111,-150,cs),
(202,-100,o),
(246,-3,o),
(246,177,cs),
(246,308,o),
(222,489,o),
(182,633,c),
(101,615,l),
(140,470,o),
(164,308,o),
(164,180,cs),
(164,106,o),
(156,48,o),
(140,7,cs),
(108,-77,o),
(44,-115,o),
(-63,-115,cs),
(-88,-115,o),
(-117,-111,o),
(-151,-104,c)
);
}
);
width = 307;
}
);
unicode = 43064;
},
{
glyphname = uniA839;
layers = (
{
background = {
shapes = (
{
closed = 1;
nodes = (
(-157,-237,l),
(-138,-239,o),
(-119,-240,o),
(-100,-240,cs),
(136,-240,o),
(257,-141,o),
(257,30,cs),
(257,102,o),
(235,175,o),
(202,250,cs),
(161,343,o),
(146,380,o),
(146,421,cs),
(146,490,o),
(204,533,o),
(337,558,c),
(313,633,l),
(148,598,o),
(65,528,o),
(65,421,cs),
(65,362,o),
(85,309,o),
(121,230,cs),
(154,157,o),
(176,93,o),
(176,29,cs),
(176,-13,o),
(166,-49,o),
(145,-78,cs),
(103,-137,o),
(19,-165,o),
(-104,-165,cs),
(-125,-165,o),
(-142,-164,o),
(-155,-162,c)
);
}
);
};
layerId = "A38B966D-CDEB-4149-A2FB-BDE2BCA6D0C9";
shapes = (
{
closed = 1;
nodes = (
(-157,-237,l),
(-138,-239,o),
(-119,-240,o),
(-100,-240,cs),
(136,-240,o),
(257,-141,o),
(257,30,cs),
(257,102,o),
(235,175,o),
(202,250,cs),
(161,343,o),
(146,380,o),
(146,421,cs),
(146,490,o),
(204,533,o),
(337,558,c),
(313,633,l),
(148,598,o),
(65,528,o),
(65,421,cs),
(65,362,o),
(85,309,o),
(121,230,cs),
(154,157,o),
(176,93,o),
(176,29,cs),
(176,-13,o),
(166,-49,o),
(145,-78,cs),
(103,-137,o),
(19,-165,o),
(-104,-165,cs),
(-125,-165,o),
(-142,-164,o),
(-155,-162,c)
);
}
);
width = 337;
}
);
unicode = 43065;
},
{
glyphname = A_iv;
layers = (
{
anchors = (
{
name = Anchor13;
position = "{636, 718}";
}
);
background = {
shapes = (
{
closed = 1;
nodes = (
(0,551,l),
(132,551,l),
(121,543,o),
(111,534,o),
(102,525,c),
(151,468,l),
(179,496,o),
(215,530,o),
(270,530,cs),
(312,530,o),
(333,500,o),
(333,470,cs),
(333,435,o),
(315,399,o),
(263,398,c),
(263,333,l),
(273,333,l),
(334,328,o),
(342,289,o),
(342,266,cs),
(342,232,o),
(320,198,o),
(250,198,cs),
(216,198,o),
(128,209,o),
(99,350,c),
(26,335,l),
(58,169,o),
(174,124,o),
(250,124,cs),
(263,124,l),
(289,51,o),
(363,-10,o),
(460,-10,cs),
(626,-10,o),
(676,124,o),
(676,282,cs),
(676,551,l),
(766,551,l),
(766,622,l),
(0,622,l)
);
},
{
closed = 1;
nodes = (
(408,63,o),
(360,99,o),
(341,141,c),
(398,166,o),
(423,216,o),
(423,268,cs),
(423,299,o),
(407,341,o),
(368,369,c),
(397,395,o),
(413,431,o),
(413,468,cs),
(413,498,o),
(403,527,o),
(385,551,c),
(596,551,l),
(596,282,ls),
(596,109,o),
(536,63,o),
(461,63,cs)
);
}
);
};
layerId = "A38B966D-CDEB-4149-A2FB-BDE2BCA6D0C9";
shapes = (
{
closed = 1;
nodes = (
(0,551,l),
(132,551,l),
(121,543,o),
(111,534,o),
(102,525,c),
(151,468,l),
(179,496,o),
(215,530,o),
(270,530,cs),
(312,530,o),
(333,500,o),
(333,470,cs),
(333,435,o),
(315,399,o),
(263,398,c),
(263,333,l),
(273,333,l),
(334,328,o),
(342,289,o),
(342,266,cs),
(342,232,o),
(320,198,o),
(250,198,cs),
(216,198,o),
(128,209,o),
(99,350,c),
(26,335,l),
(58,169,o),
(174,124,o),
(250,124,cs),
(263,124,l),
(289,51,o),
(363,-10,o),
(460,-10,cs),
(626,-10,o),
(676,124,o),
(676,282,cs),
(676,551,l),
(766,551,l),
(766,622,l),
(0,622,l)
);
},
{
closed = 1;
nodes = (
(408,63,o),
(360,99,o),
(341,141,c),
(398,166,o),
(423,216,o),
(423,268,cs),
(423,299,o),
(407,341,o),
(368,369,c),
(397,395,o),
(413,431,o),
(413,468,cs),
(413,498,o),
(403,527,o),
(385,551,c),
(596,551,l),
(596,282,ls),
(596,109,o),
(536,63,o),
(461,63,cs)
);
}
);
width = 756;
}
);
unicode = 71168;
},
{
glyphname = AA_iv;
layers = (
{
anchors = (
{
name = Anchor13;
position = "{610, 718}";
}
);
background = {
shapes = (
{
closed = 1;
nodes = (
(731,9,l),
(713,35,o),
(698,53,o),
(682,65,c),
(646,123,o),
(623,196,o),
(623,355,cs),
(623,420,o),
(633,485,o),
(650,551,c),
(745,551,l),
(745,622,l),
(0,622,l),
(0,551,l),
(81,551,l),
(62,527,o),
(50,497,o),
(50,462,cs),
(50,385,o),
(110,322,o),
(187,322,cs),
(200,322,o),
(212,323,o),
(223,327,c),
(202,279,o),
(187,236,o),
(187,178,cs),
(187,39,o),
(286,-10,o),
(394,-10,cs),
(490,-10,o),
(529,20,o),
(587,20,cs),
(623,20,o),
(627,10,o),
(657,-21,c)
);
},
{
closed = 1;
nodes = (
(542,239,o),
(556,151,o),
(583,90,c),
(522,88,o),
(475,61,o),
(397,61,cs),
(305,61,o),
(268,102,o),
(268,179,cs),
(268,278,o),
(330,357,o),
(330,449,cs),
(330,484,o),
(321,522,o),
(299,551,c),
(568,551,l),
(552,484,o),
(542,417,o),
(542,352,cs)
);
},
{
closed = 1;
nodes = (
(162,392,o),
(120,412,o),
(120,461,cs),
(120,502,o),
(151,533,o),
(190,533,cs),
(240,533,o),
(251,483,o),
(251,462,cs),
(251,444,o),
(249,427,o),
(247,412,c),
(231,400,o),
(212,392,o),
(189,392,cs)
);
}
);
};
layerId = "A38B966D-CDEB-4149-A2FB-BDE2BCA6D0C9";
shapes = (
{
closed = 1;
nodes = (
(731,9,l),
(713,35,o),
(698,53,o),
(682,65,c),
(646,123,o),
(623,196,o),
(623,355,cs),
(623,420,o),
(633,485,o),
(650,551,c),
(745,551,l),
(745,622,l),
(0,622,l),
(0,551,l),
(81,551,l),
(62,527,o),
(50,497,o),
(50,462,cs),
(50,385,o),
(110,322,o),
(187,322,cs),
(200,322,o),
(212,323,o),
(223,327,c),
(202,279,o),
(187,236,o),
(187,178,cs),
(187,39,o),
(286,-10,o),
(394,-10,cs),
(490,-10,o),
(529,20,o),
(587,20,cs),
(623,20,o),
(627,10,o),
(657,-21,c)
);
},
{
closed = 1;
nodes = (
(542,239,o),
(556,151,o),
(583,90,c),
(522,88,o),
(475,61,o),
(397,61,cs),
(305,61,o),
(268,102,o),
(268,179,cs),
(268,278,o),
(330,357,o),
(330,449,cs),
(330,484,o),
(321,522,o),
(299,551,c),
(568,551,l),
(552,484,o),
(542,417,o),
(542,352,cs)
);
},
{
closed = 1;
nodes = (
(162,392,o),
(120,412,o),
(120,461,cs),
(120,502,o),
(151,533,o),
(190,533,cs),
(240,533,o),
(251,483,o),
(251,462,cs),
(251,444,o),
(249,427,o),
(247,412,c),
(231,400,o),
(212,392,o),
(189,392,cs)
);
}
);
width = 735;
}
);
unicode = 71169;
},
{
glyphname = I_iv;
layers = (
{
anchors = (
{
name = Anchor13;
position = "{578, 758}";
},
{
name = Anchor15;
position = "{319, 880}";
}
);
background = {
shapes = (
{
closed = 1;
nodes = (
(648,622,l),
(517,622,l),
(492,689,o),
(464,751,o),
(439,805,c),
(365,782,l),
(390,727,o),
(413,674,o),
(433,622,c),
(0,622,l),
(0,551,l),
(140,551,l),
(85,525,o),
(60,479,o),
(60,429,cs),
(60,378,o),
(86,334,o),
(134,307,c),
(89,277,o),
(60,231,o),
(60,178,cs),
(60,52,o),
(169,-10,o),
(294,-10,cs),
(507,-10,o),
(578,154,o),
(578,312,cs),
(578,397,o),
(563,477,o),
(541,551,c),
(648,551,l)
);
},
{
closed = 1;
nodes = (
(265,348,l),
(174,348,o),
(141,387,o),
(141,428,cs),
(141,465,o),
(166,502,o),
(245,502,c),
(245,551,l),
(458,551,l),
(483,472,o),
(498,393,o),
(498,312,cs),
(498,145,o),
(420,64,o),
(294,64,cs),
(225,64,o),
(140,97,o),
(140,177,cs),
(140,244,o),
(196,278,o),
(265,278,c)
);
}
);
};
layerId = "A38B966D-CDEB-4149-A2FB-BDE2BCA6D0C9";
shapes = (
{
closed = 1;
nodes = (
(648,622,l),
(517,622,l),
(492,689,o),
(464,751,o),
(439,805,c),
(365,782,l),
(390,727,o),
(413,674,o),
(433,622,c),
(0,622,l),
(0,551,l),
(140,551,l),
(85,525,o),
(60,479,o),
(60,429,cs),
(60,378,o),
(86,334,o),
(134,307,c),
(89,277,o),
(60,231,o),
(60,178,cs),
(60,52,o),
(169,-10,o),
(294,-10,cs),
(507,-10,o),
(578,154,o),
(578,312,cs),
(578,397,o),
(563,477,o),
(541,551,c),
(648,551,l)
);
},
{
closed = 1;
nodes = (
(265,348,l),
(174,348,o),
(141,387,o),
(141,428,cs),
(141,465,o),
(166,502,o),
(245,502,c),
(245,551,l),
(458,551,l),
(483,472,o),
(498,393,o),
(498,312,cs),
(498,145,o),
(420,64,o),
(294,64,cs),
(225,64,o),
(140,97,o),
(140,177,cs),
(140,244,o),
(196,278,o),
(265,278,c)
);
}
);
width = 638;
}
);
unicode = 71170;
},
{
glyphname = II_iv;
layers = (
{
anchors = (
{
name = Anchor13;
position = "{710, 758}";
},
{
name = Anchor15;
position = "{320, 880}";
}
);
background = {
shapes = (
{
closed = 1;
nodes = (
(650,622,l),
(457,622,l),
(454,634,o),
(453,646,o),
(453,658,cs),
(453,710,o),
(474,728,o),
(510,728,cs),
(535,728,o),
(552,717,o),
(565,699,c),
(634,732,l),
(611,771,o),
(575,800,o),
(509,800,cs),
(414,800,o),
(370,740,o),
(370,652,cs),
(370,642,o),
(370,632,o),
(372,622,c),
(0,622,l),
(0,551,l),
(140,551,l),
(85,525,o),
(60,479,o),
(60,429,cs),
(60,378,o),
(86,334,o),
(135,307,c),
(89,277,o),
(60,231,o),
(60,182,cs),
(60,47,o),
(169,-10,o),
(294,-10,cs),
(456,-10,o),
(570,78,o),
(570,247,cs),
(570,342,o),
(511,455,o),
(477,551,c),
(650,551,l)
);
},
{
closed = 1;
nodes = (
(265,348,l),
(174,348,o),
(141,387,o),
(141,428,cs),
(141,465,o),
(166,502,o),
(245,502,c),
(245,551,l),
(389,551,l),
(423,451,o),
(490,344,o),
(490,245,cs),
(490,116,o),
(405,64,o),
(294,64,cs),
(225,64,o),
(140,94,o),
(140,181,cs),
(140,239,o),
(193,276,o),
(260,278,c),
(265,278,l)
);
}
);
};
layerId = "A38B966D-CDEB-4149-A2FB-BDE2BCA6D0C9";
shapes = (
{
closed = 1;
nodes = (
(650,622,l),
(457,622,l),
(454,634,o),
(453,646,o),
(453,658,cs),
(453,710,o),
(474,728,o),
(510,728,cs),
(535,728,o),
(552,717,o),
(565,699,c),
(634,732,l),
(611,771,o),
(575,800,o),
(509,800,cs),
(414,800,o),
(370,740,o),
(370,652,cs),
(370,642,o),
(370,632,o),
(372,622,c),
(0,622,l),
(0,551,l),
(140,551,l),
(85,525,o),
(60,479,o),
(60,429,cs),
(60,378,o),
(86,334,o),
(135,307,c),
(89,277,o),
(60,231,o),
(60,182,cs),
(60,47,o),
(169,-10,o),
(294,-10,cs),
(456,-10,o),
(570,78,o),
(570,247,cs),
(570,342,o),
(511,455,o),
(477,551,c),
(650,551,l)
);
},
{
closed = 1;
nodes = (
(265,348,l),
(174,348,o),
(141,387,o),
(141,428,cs),
(141,465,o),
(166,502,o),
(245,502,c),
(245,551,l),
(389,551,l),
(423,451,o),
(490,344,o),
(490,245,cs),
(490,116,o),
(405,64,o),
(294,64,cs),
(225,64,o),
(140,94,o),
(140,181,cs),
(140,239,o),
(193,276,o),
(260,278,c),
(265,278,l)
);
}
);
width = 640;
}
);
unicode = 71171;
},
{
glyphname = U_iv;
layers = (
{
anchors = (
{
name = Anchor13;
position = "{682, 758}";
},
{
name = Anchor15;
position = "{371, 880}";
}
);
background = {
shapes = (
{
closed = 1;
nodes = (
(274,204,l),
(326,199,o),
(350,165,o),
(350,129,cs),
(350,90,o),
(318,61,o),
(274,61,cs),
(206,61,o),
(141,140,o),
(141,338,cs),
(141,410,o),
(149,486,o),
(171,551,c),
(576,551,l),
(594,495,o),
(602,434,o),
(602,381,cs),
(602,254,o),
(577,113,o),
(542,15,c),
(614,-17,l),
(656,98,o),
(682,251,o),
(682,382,cs),
(682,440,o),
(674,498,o),
(658,551,c),
(752,551,l),
(752,622,l),
(631,622,l),
(581,726,o),
(497,800,o),
(382,800,cs),
(258,800,o),
(169,731,o),
(116,622,c),
(0,622,l),
(0,551,l),
(88,551,l),
(69,488,o),
(60,417,o),
(60,340,cs),
(60,117,o),
(141,-10,o),
(273,-10,cs),
(366,-10,o),
(431,52,o),
(431,132,cs),
(431,207,o),
(374,268,o),
(284,273,c)
);
},
{
closed = 1;
nodes = (
(456,726,o),
(509,683,o),
(545,622,c),
(203,622,l),
(240,684,o),
(296,726,o),
(378,726,cs)
);
}
);
};
layerId = "A38B966D-CDEB-4149-A2FB-BDE2BCA6D0C9";
shapes = (
{
closed = 1;
nodes = (
(274,204,l),
(326,199,o),
(350,165,o),
(350,129,cs),
(350,90,o),
(318,61,o),
(274,61,cs),
(206,61,o),
(141,140,o),
(141,338,cs),
(141,410,o),
(149,486,o),
(171,551,c),
(576,551,l),
(594,495,o),
(602,434,o),
(602,381,cs),
(602,254,o),
(577,113,o),
(542,15,c),
(614,-17,l),
(656,98,o),
(682,251,o),
(682,382,cs),
(682,440,o),
(674,498,o),
(658,551,c),
(752,551,l),
(752,622,l),
(631,622,l),
(581,726,o),
(497,800,o),
(382,800,cs),
(258,800,o),
(169,731,o),
(116,622,c),
(0,622,l),
(0,551,l),
(88,551,l),
(69,488,o),
(60,417,o),
(60,340,cs),
(60,117,o),
(141,-10,o),
(273,-10,cs),
(366,-10,o),
(431,52,o),
(431,132,cs),
(431,207,o),
(374,268,o),
(284,273,c)
);
},
{
closed = 1;
nodes = (
(456,726,o),
(509,683,o),
(545,622,c),
(203,622,l),
(240,684,o),
(296,726,o),
(378,726,cs)
);
}
);
width = 742;
}
);
unicode = 71172;
},
{
glyphname = UU_iv;
layers = (
{
anchors = (
{
name = Anchor13;
position = "{685, 758}";
},
{
name = Anchor15;
position = "{371, 880}";
}
);
background = {
shapes = (
{
closed = 1;
nodes = (
(752,622,l),
(625,622,l),
(578,729,o),
(499,800,o),
(382,800,cs),
(258,800,o),
(169,731,o),
(116,622,c),
(0,622,l),
(0,551,l),
(88,551,l),
(69,488,o),
(60,417,o),
(60,340,cs),
(60,117,o),
(141,-10,o),
(255,-10,cs),
(336,-10,o),
(391,52,o),
(391,132,cs),
(391,207,o),
(334,268,o),
(244,273,c),
(234,204,l),
(286,199,o),
(310,165,o),
(310,129,cs),
(310,90,o),
(288,61,o),
(257,61,cs),
(206,61,o),
(141,140,o),
(141,338,cs),
(141,410,o),
(149,486,o),
(171,551,c),
(572,551,l),
(578,533,o),
(582,516,o),
(586,498,c),
(502,414,o),
(443,251,o),
(443,139,cs),
(443,46,o),
(482,-10,o),
(550,-10,cs),
(677,-10,o),
(685,180,o),
(685,282,cs),
(685,378,o),
(674,471,o),
(651,551,c),
(752,551,l)
);
},
{
closed = 1;
nodes = (
(457,726,o),
(509,683,o),
(543,622,c),
(203,622,l),
(240,684,o),
(296,726,o),
(378,726,cs)
);
},
{
closed = 1;
nodes = (
(605,161,o),
(590,60,o),
(554,60,cs),
(541,60,o),
(523,75,o),
(523,134,cs),
(523,190,o),
(536,314,o),
(600,401,c),
(604,356,o),
(605,313,o),
(605,280,cs)
);
}
);
};
layerId = "A38B966D-CDEB-4149-A2FB-BDE2BCA6D0C9";
shapes = (
{
closed = 1;
nodes = (
(752,622,l),
(625,622,l),
(578,729,o),
(499,800,o),
(382,800,cs),
(258,800,o),
(169,731,o),
(116,622,c),
(0,622,l),
(0,551,l),
(88,551,l),
(69,488,o),
(60,417,o),
(60,340,cs),
(60,117,o),
(141,-10,o),
(255,-10,cs),
(336,-10,o),
(391,52,o),
(391,132,cs),
(391,207,o),
(334,268,o),
(244,273,c),
(234,204,l),
(286,199,o),
(310,165,o),
(310,129,cs),
(310,90,o),
(288,61,o),
(257,61,cs),
(206,61,o),
(141,140,o),
(141,338,cs),
(141,410,o),
(149,486,o),
(171,551,c),
(572,551,l),
(578,533,o),
(582,516,o),
(586,498,c),
(502,414,o),
(443,251,o),
(443,139,cs),
(443,46,o),
(482,-10,o),
(550,-10,cs),
(677,-10,o),
(685,180,o),
(685,282,cs),
(685,378,o),
(674,471,o),
(651,551,c),
(752,551,l)
);
},
{
closed = 1;
nodes = (
(457,726,o),
(509,683,o),
(543,622,c),
(203,622,l),
(240,684,o),
(296,726,o),
(378,726,cs)
);
},
{
closed = 1;
nodes = (
(605,161,o),
(590,60,o),
(554,60,cs),
(541,60,o),
(523,75,o),
(523,134,cs),
(523,190,o),
(536,314,o),
(600,401,c),
(604,356,o),
(605,313,o),
(605,280,cs)
);
}
);
width = 742;
}
);
unicode = 71173;
},
{
glyphname = VocR_iv;
layers = (
{
anchors = (
{
name = Anchor13;
position = "{620, 718}";
}
);
background = {
shapes = (
{
closed = 1;
nodes = (
(805,622,l),
(0,622,l),
(0,551,l),
(324,551,l),
(324,389,l),
(274,430,o),
(227,443,o),
(172,443,cs),
(130,443,o),
(88,434,o),
(40,413,c),
(69,340,l),
(109,358,o),
(140,367,o),
(174,367,cs),
(215,367,o),
(247,365,o),
(301,312,c),
(88,232,l),
(116,155,l),
(324,240,l),
(324,137,ls),
(324,33,o),
(361,-5,o),
(449,-10,c),
(460,64,l),
(428,69,o),
(404,86,o),
(404,141,cs),
(404,255,l),
(412,254,o),
(419,254,o),
(427,254,cs),
(481,254,o),
(528,262,o),
(567,276,c),
(605,231,o),
(643,193,o),
(643,144,cs),
(643,94,o),
(606,73,o),
(572,57,c),
(613,-7,l),
(674,23,o),
(722,63,o),
(722,140,cs),
(722,198,o),
(676,256,o),
(634,308,c),
(703,353,o),
(735,419,o),
(735,478,cs),
(735,505,o),
(728,530,o),
(715,551,c),
(805,551,l)
);
},
{
closed = 1;
nodes = (
(486,412,o),
(500,373,o),
(520,339,c),
(494,333,o),
(464,329,o),
(430,329,cs),
(404,329,l),
(404,551,l),
(511,551,l),
(495,527,o),
(486,496,o),
(486,462,cs)
);
},
{
closed = 1;
nodes = (
(561,497,o),
(577,530,o),
(617,530,cs),
(646,530,o),
(660,507,o),
(660,481,cs),
(660,441,o),
(638,398,o),
(590,368,c),
(573,396,o),
(561,426,o),
(561,462,cs)
);
}
);
};
layerId = "A38B966D-CDEB-4149-A2FB-BDE2BCA6D0C9";
shapes = (
{
closed = 1;
nodes = (
(805,622,l),
(0,622,l),
(0,551,l),
(324,551,l),
(324,389,l),
(274,430,o),
(227,443,o),
(172,443,cs),
(130,443,o),
(88,434,o),
(40,413,c),
(69,340,l),
(109,358,o),
(140,367,o),
(174,367,cs),
(215,367,o),
(247,365,o),
(301,312,c),
(88,232,l),
(116,155,l),
(324,240,l),
(324,137,ls),
(324,33,o),
(361,-5,o),
(449,-10,c),
(460,64,l),
(428,69,o),
(404,86,o),
(404,141,cs),
(404,255,l),
(412,254,o),
(419,254,o),
(427,254,cs),
(481,254,o),
(528,262,o),
(567,276,c),
(605,231,o),
(643,193,o),
(643,144,cs),
(643,94,o),
(606,73,o),
(572,57,c),
(613,-7,l),
(674,23,o),
(722,63,o),
(722,140,cs),
(722,198,o),
(676,256,o),
(634,308,c),
(703,353,o),
(735,419,o),
(735,478,cs),
(735,505,o),
(728,530,o),
(715,551,c),
(805,551,l)
);
},
{
closed = 1;
nodes = (
(486,412,o),
(500,373,o),
(520,339,c),
(494,333,o),
(464,329,o),
(430,329,cs),
(404,329,l),
(404,551,l),
(511,551,l),
(495,527,o),
(486,496,o),
(486,462,cs)
);
},
{
closed = 1;
nodes = (
(561,497,o),
(577,530,o),
(617,530,cs),
(646,530,o),
(660,507,o),
(660,481,cs),
(660,441,o),
(638,398,o),
(590,368,c),
(573,396,o),
(561,426,o),
(561,462,cs)
);
}
);
width = 795;
}
);
unicode = 71174;
},
{
glyphname = VocRR_iv;
layers = (
{
anchors = (
{
name = Anchor13;
position = "{617, 718}";
}
);
background = {
shapes = (
{
closed = 1;
nodes = (
(845,622,l),
(0,622,l),
(0,551,l),
(324,551,l),
(324,389,l),
(274,430,o),
(227,443,o),
(172,443,cs),
(130,443,o),
(88,434,o),
(40,413,c),
(69,340,l),
(109,358,o),
(140,367,o),
(174,367,cs),
(215,367,o),
(247,365,o),
(301,312,c),
(88,232,l),
(116,155,l),
(324,240,l),
(324,137,ls),
(324,33,o),
(361,-5,o),
(449,-10,c),
(460,64,l),
(428,69,o),
(404,86,o),
(404,141,cs),
(404,255,l),
(412,254,o),
(419,254,o),
(427,254,cs),
(481,254,o),
(528,262,o),
(567,276,c),
(595,240,o),
(643,199,o),
(643,144,cs),
(643,94,o),
(606,73,o),
(572,57,c),
(613,-7,l),
(674,23,o),
(722,63,o),
(722,140,cs),
(722,150,o),
(721,160,o),
(719,170,c),
(775,175,o),
(822,221,o),
(822,278,cs),
(822,338,o),
(776,386,o),
(709,386,c),
(726,416,o),
(735,448,o),
(735,478,cs),
(735,505,o),
(728,530,o),
(715,551,c),
(845,551,l)
);
},
{
closed = 1;
nodes = (
(486,412,o),
(500,373,o),
(520,339,c),
(494,333,o),
(464,329,o),
(430,329,cs),
(404,329,l),
(404,551,l),
(511,551,l),
(495,527,o),
(486,496,o),
(486,462,cs)
);
},
{
closed = 1;
nodes = (
(561,497,o),
(577,530,o),
(617,530,cs),
(646,530,o),
(660,507,o),
(660,481,cs),
(660,441,o),
(638,398,o),
(590,368,c),
(573,396,o),
(561,426,o),
(561,462,cs)
);
},
{
closed = 1;
nodes = (
(664,301,o),
(684,324,o),
(710,324,cs),
(737,324,o),
(757,306,o),
(757,279,cs),
(757,251,o),
(735,233,o),
(710,233,cs),
(695,233,o),
(687,242,o),
(679,252,cs),
(672,261,o),
(668,266,o),
(666,268,c),
(664,273,o),
(664,277,o),
(664,282,cs)
);
}
);
};
layerId = "A38B966D-CDEB-4149-A2FB-BDE2BCA6D0C9";
shapes = (
{
closed = 1;
nodes = (
(845,622,l),
(0,622,l),
(0,551,l),
(324,551,l),
(324,389,l),
(274,430,o),
(227,443,o),
(172,443,cs),
(130,443,o),
(88,434,o),
(40,413,c),
(69,340,l),
(109,358,o),
(140,367,o),
(174,367,cs),
(215,367,o),
(247,365,o),
(301,312,c),
(88,232,l),
(116,155,l),
(324,240,l),
(324,137,ls),
(324,33,o),
(361,-5,o),
(449,-10,c),
(460,64,l),
(428,69,o),
(404,86,o),
(404,141,cs),
(404,255,l),
(412,254,o),
(419,254,o),
(427,254,cs),
(481,254,o),
(528,262,o),
(567,276,c),
(595,240,o),
(643,199,o),
(643,144,cs),
(643,94,o),
(606,73,o),
(572,57,c),
(613,-7,l),
(674,23,o),
(722,63,o),
(722,140,cs),
(722,150,o),
(721,160,o),
(719,170,c),
(775,175,o),
(822,221,o),
(822,278,cs),
(822,338,o),
(776,386,o),
(709,386,c),
(726,416,o),
(735,448,o),
(735,478,cs),
(735,505,o),
(728,530,o),
(715,551,c),
(845,551,l)
);
},
{
closed = 1;
nodes = (
(486,412,o),
(500,373,o),
(520,339,c),
(494,333,o),
(464,329,o),
(430,329,cs),
(404,329,l),
(404,551,l),
(511,551,l),
(495,527,o),
(486,496,o),
(486,462,cs)
);
},
{
closed = 1;
nodes = (
(561,497,o),
(577,530,o),
(617,530,cs),
(646,530,o),
(660,507,o),
(660,481,cs),
(660,441,o),
(638,398,o),
(590,368,c),
(573,396,o),
(561,426,o),
(561,462,cs)
);
},
{
closed = 1;
nodes = (
(664,301,o),
(684,324,o),
(710,324,cs),
(737,324,o),
(757,306,o),
(757,279,cs),
(757,251,o),
(735,233,o),
(710,233,cs),
(695,233,o),
(687,242,o),
(679,252,cs),
(672,261,o),
(668,266,o),
(666,268,c),
(664,273,o),
(664,277,o),
(664,282,cs)
);
}
);
width = 835;
}
);
unicode = 71175;
},
{
glyphname = VocL_iv;
layers = (
{
anchors = (
{
name = Anchor13;
position = "{475, 718}";
}
);
background = {
shapes = (
{
closed = 1;
nodes = (
(245,59,l),
(195,120,o),
(140,214,o),
(140,289,cs),
(140,343,o),
(167,383,o),
(213,383,cs),
(247,383,o),
(286,361,o),
(296,300,c),
(364,300,l),
(375,372,o),
(428,383,o),
(455,383,cs),
(488,383,o),
(520,359,o),
(520,318,cs),
(520,207,o),
(391,186,o),
(391,82,cs),
(391,22,o),
(430,-40,o),
(532,-40,cs),
(562,-40,o),
(592,-33,o),
(617,-22,c),
(600,43,l),
(583,35,o),
(553,30,o),
(527,30,cs),
(505,30,o),
(471,44,o),
(471,86,cs),
(471,154,o),
(600,179,o),
(600,322,cs),
(600,386,o),
(558,431,o),
(506,448,c),
(506,551,l),
(670,551,l),
(670,622,l),
(0,622,l),
(0,551,l),
(426,551,l),
(426,453,l),
(387,447,o),
(354,429,o),
(330,400,c),
(298,440,o),
(249,456,o),
(211,456,cs),
(115,456,o),
(60,381,o),
(60,290,cs),
(60,192,o),
(122,77,o),
(188,10,c)
);
}
);
};
layerId = "A38B966D-CDEB-4149-A2FB-BDE2BCA6D0C9";
shapes = (
{
closed = 1;
nodes = (
(245,59,l),
(195,120,o),
(140,214,o),
(140,289,cs),
(140,343,o),
(167,383,o),
(213,383,cs),
(247,383,o),
(286,361,o),
(296,300,c),
(364,300,l),
(375,372,o),
(428,383,o),
(455,383,cs),
(488,383,o),
(520,359,o),
(520,318,cs),
(520,207,o),
(391,186,o),
(391,82,cs),
(391,22,o),
(430,-40,o),
(532,-40,cs),
(562,-40,o),
(592,-33,o),
(617,-22,c),
(600,43,l),
(583,35,o),
(553,30,o),
(527,30,cs),
(505,30,o),
(471,44,o),
(471,86,cs),
(471,154,o),
(600,179,o),
(600,322,cs),
(600,386,o),
(558,431,o),
(506,448,c),
(506,551,l),
(670,551,l),
(670,622,l),
(0,622,l),
(0,551,l),
(426,551,l),
(426,453,l),
(387,447,o),
(354,429,o),
(330,400,c),
(298,440,o),
(249,456,o),
(211,456,cs),
(115,456,o),
(60,381,o),
(60,290,cs),
(60,192,o),
(122,77,o),
(188,10,c)
);
}
);
width = 660;
}
);
unicode = 71176;
},
{
glyphname = VocLL_iv;
layers = (
{
anchors = (
{
name = Anchor13;
position = "{475, 718}";
}
);
background = {
shapes = (
{
closed = 1;
nodes = (
(245,59,l),
(195,120,o),
(140,214,o),
(140,289,cs),
(140,343,o),
(167,383,o),
(213,383,cs),
(247,383,o),
(286,361,o),
(296,300,c),
(364,300,l),
(375,372,o),
(428,383,o),
(455,383,cs),
(488,383,o),
(520,359,o),
(520,318,cs),
(520,207,o),
(391,186,o),
(391,82,cs),
(391,44,o),
(406,5,o),
(443,-18,c),
(423,-39,o),
(408,-64,o),
(408,-96,cs),
(408,-156,o),
(447,-210,o),
(549,-210,cs),
(591,-210,o),
(632,-201,o),
(663,-182,c),
(641,-115,l),
(616,-133,o),
(580,-140,o),
(544,-140,cs),
(522,-140,o),
(488,-134,o),
(488,-92,cs),
(488,-72,o),
(500,-56,o),
(519,-39,c),
(525,-40,o),
(527,-40,o),
(532,-40,cs),
(562,-40,o),
(592,-33,o),
(617,-22,c),
(600,43,l),
(580,34,o),
(553,30,o),
(527,30,cs),
(505,30,o),
(471,44,o),
(471,86,cs),
(471,154,o),
(600,179,o),
(600,322,cs),
(600,386,o),
(558,431,o),
(506,448,c),
(506,551,l),
(670,551,l),
(670,622,l),
(0,622,l),
(0,551,l),
(426,551,l),
(426,453,l),
(387,447,o),
(354,429,o),
(330,400,c),
(298,440,o),
(249,456,o),
(211,456,cs),
(115,456,o),
(60,381,o),
(60,290,cs),
(60,192,o),
(122,77,o),
(188,10,c)
);
}
);
};
layerId = "A38B966D-CDEB-4149-A2FB-BDE2BCA6D0C9";
shapes = (
{
closed = 1;
nodes = (
(245,59,l),
(195,120,o),
(140,214,o),
(140,289,cs),
(140,343,o),
(167,383,o),
(213,383,cs),
(247,383,o),
(286,361,o),
(296,300,c),
(364,300,l),
(375,372,o),
(428,383,o),
(455,383,cs),
(488,383,o),
(520,359,o),
(520,318,cs),
(520,207,o),
(391,186,o),
(391,82,cs),
(391,44,o),
(406,5,o),
(443,-18,c),
(423,-39,o),
(408,-64,o),
(408,-96,cs),
(408,-156,o),
(447,-210,o),
(549,-210,cs),
(591,-210,o),
(632,-201,o),
(663,-182,c),
(641,-115,l),
(616,-133,o),
(580,-140,o),
(544,-140,cs),
(522,-140,o),
(488,-134,o),
(488,-92,cs),
(488,-72,o),
(500,-56,o),
(519,-39,c),
(525,-40,o),
(527,-40,o),
(532,-40,cs),
(562,-40,o),
(592,-33,o),
(617,-22,c),
(600,43,l),
(580,34,o),
(553,30,o),
(527,30,cs),
(505,30,o),
(471,44,o),
(471,86,cs),
(471,154,o),
(600,179,o),
(600,322,cs),
(600,386,o),
(558,431,o),
(506,448,c),
(506,551,l),
(670,551,l),
(670,622,l),
(0,622,l),
(0,551,l),
(426,551,l),
(426,453,l),
(387,447,o),
(354,429,o),
(330,400,c),
(298,440,o),
(249,456,o),
(211,456,cs),
(115,456,o),
(60,381,o),
(60,290,cs),
(60,192,o),
(122,77,o),
(188,10,c)
);
}
);
width = 660;
}
);
unicode = 71177;
},
{
glyphname = E_iv;
layers = (
{
anchors = (
{
name = Anchor13;
position = "{701, 758}";
},
{
name = Anchor15;
position = "{485, 900}";
}
);
background = {
shapes = (
{
closed = 1;
nodes = (
(0,551,l),
(132,551,l),
(121,543,o),
(111,534,o),
(102,525,c),
(151,468,l),
(179,496,o),
(215,530,o),
(270,530,cs),
(312,530,o),
(333,500,o),
(333,470,cs),
(333,435,o),
(315,399,o),
(263,398,c),
(263,333,l),
(273,333,l),
(334,328,o),
(342,289,o),
(342,266,cs),
(342,232,o),
(320,198,o),
(250,198,cs),
(216,198,o),
(128,209,o),
(99,350,c),
(26,335,l),
(58,169,o),
(174,124,o),
(250,124,cs),
(263,124,l),
(289,51,o),
(363,-10,o),
(460,-10,cs),
(626,-10,o),
(676,124,o),
(676,282,cs),
(676,551,l),
(766,551,l),
(766,622,l),
(0,622,l)
);
},
{
closed = 1;
nodes = (
(408,63,o),
(360,99,o),
(341,141,c),
(398,166,o),
(423,216,o),
(423,268,cs),
(423,299,o),
(407,341,o),
(368,369,c),
(397,395,o),
(413,431,o),
(413,468,cs),
(413,498,o),
(403,527,o),
(385,551,c),
(596,551,l),
(596,282,ls),
(596,109,o),
(536,63,o),
(461,63,cs)
);
},
{
closed = 1;
nodes = (
(348,781,l),
(525,771,o),
(567,694,o),
(593,615,c),
(675,615,l),
(650,717,o),
(569,848,o),
(329,848,c)
);
}
);
};
layerId = "A38B966D-CDEB-4149-A2FB-BDE2BCA6D0C9";
shapes = (
{
closed = 1;
nodes = (
(0,551,l),
(132,551,l),
(121,543,o),
(111,534,o),
(102,525,c),
(151,468,l),
(179,496,o),
(215,530,o),
(270,530,cs),
(312,530,o),
(333,500,o),
(333,470,cs),
(333,435,o),
(315,399,o),
(263,398,c),
(263,333,l),
(273,333,l),
(334,328,o),
(342,289,o),
(342,266,cs),
(342,232,o),
(320,198,o),
(250,198,cs),
(216,198,o),
(128,209,o),
(99,350,c),
(26,335,l),
(58,169,o),
(174,124,o),
(250,124,cs),
(263,124,l),
(289,51,o),
(363,-10,o),
(460,-10,cs),
(626,-10,o),
(676,124,o),
(676,282,cs),
(676,551,l),
(766,551,l),
(766,622,l),
(0,622,l)
);
},
{
closed = 1;
nodes = (
(408,63,o),
(360,99,o),
(341,141,c),
(398,166,o),
(423,216,o),
(423,268,cs),
(423,299,o),
(407,341,o),
(368,369,c),
(397,395,o),
(413,431,o),
(413,468,cs),
(413,498,o),
(403,527,o),
(385,551,c),
(596,551,l),
(596,282,ls),
(596,109,o),
(536,63,o),
(461,63,cs)
);
},
{
closed = 1;
nodes = (
(348,781,l),
(525,771,o),
(567,694,o),
(593,615,c),
(675,615,l),
(650,717,o),
(569,848,o),
(329,848,c)
);
}
);
width = 756;
}
);
unicode = 71178;
},
{
glyphname = AI_iv;
layers = (
{
anchors = (
{
name = Anchor13;
position = "{741, 758}";
},
{
name = Anchor15;
position = "{461, 900}";
}
);
background = {
shapes = (
{
closed = 1;
nodes = (
(0,551,l),
(132,551,l),
(121,543,o),
(111,534,o),
(102,525,c),
(151,468,l),
(179,496,o),
(215,530,o),
(270,530,cs),
(312,530,o),
(333,500,o),
(333,470,cs),
(333,435,o),
(315,399,o),
(263,398,c),
(263,333,l),
(273,333,l),
(334,328,o),
(342,289,o),
(342,266,cs),
(342,232,o),
(320,198,o),
(250,198,cs),
(216,198,o),
(128,209,o),
(99,350,c),
(26,335,l),
(58,169,o),
(174,124,o),
(250,124,cs),
(263,124,l),
(289,51,o),
(363,-10,o),
(460,-10,cs),
(626,-10,o),
(676,124,o),
(676,282,cs),
(676,551,l),
(766,551,l),
(766,622,l),
(0,622,l)
);
},
{
closed = 1;
nodes = (
(408,63,o),
(360,99,o),
(341,141,c),
(398,166,o),
(423,216,o),
(423,268,cs),
(423,299,o),
(407,341,o),
(368,369,c),
(397,395,o),
(413,431,o),
(413,468,cs),
(413,498,o),
(403,527,o),
(385,551,c),
(596,551,l),
(596,282,ls),
(596,109,o),
(536,63,o),
(461,63,cs)
);
},
{
closed = 1;
nodes = (
(282,799,l),
(341,736,o),
(412,725,o),
(460,725,cs),
(501,725,o),
(542,735,o),
(573,749,c),
(596,615,l),
(675,615,l),
(636,819,l),
(587,836,l),
(566,819,o),
(520,795,o),
(455,795,cs),
(409,795,o),
(364,818,o),
(331,847,c)
);
}
);
};
layerId = "A38B966D-CDEB-4149-A2FB-BDE2BCA6D0C9";
shapes = (
{
closed = 1;
nodes = (
(0,551,l),
(132,551,l),
(121,543,o),
(111,534,o),
(102,525,c),
(151,468,l),
(179,496,o),
(215,530,o),
(270,530,cs),
(312,530,o),
(333,500,o),
(333,470,cs),
(333,435,o),
(315,399,o),
(263,398,c),
(263,333,l),
(273,333,l),
(334,328,o),
(342,289,o),
(342,266,cs),
(342,232,o),
(320,198,o),
(250,198,cs),
(216,198,o),
(128,209,o),
(99,350,c),
(26,335,l),
(58,169,o),
(174,124,o),
(250,124,cs),
(263,124,l),
(289,51,o),
(363,-10,o),
(460,-10,cs),
(626,-10,o),
(676,124,o),
(676,282,cs),
(676,551,l),
(766,551,l),
(766,622,l),
(0,622,l)
);
},
{
closed = 1;
nodes = (
(408,63,o),
(360,99,o),
(341,141,c),
(398,166,o),
(423,216,o),
(423,268,cs),
(423,299,o),
(407,341,o),
(368,369,c),
(397,395,o),
(413,431,o),
(413,468,cs),
(413,498,o),
(403,527,o),
(385,551,c),
(596,551,l),
(596,282,ls),
(596,109,o),
(536,63,o),
(461,63,cs)
);
},
{
closed = 1;
nodes = (
(282,799,l),
(341,736,o),
(412,725,o),
(460,725,cs),
(501,725,o),
(542,735,o),
(573,749,c),
(596,615,l),
(675,615,l),
(636,819,l),
(587,836,l),
(566,819,o),
(520,795,o),
(455,795,cs),
(409,795,o),
(364,818,o),
(331,847,c)
);
}
);
width = 756;
}
);
unicode = 71179;
},
{
glyphname = O_iv;
layers = (
{
anchors = (
{
name = Anchor13;
position = "{683, 758}";
},
{
name = Anchor15;
position = "{447, 920}";
}
);
background = {
shapes = (
{
closed = 1;
nodes = (
(731,9,l),
(713,35,o),
(698,53,o),
(682,65,c),
(646,123,o),
(623,196,o),
(623,355,cs),
(623,420,o),
(633,485,o),
(650,551,c),
(745,551,l),
(745,622,l),
(0,622,l),
(0,551,l),
(81,551,l),
(62,527,o),
(50,497,o),
(50,462,cs),
(50,385,o),
(110,322,o),
(187,322,cs),
(200,322,o),
(212,323,o),
(223,327,c),
(202,279,o),
(187,236,o),
(187,178,cs),
(187,39,o),
(286,-10,o),
(394,-10,cs),
(490,-10,o),
(529,20,o),
(587,20,cs),
(623,20,o),
(627,10,o),
(657,-21,c)
);
},
{
closed = 1;
nodes = (
(542,239,o),
(556,151,o),
(583,90,c),
(522,88,o),
(475,61,o),
(397,61,cs),
(305,61,o),
(268,102,o),
(268,179,cs),
(268,278,o),
(330,357,o),
(330,449,cs),
(330,484,o),
(321,522,o),
(299,551,c),
(568,551,l),
(552,484,o),
(542,417,o),
(542,352,cs)
);
},
{
closed = 1;
nodes = (
(162,392,o),
(120,412,o),
(120,461,cs),
(120,502,o),
(151,533,o),
(190,533,cs),
(240,533,o),
(251,483,o),
(251,462,cs),
(251,444,o),
(249,427,o),
(247,412,c),
(231,400,o),
(212,392,o),
(189,392,cs)
);
},
{
closed = 1;
nodes = (
(331,781,l),
(508,771,o),
(550,694,o),
(576,615,c),
(658,615,l),
(633,717,o),
(552,848,o),
(312,848,c)
);
}
);
};
layerId = "A38B966D-CDEB-4149-A2FB-BDE2BCA6D0C9";
shapes = (
{
closed = 1;
nodes = (
(731,9,l),
(713,35,o),
(698,53,o),
(682,65,c),
(646,123,o),
(623,196,o),
(623,355,cs),
(623,420,o),
(633,485,o),
(650,551,c),
(745,551,l),
(745,622,l),
(0,622,l),
(0,551,l),
(81,551,l),
(62,527,o),
(50,497,o),
(50,462,cs),
(50,385,o),
(110,322,o),
(187,322,cs),
(200,322,o),
(212,323,o),
(223,327,c),
(202,279,o),
(187,236,o),
(187,178,cs),
(187,39,o),
(286,-10,o),
(394,-10,cs),
(490,-10,o),
(529,20,o),
(587,20,cs),
(623,20,o),
(627,10,o),
(657,-21,c)
);
},
{
closed = 1;
nodes = (
(542,239,o),
(556,151,o),
(583,90,c),
(522,88,o),
(475,61,o),
(397,61,cs),
(305,61,o),
(268,102,o),
(268,179,cs),
(268,278,o),
(330,357,o),
(330,449,cs),
(330,484,o),
(321,522,o),
(299,551,c),
(568,551,l),
(552,484,o),
(542,417,o),
(542,352,cs)
);
},
{
closed = 1;
nodes = (
(162,392,o),
(120,412,o),
(120,461,cs),
(120,502,o),
(151,533,o),
(190,533,cs),
(240,533,o),
(251,483,o),
(251,462,cs),
(251,444,o),
(249,427,o),
(247,412,c),
(231,400,o),
(212,392,o),
(189,392,cs)
);
},
{
closed = 1;
nodes = (
(331,781,l),
(508,771,o),
(550,694,o),
(576,615,c),
(658,615,l),
(633,717,o),
(552,848,o),
(312,848,c)
);
}
);
width = 735;
}
);
unicode = 71180;
},
{
glyphname = AU_iv;
layers = (
{
anchors = (
{
name = Anchor13;
position = "{718, 758}";
},
{
name = Anchor15;
position = "{427, 900}";
}
);
background = {
shapes = (
{
closed = 1;
nodes = (
(731,9,l),
(713,35,o),
(698,53,o),
(682,65,c),
(646,123,o),
(623,196,o),
(623,355,cs),
(623,420,o),
(633,485,o),
(650,551,c),
(745,551,l),
(745,622,l),
(0,622,l),
(0,551,l),
(81,551,l),
(62,527,o),
(50,497,o),
(50,462,cs),
(50,385,o),
(110,322,o),
(187,322,cs),
(200,322,o),
(212,323,o),
(223,327,c),
(202,279,o),
(187,236,o),
(187,178,cs),
(187,39,o),
(286,-10,o),
(394,-10,cs),
(490,-10,o),
(529,20,o),
(587,20,cs),
(623,20,o),
(627,10,o),
(657,-21,c)
);
},
{
closed = 1;
nodes = (
(542,239,o),
(556,151,o),
(583,90,c),
(522,88,o),
(475,61,o),
(397,61,cs),
(305,61,o),
(268,102,o),
(268,179,cs),
(268,278,o),
(330,357,o),
(330,449,cs),
(330,484,o),
(321,522,o),
(299,551,c),
(568,551,l),
(552,484,o),
(542,417,o),
(542,352,cs)
);
},
{
closed = 1;
nodes = (
(162,392,o),
(120,412,o),
(120,461,cs),
(120,502,o),
(151,533,o),
(190,533,cs),
(240,533,o),
(251,483,o),
(251,462,cs),
(251,444,o),
(249,427,o),
(247,412,c),
(231,400,o),
(212,392,o),
(189,392,cs)
);
},
{
closed = 1;
nodes = (
(262,799,l),
(321,736,o),
(392,725,o),
(440,725,cs),
(481,725,o),
(522,735,o),
(553,749,c),
(576,615,l),
(655,615,l),
(616,819,l),
(567,836,l),
(546,819,o),
(500,795,o),
(435,795,cs),
(389,795,o),
(344,818,o),
(311,847,c)
);
}
);
};
layerId = "A38B966D-CDEB-4149-A2FB-BDE2BCA6D0C9";
shapes = (
{
closed = 1;
nodes = (
(731,9,l),
(713,35,o),
(698,53,o),
(682,65,c),
(646,123,o),
(623,196,o),
(623,355,cs),
(623,420,o),
(633,485,o),
(650,551,c),
(745,551,l),
(745,622,l),
(0,622,l),
(0,551,l),
(81,551,l),
(62,527,o),
(50,497,o),
(50,462,cs),
(50,385,o),
(110,322,o),
(187,322,cs),
(200,322,o),
(212,323,o),
(223,327,c),
(202,279,o),
(187,236,o),
(187,178,cs),
(187,39,o),
(286,-10,o),
(394,-10,cs),
(490,-10,o),
(529,20,o),
(587,20,cs),
(623,20,o),
(627,10,o),
(657,-21,c)
);
},
{
closed = 1;
nodes = (
(542,239,o),
(556,151,o),
(583,90,c),
(522,88,o),
(475,61,o),
(397,61,cs),
(305,61,o),
(268,102,o),
(268,179,cs),
(268,278,o),
(330,357,o),
(330,449,cs),
(330,484,o),
(321,522,o),
(299,551,c),
(568,551,l),
(552,484,o),
(542,417,o),
(542,352,cs)
);
},
{
closed = 1;
nodes = (
(162,392,o),
(120,412,o),
(120,461,cs),
(120,502,o),
(151,533,o),
(190,533,cs),
(240,533,o),
(251,483,o),
(251,462,cs),
(251,444,o),
(249,427,o),
(247,412,c),
(231,400,o),
(212,392,o),
(189,392,cs)
);
},
{
closed = 1;
nodes = (
(262,799,l),
(321,736,o),
(392,725,o),
(440,725,cs),
(481,725,o),
(522,735,o),
(553,749,c),
(576,615,l),
(655,615,l),
(616,819,l),
(567,836,l),
(546,819,o),
(500,795,o),
(435,795,cs),
(389,795,o),
(344,818,o),
(311,847,c)
);
}
);
width = 735;
}
);
unicode = 71181;
},
{
glyphname = Ka;
layers = (
{
anchors = (
{
name = Anchor11;
position = "{556, 622}";
},
{
name = Anchor13;
position = "{529, 718}";
},
{
name = Anchor15;
position = "{327, 718}";
},
{
name = Anchor3;
position = "{491, -80}";
},
{
name = Anchor5;
position = "{339, -80}";
},
{
name = Anchor7;
position = "{447, 90}";
},
{
name = Anchor9;
position = "{532, -47}";
}
);
background = {
shapes = (
{
closed = 1;
nodes = (
(0,551,l),
(101,551,l),
(57,493,o),
(40,452,o),
(40,395,cs),
(40,288,o),
(110,223,o),
(110,131,cs),
(110,101,o),
(103,56,o),
(93,16,c),
(91,11,o),
(89,5,o),
(88,0,c),
(165,0,l),
(198,141,o),
(292,176,o),
(411,178,c),
(414,56,o),
(456,-10,o),
(533,-10,cs),
(618,-10,o),
(635,58,o),
(635,85,cs),
(635,143,o),
(587,214,o),
(492,239,c),
(496,314,o),
(511,422,o),
(556,551,c),
(665,551,l),
(665,622,l),
(0,622,l)
);
},
{
closed = 1;
nodes = (
(318,247,o),
(242,226,o),
(186,175,c),
(171,257,o),
(120,318,o),
(120,402,cs),
(120,444,o),
(133,487,o),
(199,551,c),
(474,551,l),
(443,455,o),
(421,335,o),
(413,248,c)
);
},
{
closed = 1;
nodes = (
(560,81,o),
(552,60,o),
(534,60,cs),
(513,60,o),
(493,81,o),
(491,167,c),
(542,149,o),
(560,112,o),
(560,89,cs)
);
}
);
};
layerId = "A38B966D-CDEB-4149-A2FB-BDE2BCA6D0C9";
shapes = (
{
closed = 1;
nodes = (
(0,551,l),
(101,551,l),
(57,493,o),
(40,452,o),
(40,395,cs),
(40,288,o),
(110,223,o),
(110,131,cs),
(110,101,o),
(103,56,o),
(93,16,c),
(91,11,o),
(89,5,o),
(88,0,c),
(165,0,l),
(198,141,o),
(292,176,o),
(411,178,c),
(414,56,o),
(456,-10,o),
(533,-10,cs),
(618,-10,o),
(635,58,o),
(635,85,cs),
(635,143,o),
(587,214,o),
(492,239,c),
(496,314,o),
(511,422,o),
(556,551,c),
(665,551,l),
(665,622,l),
(0,622,l)
);
},
{
closed = 1;
nodes = (
(318,247,o),
(242,226,o),
(186,175,c),
(171,257,o),
(120,318,o),
(120,402,cs),
(120,444,o),
(133,487,o),
(199,551,c),
(474,551,l),
(443,455,o),
(421,335,o),
(413,248,c)
);
},
{
closed = 1;
nodes = (
(560,81,o),
(552,60,o),
(534,60,cs),
(513,60,o),
(493,81,o),
(491,167,c),
(542,149,o),
(560,112,o),
(560,89,cs)
);
}
);
width = 655;
}
);
unicode = 71182;
},
{
glyphname = Kha;
layers = (
{
anchors = (
{
name = Anchor11;
position = "{646, 622}";
},
{
name = Anchor13;
position = "{534, 718}";
},
{
name = Anchor15;
position = "{498, 718}";
},
{
name = Anchor3;
position = "{357, -80}";
},
{
name = Anchor5;
position = "{357, -80}";
},
{
name = Anchor7;
position = "{421, 61}";
},
{
name = Anchor9;
position = "{357, -70}";
}
);
background = {
shapes = (
{
closed = 1;
nodes = (
(704,622,l),
(290,622,l),
(295,639,o),
(298,658,o),
(298,679,cs),
(298,744,o),
(256,800,o),
(166,800,cs),
(120,800,o),
(79,787,o),
(40,732,c),
(101,692,l),
(113,710,o),
(139,728,o),
(164,728,cs),
(209,728,o),
(218,698,o),
(218,675,cs),
(218,656,o),
(213,639,o),
(206,622,c),
(0,622,l),
(0,551,l),
(157,551,l),
(111,496,o),
(55,443,o),
(55,376,cs),
(55,329,o),
(81,269,o),
(171,262,c),
(154,235,o),
(146,205,o),
(146,171,cs),
(146,67,o),
(221,-10,o),
(357,-10,cs),
(553,-10,o),
(634,155,o),
(634,310,cs),
(634,409,o),
(612,493,o),
(590,551,c),
(704,551,l)
);
},
{
closed = 1;
nodes = (
(274,355,l),
(242,339,o),
(221,332,o),
(189,332,cs),
(156,332,o),
(135,346,o),
(135,376,cs),
(135,437,o),
(206,482,o),
(255,551,c),
(509,551,l),
(531,495,o),
(554,407,o),
(554,311,cs),
(554,135,o),
(462,64,o),
(361,64,cs),
(264,64,o),
(226,123,o),
(226,172,cs),
(226,230,o),
(256,263,o),
(304,293,c)
);
}
);
};
layerId = "A38B966D-CDEB-4149-A2FB-BDE2BCA6D0C9";
shapes = (
{
closed = 1;
nodes = (
(704,622,l),
(290,622,l),
(295,639,o),
(298,658,o),
(298,679,cs),
(298,744,o),
(256,800,o),
(166,800,cs),
(120,800,o),
(79,787,o),
(40,732,c),
(101,692,l),
(113,710,o),
(139,728,o),
(164,728,cs),
(209,728,o),
(218,698,o),
(218,675,cs),
(218,656,o),
(213,639,o),
(206,622,c),
(0,622,l),
(0,551,l),
(157,551,l),
(111,496,o),
(55,443,o),
(55,376,cs),
(55,329,o),
(81,269,o),
(171,262,c),
(154,235,o),
(146,205,o),
(146,171,cs),
(146,67,o),
(221,-10,o),
(357,-10,cs),
(553,-10,o),
(634,155,o),
(634,310,cs),
(634,409,o),
(612,493,o),
(590,551,c),
(704,551,l)
);
},
{
closed = 1;
nodes = (
(274,355,l),
(242,339,o),
(221,332,o),
(189,332,cs),
(156,332,o),
(135,346,o),
(135,376,cs),
(135,437,o),
(206,482,o),
(255,551,c),
(509,551,l),
(531,495,o),
(554,407,o),
(554,311,cs),
(554,135,o),
(462,64,o),
(361,64,cs),
(264,64,o),
(226,123,o),
(226,172,cs),
(226,230,o),
(256,263,o),
(304,293,c)
);
}
);
width = 694;
}
);
unicode = 71183;
},
{
glyphname = Ga;
layers = (
{
anchors = (
{
name = Anchor11;
position = "{582, 622}";
},
{
name = Anchor13;
position = "{537, 718}";
},
{
name = Anchor3;
position = "{502, 0}";
},
{
name = Anchor7;
position = "{503, 160}";
}
);
background = {
shapes = (
{
closed = 1;
nodes = (
(582,551,l),
(672,551,l),
(672,622,l),
(0,622,l),
(0,551,l),
(187,551,l),
(222,459,o),
(237,361,o),
(242,289,c),
(223,298,o),
(202,304,o),
(179,304,cs),
(94,304,o),
(40,251,o),
(40,176,cs),
(40,88,o),
(106,45,o),
(177,45,cs),
(288,45,o),
(325,145,o),
(325,236,cs),
(325,293,o),
(315,428,o),
(274,551,c),
(502,551,l),
(502,0,l),
(582,0,l)
);
},
{
closed = 1;
nodes = (
(139,116,o),
(120,146,o),
(120,176,cs),
(120,213,o),
(152,233,o),
(180,233,cs),
(206,233,o),
(227,221,o),
(244,206,c),
(240,165,o),
(223,116,o),
(177,116,cs)
);
}
);
};
layerId = "A38B966D-CDEB-4149-A2FB-BDE2BCA6D0C9";
shapes = (
{
closed = 1;
nodes = (
(582,551,l),
(672,551,l),
(672,622,l),
(0,622,l),
(0,551,l),
(187,551,l),
(222,459,o),
(237,361,o),
(242,289,c),
(223,298,o),
(202,304,o),
(179,304,cs),
(94,304,o),
(40,251,o),
(40,176,cs),
(40,88,o),
(106,45,o),
(177,45,cs),
(288,45,o),
(325,145,o),
(325,236,cs),
(325,293,o),
(315,428,o),
(274,551,c),
(502,551,l),
(502,0,l),
(582,0,l)
);
},
{
closed = 1;
nodes = (
(139,116,o),
(120,146,o),
(120,176,cs),
(120,213,o),
(152,233,o),
(180,233,cs),
(206,233,o),
(227,221,o),
(244,206,c),
(240,165,o),
(223,116,o),
(177,116,cs)
);
}
);
width = 662;
}
);
unicode = 71184;
},
{
glyphname = Gha;
layers = (
{
anchors = (
{
name = Anchor11;
position = "{556, 622}";
},
{
name = Anchor13;
position = "{511, 718}";
},
{
name = Anchor3;
position = "{476, 0}";
},
{
name = Anchor7;
position = "{476, 120}";
}
);
background = {
shapes = (
{
closed = 1;
nodes = (
(556,551,l),
(646,551,l),
(646,622,l),
(0,622,l),
(0,551,l),
(75,551,l),
(51,514,o),
(40,476,o),
(40,444,cs),
(40,391,o),
(70,349,o),
(127,333,c),
(102,306,o),
(91,275,o),
(91,232,cs),
(91,130,o),
(175,89,o),
(269,89,cs),
(343,89,o),
(421,117,o),
(476,161,c),
(476,0,l),
(556,0,l)
);
},
{
closed = 1;
nodes = (
(253,414,l),
(231,404,o),
(212,397,o),
(190,397,cs),
(141,397,o),
(120,423,o),
(120,456,cs),
(120,487,o),
(139,524,o),
(173,551,c),
(476,551,l),
(476,251,l),
(427,198,o),
(336,160,o),
(266,160,cs),
(213,160,o),
(172,182,o),
(172,238,cs),
(172,277,o),
(199,320,o),
(261,345,cs),
(276,351,l)
);
}
);
};
layerId = "A38B966D-CDEB-4149-A2FB-BDE2BCA6D0C9";
shapes = (
{
closed = 1;
nodes = (
(556,551,l),
(646,551,l),
(646,622,l),
(0,622,l),
(0,551,l),
(75,551,l),
(51,514,o),
(40,476,o),
(40,444,cs),
(40,391,o),
(70,349,o),
(127,333,c),
(102,306,o),
(91,275,o),
(91,232,cs),
(91,130,o),
(175,89,o),
(269,89,cs),
(343,89,o),
(421,117,o),
(476,161,c),
(476,0,l),
(556,0,l)
);
},
{
closed = 1;
nodes = (
(253,414,l),
(231,404,o),
(212,397,o),
(190,397,cs),
(141,397,o),
(120,423,o),
(120,456,cs),
(120,487,o),
(139,524,o),
(173,551,c),
(476,551,l),
(476,251,l),
(427,198,o),
(336,160,o),
(266,160,cs),
(213,160,o),
(172,182,o),
(172,238,cs),
(172,277,o),
(199,320,o),
(261,345,cs),
(276,351,l)
);
}
);
width = 636;
}
);
unicode = 71185;
},
{
glyphname = Nga;
layers = (
{
anchors = (
{
name = Anchor11;
position = "{556, 622}";
},
{
name = Anchor13;
position = "{462, 718}";
},
{
name = Anchor3;
position = "{319, -80}";
},
{
name = Anchor5;
position = "{355, -80}";
},
{
name = Anchor7;
position = "{390, 54}";
},
{
name = Anchor9;
position = "{358, -70}";
}
);
background = {
shapes = (
{
closed = 1;
nodes = (
(670,622,l),
(0,622,l),
(0,551,l),
(315,551,l),
(234,497,o),
(180,436,o),
(180,363,cs),
(180,280,o),
(247,249,o),
(308,249,cs),
(344,249,o),
(377,259,o),
(397,259,cs),
(476,259,o),
(490,217,o),
(490,173,cs),
(490,118,o),
(449,64,o),
(355,64,cs),
(250,64,o),
(166,120,o),
(93,277,c),
(24,243,l),
(115,57,o),
(223,-10,o),
(358,-10,cs),
(498,-10,o),
(570,82,o),
(570,170,cs),
(570,271,o),
(517,330,o),
(411,330,cs),
(377,330,o),
(342,320,o),
(319,320,cs),
(287,320,o),
(260,331,o),
(260,365,cs),
(260,417,o),
(322,492,o),
(453,551,c),
(670,551,l)
);
},
{
closed = 1;
nodes = (
(506,482,o),
(482,458,o),
(482,427,cs),
(482,398,o),
(506,372,o),
(534,372,cs),
(562,372,o),
(586,398,o),
(586,427,cs),
(586,458,o),
(562,482,o),
(534,482,cs)
);
}
);
};
layerId = "A38B966D-CDEB-4149-A2FB-BDE2BCA6D0C9";
shapes = (
{
closed = 1;
nodes = (
(670,622,l),
(0,622,l),
(0,551,l),
(315,551,l),
(234,497,o),
(180,436,o),
(180,363,cs),
(180,280,o),
(247,249,o),
(308,249,cs),
(344,249,o),
(377,259,o),
(397,259,cs),
(476,259,o),
(490,217,o),
(490,173,cs),
(490,118,o),
(449,64,o),
(355,64,cs),
(250,64,o),
(166,120,o),
(93,277,c),
(24,243,l),
(115,57,o),
(223,-10,o),
(358,-10,cs),
(498,-10,o),
(570,82,o),
(570,170,cs),
(570,271,o),
(517,330,o),
(411,330,cs),
(377,330,o),
(342,320,o),
(319,320,cs),
(287,320,o),
(260,331,o),
(260,365,cs),
(260,417,o),
(322,492,o),
(453,551,c),
(670,551,l)
);
},
{
closed = 1;
nodes = (
(506,482,o),
(482,458,o),
(482,427,cs),
(482,398,o),
(506,372,o),
(534,372,cs),
(562,372,o),
(586,398,o),
(586,427,cs),
(586,458,o),
(562,482,o),
(534,482,cs)
);
}
);
width = 660;
}
);
unicode = 71186;
},
{
glyphname = Ca;
layers = (
{
anchors = (
{
name = Anchor11;
position = "{520, 622}";
},
{
name = Anchor13;
position = "{493, 718}";
},
{
name = Anchor3;
position = "{379, -80}";
},
{
name = Anchor5;
position = "{382, -80}";
},
{
name = Anchor7;
position = "{395, 54}";
},
{
name = Anchor9;
position = "{382, -70}";
}
);
background = {
shapes = (
{
closed = 1;
nodes = (
(655,622,l),
(0,622,l),
(0,551,l),
(458,551,l),
(487,530,o),
(504,497,o),
(504,463,cs),
(504,411,o),
(467,364,o),
(382,364,cs),
(379,364,o),
(377,364,o),
(369,365,c),
(364,295,l),
(457,292,o),
(493,237,o),
(493,181,cs),
(493,123,o),
(451,64,o),
(385,64,cs),
(256,64,o),
(217,231,o),
(72,231,cs),
(45,231,o),
(29,226,o),
(10,218,c),
(31,150,l),
(45,155,o),
(58,159,o),
(72,159,cs),
(171,159,o),
(216,-10,o),
(383,-10,cs),
(503,-10,o),
(573,72,o),
(573,180,cs),
(573,237,o),
(548,291,o),
(492,328,c),
(545,354,o),
(585,397,o),
(585,464,cs),
(585,494,o),
(575,525,o),
(556,551,c),
(655,551,l)
);
}
);
};
layerId = "A38B966D-CDEB-4149-A2FB-BDE2BCA6D0C9";
shapes = (
{
closed = 1;
nodes = (
(655,622,l),
(0,622,l),
(0,551,l),
(458,551,l),
(487,530,o),
(504,497,o),
(504,463,cs),
(504,411,o),
(467,364,o),
(382,364,cs),
(379,364,o),
(377,364,o),
(369,365,c),
(364,295,l),
(457,292,o),
(493,237,o),
(493,181,cs),
(493,123,o),
(451,64,o),
(385,64,cs),
(256,64,o),
(217,231,o),
(72,231,cs),
(45,231,o),
(29,226,o),
(10,218,c),
(31,150,l),
(45,155,o),
(58,159,o),
(72,159,cs),
(171,159,o),
(216,-10,o),
(383,-10,cs),
(503,-10,o),
(573,72,o),
(573,180,cs),
(573,237,o),
(548,291,o),
(492,328,c),
(545,354,o),
(585,397,o),
(585,464,cs),
(585,494,o),
(575,525,o),
(556,551,c),
(655,551,l)
);
}
);
width = 645;
}
);
unicode = 71187;
},
{
glyphname = Cha;
layers = (
{
anchors = (
{
name = Anchor11;
position = "{546, 622}";
},
{
name = Anchor13;
position = "{532, 718}";
},
{
name = Anchor15;
position = "{348, 718}";
},
{
name = Anchor3;
position = "{354, -80}";
},
{
name = Anchor5;
position = "{353, -80}";
},
{
name = Anchor7;
position = "{383, 54}";
},
{
name = Anchor9;
position = "{353, -70}";
}
);
background = {
shapes = (
{
closed = 1;
nodes = (
(706,622,l),
(0,622,l),
(0,551,l),
(85,551,l),
(52,513,o),
(40,470,o),
(40,431,cs),
(40,354,o),
(88,317,o),
(147,306,c),
(120,269,o),
(108,226,o),
(108,183,cs),
(108,84,o),
(173,-10,o),
(354,-10,cs),
(526,-10,o),
(616,110,o),
(616,302,cs),
(616,412,ls),
(616,463,o),
(604,514,o),
(577,551,c),
(706,551,l)
);
},
{
closed = 1;
nodes = (
(255,383,l),
(237,376,o),
(221,370,o),
(202,370,cs),
(145,370,o),
(120,399,o),
(120,436,cs),
(120,473,o),
(141,517,o),
(178,551,c),
(364,551,l),
(348,530,o),
(338,503,o),
(338,470,cs),
(338,395,o),
(389,345,o),
(474,345,cs),
(497,345,o),
(518,350,o),
(536,359,c),
(536,308,ls),
(536,143,o),
(471,64,o),
(353,64,cs),
(234,64,o),
(188,123,o),
(188,185,cs),
(188,237,o),
(214,289,o),
(281,317,c)
);
},
{
closed = 1;
nodes = (
(446,413,o),
(416,433,o),
(416,471,cs),
(416,501,o),
(433,532,o),
(472,532,cs),
(521,532,o),
(532,478,o),
(534,435,c),
(519,422,o),
(500,413,o),
(475,413,cs)
);
}
);
};
layerId = "A38B966D-CDEB-4149-A2FB-BDE2BCA6D0C9";
shapes = (
{
closed = 1;
nodes = (
(706,622,l),
(0,622,l),
(0,551,l),
(85,551,l),
(52,513,o),
(40,470,o),
(40,431,cs),
(40,354,o),
(88,317,o),
(147,306,c),
(120,269,o),
(108,226,o),
(108,183,cs),
(108,84,o),
(173,-10,o),
(354,-10,cs),
(526,-10,o),
(616,110,o),
(616,302,cs),
(616,412,ls),
(616,463,o),
(604,514,o),
(577,551,c),
(706,551,l)
);
},
{
closed = 1;
nodes = (
(255,383,l),
(237,376,o),
(221,370,o),
(202,370,cs),
(145,370,o),
(120,399,o),
(120,436,cs),
(120,473,o),
(141,517,o),
(178,551,c),
(364,551,l),
(348,530,o),
(338,503,o),
(338,470,cs),
(338,395,o),
(389,345,o),
(474,345,cs),
(497,345,o),
(518,350,o),
(536,359,c),
(536,308,ls),
(536,143,o),
(471,64,o),
(353,64,cs),
(234,64,o),
(188,123,o),
(188,185,cs),
(188,237,o),
(214,289,o),
(281,317,c)
);
},
{
closed = 1;
nodes = (
(446,413,o),
(416,433,o),
(416,471,cs),
(416,501,o),
(433,532,o),
(472,532,cs),
(521,532,o),
(532,478,o),
(534,435,c),
(519,422,o),
(500,413,o),
(475,413,cs)
);
}
);
width = 696;
}
);
unicode = 71188;
},
{
glyphname = Ja;
layers = (
{
anchors = (
{
name = Anchor11;
position = "{585, 622}";
},
{
name = Anchor13;
position = "{512, 718}";
},
{
name = Anchor15;
position = "{375, 718}";
},
{
name = Anchor3;
position = "{363, -80}";
},
{
name = Anchor5;
position = "{365, -80}";
},
{
name = Anchor7;
position = "{383, 52}";
},
{
name = Anchor9;
position = "{365, -70}";
}
);
background = {
shapes = (
{
closed = 1;
nodes = (
(658,622,l),
(0,622,l),
(0,551,l),
(104,551,l),
(72,529,o),
(50,492,o),
(50,447,cs),
(50,370,o),
(108,323,o),
(174,323,cs),
(232,323,o),
(274,363,o),
(287,393,c),
(328,322,l),
(265,240,o),
(227,176,o),
(227,113,cs),
(227,54,o),
(264,-10,o),
(365,-10,cs),
(470,-10,o),
(506,48,o),
(506,120,cs),
(506,148,o),
(480,212,o),
(437,282,cs),
(413,320,l),
(445,361,o),
(484,408,o),
(531,463,cs),
(605,551,l),
(658,551,l)
);
},
{
closed = 1;
nodes = (
(512,551,l),
(375,382,l),
(336,451,o),
(297,517,o),
(244,551,c)
);
},
{
closed = 1;
nodes = (
(409,189,o),
(428,150,o),
(428,123,cs),
(428,86,o),
(413,62,o),
(363,62,cs),
(331,62,o),
(305,87,o),
(305,123,cs),
(305,156,o),
(325,198,o),
(366,257,c)
);
},
{
closed = 1;
nodes = (
(196,501,o),
(217,487,o),
(240,460,c),
(234,427,o),
(219,392,o),
(177,392,cs),
(160,392,o),
(123,406,o),
(123,446,cs),
(123,483,o),
(154,501,o),
(173,501,cs)
);
}
);
};
layerId = "A38B966D-CDEB-4149-A2FB-BDE2BCA6D0C9";
shapes = (
{
closed = 1;
nodes = (
(658,622,l),
(0,622,l),
(0,551,l),
(104,551,l),
(72,529,o),
(50,492,o),
(50,447,cs),
(50,370,o),
(108,323,o),
(174,323,cs),
(232,323,o),
(274,363,o),
(287,393,c),
(328,322,l),
(265,240,o),
(227,176,o),
(227,113,cs),
(227,54,o),
(264,-10,o),
(365,-10,cs),
(470,-10,o),
(506,48,o),
(506,120,cs),
(506,148,o),
(480,212,o),
(437,282,cs),
(413,320,l),
(445,361,o),
(484,408,o),
(531,463,cs),
(605,551,l),
(658,551,l)
);
},
{
closed = 1;
nodes = (
(512,551,l),
(375,382,l),
(336,451,o),
(297,517,o),
(244,551,c)
);
},
{
closed = 1;
nodes = (
(409,189,o),
(428,150,o),
(428,123,cs),
(428,86,o),
(413,62,o),
(363,62,cs),
(331,62,o),
(305,87,o),
(305,123,cs),
(305,156,o),
(325,198,o),
(366,257,c)
);
},
{
closed = 1;
nodes = (
(196,501,o),
(217,487,o),
(240,460,c),
(234,427,o),
(219,392,o),
(177,392,cs),
(160,392,o),
(123,406,o),
(123,446,cs),
(123,483,o),
(154,501,o),
(173,501,cs)
);
}
);
width = 618;
}
);
unicode = 71189;
},
{
glyphname = Jha;
layers = (
{
anchors = (
{
name = Anchor11;
position = "{631, 622}";
},
{
name = Anchor13;
position = "{595, 718}";
},
{
name = Anchor3;
position = "{566, -80}";
},
{
name = Anchor5;
position = "{375, -80}";
},
{
name = Anchor7;
position = "{522, 90}";
},
{
name = Anchor9;
position = "{608, -47}";
}
);
background = {
shapes = (
{
closed = 1;
nodes = (
(0,551,l),
(161,551,l),
(100,504,o),
(60,449,o),
(60,386,cs),
(60,312,o),
(120,278,o),
(169,278,cs),
(199,278,o),
(215,287,o),
(253,287,cs),
(294,287,o),
(306,255,o),
(306,216,cs),
(306,189,o),
(288,157,o),
(262,129,c),
(224,168,o),
(182,195,o),
(124,195,cs),
(87,195,o),
(5,179,o),
(5,88,cs),
(5,29,o),
(61,-10,o),
(120,-10,cs),
(235,-10,o),
(346,73,o),
(378,163,c),
(411,173,o),
(448,177,o),
(486,178,c),
(489,56,o),
(531,-10,o),
(608,-10,cs),
(693,-10,o),
(710,58,o),
(710,85,cs),
(710,143,o),
(662,214,o),
(567,239,c),
(571,314,o),
(586,422,o),
(631,551,c),
(740,551,l),
(740,622,l),
(0,622,l)
);
},
{
closed = 1;
nodes = (
(225,357,o),
(207,348,o),
(188,348,cs),
(163,348,o),
(140,358,o),
(140,388,cs),
(140,434,o),
(189,499,o),
(289,551,c),
(549,551,l),
(518,455,o),
(496,335,o),
(488,248,c),
(452,247,o),
(417,244,o),
(385,237,c),
(377,313,o),
(330,357,o),
(262,357,cs)
);
},
{
closed = 1;
nodes = (
(95,60,o),
(81,77,o),
(81,90,cs),
(81,116,o),
(106,125,o),
(128,125,cs),
(152,125,o),
(177,108,o),
(203,83,c),
(178,69,o),
(152,60,o),
(127,60,cs)
);
},
{
closed = 1;
nodes = (
(635,81,o),
(627,60,o),
(609,60,cs),
(588,60,o),
(568,81,o),
(566,167,c),
(617,149,o),
(635,112,o),
(635,89,cs)
);
}
);
};
layerId = "A38B966D-CDEB-4149-A2FB-BDE2BCA6D0C9";
shapes = (
{
closed = 1;
nodes = (
(0,551,l),
(161,551,l),
(100,504,o),
(60,449,o),
(60,386,cs),
(60,312,o),
(120,278,o),
(169,278,cs),
(199,278,o),
(215,287,o),
(253,287,cs),
(294,287,o),
(306,255,o),
(306,216,cs),
(306,189,o),
(288,157,o),
(262,129,c),
(224,168,o),
(182,195,o),
(124,195,cs),
(87,195,o),
(5,179,o),
(5,88,cs),
(5,29,o),
(61,-10,o),
(120,-10,cs),
(235,-10,o),
(346,73,o),
(378,163,c),
(411,173,o),
(448,177,o),
(486,178,c),
(489,56,o),
(531,-10,o),
(608,-10,cs),
(693,-10,o),
(710,58,o),
(710,85,cs),
(710,143,o),
(662,214,o),
(567,239,c),
(571,314,o),
(586,422,o),
(631,551,c),
(740,551,l),
(740,622,l),
(0,622,l)
);
},
{
closed = 1;
nodes = (
(225,357,o),
(207,348,o),
(188,348,cs),
(163,348,o),
(140,358,o),
(140,388,cs),
(140,434,o),
(189,499,o),
(289,551,c),
(549,551,l),
(518,455,o),
(496,335,o),
(488,248,c),
(452,247,o),
(417,244,o),
(385,237,c),
(377,313,o),
(330,357,o),
(262,357,cs)
);
},
{
closed = 1;
nodes = (
(95,60,o),
(81,77,o),
(81,90,cs),
(81,116,o),
(106,125,o),
(128,125,cs),
(152,125,o),
(177,108,o),
(203,83,c),
(178,69,o),
(152,60,o),
(127,60,cs)
);
},
{
closed = 1;
nodes = (
(635,81,o),
(627,60,o),
(609,60,cs),
(588,60,o),
(568,81,o),
(566,167,c),
(617,149,o),
(635,112,o),
(635,89,cs)
);
}
);
width = 730;
}
);
unicode = 71190;
},
{
glyphname = Nya;
layers = (
{
anchors = (
{
name = Anchor11;
position = "{637, 622}";
},
{
name = Anchor13;
position = "{600, 718}";
},
{
name = Anchor3;
position = "{573, -80}";
},
{
name = Anchor5;
position = "{391, -80}";
},
{
name = Anchor7;
position = "{519, 90}";
},
{
name = Anchor9;
position = "{615, -47}";
}
);
background = {
shapes = (
{
closed = 1;
nodes = (
(20,186,l),
(65,106,o),
(124,50,o),
(218,50,cs),
(297,50,o),
(391,97,o),
(399,209,c),
(427,206,o),
(454,203,o),
(483,196,c),
(483,62,o),
(529,-10,o),
(614,-10,cs),
(699,-10,o),
(716,58,o),
(716,85,cs),
(716,165,o),
(650,217,o),
(566,247,c),
(573,322,o),
(593,427,o),
(637,551,c),
(746,551,l),
(746,622,l),
(0,622,l),
(0,551,l),
(555,551,l),
(525,462,o),
(500,354,o),
(489,269,c),
(456,276,o),
(423,280,o),
(391,282,c),
(368,348,o),
(305,387,o),
(231,387,cs),
(185,387,o),
(150,377,o),
(122,369,c),
(141,303,l),
(161,309,o),
(200,317,o),
(229,317,cs),
(283,317,o),
(320,284,o),
(320,223,cs),
(320,161,o),
(280,120,o),
(220,120,cs),
(158,120,o),
(110,166,o),
(76,226,c)
);
},
{
closed = 1;
nodes = (
(641,81,o),
(633,60,o),
(615,60,cs),
(592,60,o),
(565,82,o),
(563,170,c),
(608,151,o),
(641,124,o),
(641,89,cs)
);
}
);
};
layerId = "A38B966D-CDEB-4149-A2FB-BDE2BCA6D0C9";
shapes = (
{
closed = 1;
nodes = (
(20,186,l),
(65,106,o),
(124,50,o),
(218,50,cs),
(297,50,o),
(391,97,o),
(399,209,c),
(427,206,o),
(454,203,o),
(483,196,c),
(483,62,o),
(529,-10,o),
(614,-10,cs),
(699,-10,o),
(716,58,o),
(716,85,cs),
(716,165,o),
(650,217,o),
(566,247,c),
(573,322,o),
(593,427,o),
(637,551,c),
(746,551,l),
(746,622,l),
(0,622,l),
(0,551,l),
(555,551,l),
(525,462,o),
(500,354,o),
(489,269,c),
(456,276,o),
(423,280,o),
(391,282,c),
(368,348,o),
(305,387,o),
(231,387,cs),
(185,387,o),
(150,377,o),
(122,369,c),
(141,303,l),
(161,309,o),
(200,317,o),
(229,317,cs),
(283,317,o),
(320,284,o),
(320,223,cs),
(320,161,o),
(280,120,o),
(220,120,cs),
(158,120,o),
(110,166,o),
(76,226,c)
);
},
{
closed = 1;
nodes = (
(641,81,o),
(633,60,o),
(615,60,cs),
(592,60,o),
(565,82,o),
(563,170,c),
(608,151,o),
(641,124,o),
(641,89,cs)
);
}
);
width = 736;
}
);
unicode = 71191;
},
{
glyphname = Tta;
layers = (
{
anchors = (
{
name = Anchor11;
position = "{458, 622}";
},
{
name = Anchor13;
position = "{422, 718}";
},
{
name = Anchor3;
position = "{282, -80}";
},
{
name = Anchor5;
position = "{273, -80}";
},
{
name = Anchor7;
position = "{322, 57}";
},
{
name = Anchor9;
position = "{277, -70}";
}
);
background = {
shapes = (
{
closed = 1;
nodes = (
(292,414,l),
(286,415,o),
(279,415,o),
(272,415,cs),
(107,415,o),
(60,276,o),
(60,203,cs),
(60,77,o),
(142,-10,o),
(273,-10,cs),
(407,-10,o),
(494,80,o),
(494,215,cs),
(494,310,o),
(445,390,o),
(445,471,cs),
(445,490,o),
(446,524,o),
(458,551,c),
(564,551,l),
(564,622,l),
(0,622,l),
(0,551,l),
(373,551,l),
(365,525,o),
(365,495,o),
(365,472,cs),
(365,380,o),
(414,307,o),
(414,224,cs),
(414,127,o),
(357,64,o),
(272,64,cs),
(187,64,o),
(140,127,o),
(140,203,cs),
(140,278,o),
(195,341,o),
(273,341,cs),
(281,341,l)
);
}
);
};
layerId = "A38B966D-CDEB-4149-A2FB-BDE2BCA6D0C9";
shapes = (
{
closed = 1;
nodes = (
(292,414,l),
(286,415,o),
(279,415,o),
(272,415,cs),
(107,415,o),
(60,276,o),
(60,203,cs),
(60,77,o),
(142,-10,o),
(273,-10,cs),
(407,-10,o),
(494,80,o),
(494,215,cs),
(494,310,o),
(445,390,o),
(445,471,cs),
(445,490,o),
(446,524,o),
(458,551,c),
(564,551,l),
(564,622,l),
(0,622,l),
(0,551,l),
(373,551,l),
(365,525,o),
(365,495,o),
(365,472,cs),
(365,380,o),
(414,307,o),
(414,224,cs),
(414,127,o),
(357,64,o),
(272,64,cs),
(187,64,o),
(140,127,o),
(140,203,cs),
(140,278,o),
(195,341,o),
(273,341,cs),
(281,341,l)
);
}
);
width = 554;
}
);
unicode = 71192;
},
{
glyphname = Dda;
layers = (
{
anchors = (
{
name = Anchor11;
position = "{463, 622}";
},
{
name = Anchor13;
position = "{472, 718}";
},
{
name = Anchor3;
position = "{338, -80}";
},
{
name = Anchor5;
position = "{358, -80}";
},
{
name = Anchor7;
position = "{401, 54}";
},
{
name = Anchor9;
position = "{355, -70}";
}
);
background = {
shapes = (
{
closed = 1;
nodes = (
(640,622,l),
(0,622,l),
(0,551,l),
(315,551,l),
(234,497,o),
(180,436,o),
(180,363,cs),
(180,280,o),
(247,249,o),
(308,249,cs),
(344,249,o),
(377,259,o),
(397,259,cs),
(476,259,o),
(490,217,o),
(490,173,cs),
(490,118,o),
(449,64,o),
(355,64,cs),
(250,64,o),
(166,120,o),
(93,277,c),
(24,243,l),
(115,57,o),
(223,-10,o),
(358,-10,cs),
(498,-10,o),
(570,82,o),
(570,170,cs),
(570,271,o),
(517,330,o),
(411,330,cs),
(377,330,o),
(342,320,o),
(319,320,cs),
(287,320,o),
(260,331,o),
(260,365,cs),
(260,417,o),
(322,492,o),
(453,551,c),
(640,551,l)
);
}
);
};
layerId = "A38B966D-CDEB-4149-A2FB-BDE2BCA6D0C9";
shapes = (
{
closed = 1;
nodes = (
(640,622,l),
(0,622,l),
(0,551,l),
(315,551,l),
(234,497,o),
(180,436,o),
(180,363,cs),
(180,280,o),
(247,249,o),
(308,249,cs),
(344,249,o),
(377,259,o),
(397,259,cs),
(476,259,o),
(490,217,o),
(490,173,cs),
(490,118,o),
(449,64,o),
(355,64,cs),
(250,64,o),
(166,120,o),
(93,277,c),
(24,243,l),
(115,57,o),
(223,-10,o),
(358,-10,cs),
(498,-10,o),
(570,82,o),
(570,170,cs),
(570,271,o),
(517,330,o),
(411,330,cs),
(377,330,o),
(342,320,o),
(319,320,cs),
(287,320,o),
(260,331,o),
(260,365,cs),
(260,417,o),
(322,492,o),
(453,551,c),
(640,551,l)
);
}
);
width = 630;
}
);
unicode = 71194;
},
{
glyphname = Ddha;
layers = (
{
anchors = (
{
name = Anchor11;
position = "{385, 622}";
},
{
name = Anchor13;
position = "{459, 718}";
},
{
name = Anchor15;
position = "{337, 718}";
},
{
name = Anchor3;
position = "{316, -80}";
},
{
name = Anchor5;
position = "{291, -80}";
},
{
name = Anchor7;
position = "{347, 54}";
},
{
name = Anchor9;
position = "{289, -70}";
}
);
background = {
shapes = (
{
closed = 1;
nodes = (
(584,622,l),
(0,622,l),
(0,551,l),
(305,551,l),
(289,404,o),
(60,370,o),
(60,192,cs),
(60,51,o),
(166,-10,o),
(291,-10,cs),
(435,-10,o),
(534,68,o),
(534,179,cs),
(534,250,o),
(481,318,o),
(391,318,cs),
(308,318,o),
(251,256,o),
(251,179,cs),
(251,131,o),
(276,89,o),
(316,65,c),
(308,64,o),
(299,64,o),
(291,64,cs),
(180,64,o),
(140,135,o),
(140,194,cs),
(140,332,o),
(370,377,o),
(385,551,c),
(584,551,l)
);
},
{
closed = 1;
nodes = (
(326,208,o),
(342,250,o),
(391,250,cs),
(432,250,o),
(459,220,o),
(459,181,cs),
(459,147,o),
(445,117,o),
(417,96,c),
(353,112,o),
(326,150,o),
(326,181,cs)
);
}
);
};
layerId = "A38B966D-CDEB-4149-A2FB-BDE2BCA6D0C9";
shapes = (
{
closed = 1;
nodes = (
(584,622,l),
(0,622,l),
(0,551,l),
(305,551,l),
(289,404,o),
(60,370,o),
(60,192,cs),
(60,51,o),
(166,-10,o),
(291,-10,cs),
(435,-10,o),
(534,68,o),
(534,179,cs),
(534,250,o),
(481,318,o),
(391,318,cs),
(308,318,o),
(251,256,o),
(251,179,cs),
(251,131,o),
(276,89,o),
(316,65,c),
(308,64,o),
(299,64,o),
(291,64,cs),
(180,64,o),
(140,135,o),
(140,194,cs),
(140,332,o),
(370,377,o),
(385,551,c),
(584,551,l)
);
},
{
closed = 1;
nodes = (
(326,208,o),
(342,250,o),
(391,250,cs),
(432,250,o),
(459,220,o),
(459,181,cs),
(459,147,o),
(445,117,o),
(417,96,c),
(353,112,o),
(326,150,o),
(326,181,cs)
);
}
);
width = 574;
}
);
unicode = 71195;
},
{
glyphname = Nna;
layers = (
{
anchors = (
{
name = Anchor11;
position = "{641, 622}";
},
{
name = Anchor13;
position = "{596, 718}";
},
{
name = Anchor3;
position = "{561, 0}";
},
{
name = Anchor7;
position = "{561, 120}";
}
);
background = {
shapes = (
{
closed = 1;
nodes = (
(641,551,l),
(731,551,l),
(731,622,l),
(0,622,l),
(0,551,l),
(90,551,l),
(69,484,o),
(60,401,o),
(60,322,cs),
(60,175,o),
(100,40,o),
(270,40,cs),
(357,40,o),
(465,89,o),
(465,215,cs),
(465,272,o),
(439,319,o),
(383,351,c),
(423,377,o),
(444,418,o),
(444,463,cs),
(444,491,o),
(436,521,o),
(419,551,c),
(561,551,l),
(561,0,l),
(641,0,l)
);
},
{
closed = 1;
nodes = (
(265,320,l),
(353,316,o),
(386,265,o),
(386,216,cs),
(386,140,o),
(318,114,o),
(269,114,cs),
(158,114,o),
(140,216,o),
(140,325,cs),
(140,408,o),
(153,496,o),
(167,551,c),
(335,551,l),
(353,528,o),
(364,498,o),
(364,470,cs),
(364,425,o),
(337,385,o),
(282,385,cs),
(280,385,o),
(278,385,o),
(270,386,c)
);
}
);
};
layerId = "A38B966D-CDEB-4149-A2FB-BDE2BCA6D0C9";
shapes = (
{
closed = 1;
nodes = (
(641,551,l),
(731,551,l),
(731,622,l),
(0,622,l),
(0,551,l),
(90,551,l),
(69,484,o),
(60,401,o),
(60,322,cs),
(60,175,o),
(100,40,o),
(270,40,cs),
(357,40,o),
(465,89,o),
(465,215,cs),
(465,272,o),
(439,319,o),
(383,351,c),
(423,377,o),
(444,418,o),
(444,463,cs),
(444,491,o),
(436,521,o),
(419,551,c),
(561,551,l),
(561,0,l),
(641,0,l)
);
},
{
closed = 1;
nodes = (
(265,320,l),
(353,316,o),
(386,265,o),
(386,216,cs),
(386,140,o),
(318,114,o),
(269,114,cs),
(158,114,o),
(140,216,o),
(140,325,cs),
(140,408,o),
(153,496,o),
(167,551,c),
(335,551,l),
(353,528,o),
(364,498,o),
(364,470,cs),
(364,425,o),
(337,385,o),
(282,385,cs),
(280,385,o),
(278,385,o),
(270,386,c)
);
}
);
width = 721;
}
);
unicode = 71196;
},
{
glyphname = Ta;
layers = (
{
anchors = (
{
name = Anchor11;
position = "{452, 622}";
},
{
name = Anchor13;
position = "{407, 718}";
},
{
name = Anchor3;
position = "{372, 0}";
},
{
name = Anchor5;
position = "{296, -80}";
},
{
name = Anchor7;
position = "{372, 80}";
}
);
background = {
shapes = (
{
closed = 1;
nodes = (
(452,551,l),
(542,551,l),
(542,622,l),
(0,622,l),
(0,551,l),
(372,551,l),
(372,476,l),
(154,426,o),
(60,348,o),
(60,254,cs),
(60,207,o),
(84,156,o),
(128,103,cs),
(226,-14,l),
(261,61,l),
(199,137,ls),
(160,184,o),
(141,224,o),
(141,258,cs),
(141,323,o),
(228,366,o),
(372,403,c),
(372,0,l),
(452,0,l)
);
}
);
};
layerId = "A38B966D-CDEB-4149-A2FB-BDE2BCA6D0C9";
shapes = (
{
closed = 1;
nodes = (
(452,551,l),
(542,551,l),
(542,622,l),
(0,622,l),
(0,551,l),
(372,551,l),
(372,476,l),
(154,426,o),
(60,348,o),
(60,254,cs),
(60,207,o),
(84,156,o),
(128,103,cs),
(226,-14,l),
(261,61,l),
(199,137,ls),
(160,184,o),
(141,224,o),
(141,258,cs),
(141,323,o),
(228,366,o),
(372,403,c),
(372,0,l),
(452,0,l)
);
}
);
width = 532;
}
);
unicode = 71197;
},
{
glyphname = Tha;
layers = (
{
anchors = (
{
name = Anchor11;
position = "{702, 622}";
},
{
name = Anchor13;
position = "{669, 718}";
},
{
name = Anchor3;
position = "{507, -80}";
}
);
background = {
shapes = (
{
closed = 1;
nodes = (
(844,622,l),
(0,622,l),
(0,551,l),
(81,551,l),
(62,527,o),
(50,497,o),
(50,462,cs),
(50,385,o),
(110,322,o),
(187,322,cs),
(200,322,o),
(213,324,o),
(224,327,c),
(205,276,o),
(188,224,o),
(188,183,cs),
(188,136,o),
(224,76,o),
(302,76,cs),
(337,76,o),
(368,87,o),
(395,105,c),
(403,53,o),
(452,-10,o),
(547,-10,cs),
(724,-10,o),
(774,155,o),
(774,310,cs),
(774,409,o),
(743,493,o),
(717,551,c),
(844,551,l)
);
},
{
closed = 1;
nodes = (
(450,266,l),
(390,161,o),
(347,146,o),
(306,146,cs),
(284,146,o),
(268,156,o),
(268,190,cs),
(268,284,o),
(330,360,o),
(330,459,cs),
(330,489,o),
(321,523,o),
(300,551,c),
(634,551,l),
(662,490,o),
(694,394,o),
(694,311,cs),
(694,135,o),
(625,64,o),
(549,64,cs),
(490,64,o),
(470,95,o),
(470,132,cs),
(470,159,o),
(478,183,o),
(508,235,c)
);
},
{
closed = 1;
nodes = (
(162,392,o),
(120,412,o),
(120,461,cs),
(120,502,o),
(151,533,o),
(190,533,cs),
(240,533,o),
(251,483,o),
(251,462,cs),
(251,444,o),
(249,428,o),
(247,412,c),
(231,400,o),
(212,392,o),
(189,392,cs)
);
}
);
};
layerId = "A38B966D-CDEB-4149-A2FB-BDE2BCA6D0C9";
shapes = (
{
closed = 1;
nodes = (
(844,622,l),
(0,622,l),
(0,551,l),
(81,551,l),
(62,527,o),
(50,497,o),
(50,462,cs),
(50,385,o),
(110,322,o),
(187,322,cs),
(200,322,o),
(213,324,o),
(224,327,c),
(205,276,o),
(188,224,o),
(188,183,cs),
(188,136,o),
(224,76,o),
(302,76,cs),
(337,76,o),
(368,87,o),
(395,105,c),
(403,53,o),
(452,-10,o),
(547,-10,cs),
(724,-10,o),
(774,155,o),
(774,310,cs),
(774,409,o),
(743,493,o),
(717,551,c),
(844,551,l)
);
},
{
closed = 1;
nodes = (
(450,266,l),
(390,161,o),
(347,146,o),
(306,146,cs),
(284,146,o),
(268,156,o),
(268,190,cs),
(268,284,o),
(330,360,o),
(330,459,cs),
(330,489,o),
(321,523,o),
(300,551,c),
(634,551,l),
(662,490,o),
(694,394,o),
(694,311,cs),
(694,135,o),
(625,64,o),
(549,64,cs),
(490,64,o),
(470,95,o),
(470,132,cs),
(470,159,o),
(478,183,o),
(508,235,c)
);
},
{
closed = 1;
nodes = (
(162,392,o),
(120,412,o),
(120,461,cs),
(120,502,o),
(151,533,o),
(190,533,cs),
(240,533,o),
(251,483,o),
(251,462,cs),
(251,444,o),
(249,428,o),
(247,412,c),
(231,400,o),
(212,392,o),
(189,392,cs)
);
}
);
width = 834;
}
);
unicode = 71198;
},
{
glyphname = Da;
layers = (
{
anchors = (
{
name = Anchor11;
position = "{516, 622}";
},
{
name = Anchor13;
position = "{485, 718}";
},
{
name = Anchor15;
position = "{321, 718}";
},
{
name = Anchor3;
position = "{335, -80}";
},
{
name = Anchor5;
position = "{321, -80}";
},
{
name = Anchor7;
position = "{374, 54}";
},
{
name = Anchor9;
position = "{331, -70}";
}
);
background = {
shapes = (
{
closed = 1;
nodes = (
(652,622,l),
(0,622,l),
(0,551,l),
(67,551,l),
(50,519,o),
(40,482,o),
(40,446,cs),
(40,379,o),
(78,316,o),
(157,304,c),
(126,265,o),
(118,224,o),
(118,179,cs),
(118,75,o),
(195,-10,o),
(331,-10,cs),
(527,-10,o),
(582,155,o),
(582,310,cs),
(582,409,o),
(555,493,o),
(531,551,c),
(652,551,l)
);
},
{
closed = 1;
nodes = (
(502,135,o),
(436,64,o),
(335,64,cs),
(238,64,o),
(198,125,o),
(198,183,cs),
(198,247,o),
(224,288,o),
(302,331,c),
(272,390,l),
(238,376,o),
(216,372,o),
(197,372,cs),
(147,372,o),
(120,402,o),
(120,448,cs),
(120,477,o),
(126,513,o),
(153,551,c),
(450,551,l),
(475,495,o),
(502,407,o),
(502,311,cs)
);
}
);
};
layerId = "A38B966D-CDEB-4149-A2FB-BDE2BCA6D0C9";
shapes = (
{
closed = 1;
nodes = (
(652,622,l),
(0,622,l),
(0,551,l),
(67,551,l),
(50,519,o),
(40,482,o),
(40,446,cs),
(40,379,o),
(78,316,o),
(157,304,c),
(126,265,o),
(118,224,o),
(118,179,cs),
(118,75,o),
(195,-10,o),
(331,-10,cs),
(527,-10,o),
(582,155,o),
(582,310,cs),
(582,409,o),
(555,493,o),
(531,551,c),
(652,551,l)
);
},
{
closed = 1;
nodes = (
(502,135,o),
(436,64,o),
(335,64,cs),
(238,64,o),
(198,125,o),
(198,183,cs),
(198,247,o),
(224,288,o),
(302,331,c),
(272,390,l),
(238,376,o),
(216,372,o),
(197,372,cs),
(147,372,o),
(120,402,o),
(120,448,cs),
(120,477,o),
(126,513,o),
(153,551,c),
(450,551,l),
(475,495,o),
(502,407,o),
(502,311,cs)
);
}
);
width = 642;
}
);
unicode = 71199;
},
{
glyphname = Dha;
layers = (
{
anchors = (
{
name = Anchor11;
position = "{544, 622}";
},
{
name = Anchor13;
position = "{515, 718}";
},
{
name = Anchor15;
position = "{336, 718}";
},
{
name = Anchor3;
position = "{371, -80}";
},
{
name = Anchor5;
position = "{336, -80}";
},
{
name = Anchor7;
position = "{414, 55}";
},
{
name = Anchor9;
position = "{374, -70}";
}
);
background = {
shapes = (
{
closed = 1;
nodes = (
(683,622,l),
(0,622,l),
(0,551,l),
(82,551,l),
(60,520,o),
(50,480,o),
(50,444,cs),
(50,343,o),
(105,247,o),
(209,237,c),
(192,211,o),
(185,184,o),
(185,149,cs),
(185,69,o),
(254,-10,o),
(371,-10,cs),
(544,-10,o),
(613,132,o),
(613,310,cs),
(613,401,o),
(584,490,o),
(559,551,c),
(683,551,l)
);
},
{
closed = 1;
nodes = (
(533,196,o),
(512,62,o),
(374,62,cs),
(316,62,o),
(260,95,o),
(260,157,cs),
(260,206,o),
(305,255,o),
(349,270,c),
(319,328,l),
(280,310,o),
(254,304,o),
(232,304,cs),
(190,304,o),
(162,326,o),
(146,359,c),
(159,355,o),
(172,353,o),
(188,353,cs),
(265,353,o),
(323,398,o),
(323,479,cs),
(323,507,o),
(314,531,o),
(300,551,c),
(477,551,l),
(503,490,o),
(533,392,o),
(533,311,cs)
);
},
{
closed = 1;
nodes = (
(128,450,ls),
(128,483,o),
(140,535,o),
(190,535,cs),
(229,535,o),
(245,506,o),
(245,479,cs),
(245,443,o),
(219,421,o),
(187,421,cs),
(164,421,o),
(145,429,o),
(128,441,c)
);
}
);
};
layerId = "A38B966D-CDEB-4149-A2FB-BDE2BCA6D0C9";
shapes = (
{
closed = 1;
nodes = (
(683,622,l),
(0,622,l),
(0,551,l),
(82,551,l),
(60,520,o),
(50,480,o),
(50,444,cs),
(50,343,o),
(105,247,o),
(209,237,c),
(192,211,o),
(185,184,o),
(185,149,cs),
(185,69,o),
(254,-10,o),
(371,-10,cs),
(544,-10,o),
(613,132,o),
(613,310,cs),
(613,401,o),
(584,490,o),
(559,551,c),
(683,551,l)
);
},
{
closed = 1;
nodes = (
(533,196,o),
(512,62,o),
(374,62,cs),
(316,62,o),
(260,95,o),
(260,157,cs),
(260,206,o),
(305,255,o),
(349,270,c),
(319,328,l),
(280,310,o),
(254,304,o),
(232,304,cs),
(190,304,o),
(162,326,o),
(146,359,c),
(159,355,o),
(172,353,o),
(188,353,cs),
(265,353,o),
(323,398,o),
(323,479,cs),
(323,507,o),
(314,531,o),
(300,551,c),
(477,551,l),
(503,490,o),
(533,392,o),
(533,311,cs)
);
},
{
closed = 1;
nodes = (
(128,450,ls),
(128,483,o),
(140,535,o),
(190,535,cs),
(229,535,o),
(245,506,o),
(245,479,cs),
(245,443,o),
(219,421,o),
(187,421,cs),
(164,421,o),
(145,429,o),
(128,441,c)
);
}
);
width = 673;
}
);
unicode = 71200;
},
{
glyphname = Na;
layers = (
{
anchors = (
{
name = Anchor11;
position = "{585, 622}";
},
{
name = Anchor13;
position = "{512, 718}";
},
{
name = Anchor15;
position = "{375, 718}";
},
{
name = Anchor3;
position = "{363, -80}";
},
{
name = Anchor5;
position = "{363, -80}";
},
{
name = Anchor7;
position = "{393, 54}";
},
{
name = Anchor9;
position = "{363, -70}";
}
);
background = {
shapes = (
{
closed = 1;
nodes = (
(658,622,l),
(0,622,l),
(0,551,l),
(512,551,l),
(374,380,l),
(332,444,o),
(273,520,o),
(182,520,cs),
(110,520,o),
(75,488,o),
(75,457,cs),
(75,426,o),
(104,392,o),
(176,392,cs),
(201,392,o),
(235,397,o),
(255,407,c),
(273,398,o),
(299,368,o),
(328,322,c),
(265,240,o),
(227,176,o),
(227,113,cs),
(227,54,o),
(268,-10,o),
(363,-10,cs),
(470,-10,o),
(506,47,o),
(506,120,cs),
(506,148,o),
(480,212,o),
(437,282,cs),
(413,320,l),
(605,551,l),
(658,551,l)
);
},
{
closed = 1;
nodes = (
(380,235,l),
(407,188,o),
(428,150,o),
(428,123,cs),
(428,86,o),
(413,62,o),
(363,62,cs),
(331,62,o),
(305,87,o),
(305,123,cs),
(305,156,o),
(325,198,o),
(366,257,c)
);
}
);
};
layerId = "A38B966D-CDEB-4149-A2FB-BDE2BCA6D0C9";
shapes = (
{
closed = 1;
nodes = (
(658,622,l),
(0,622,l),
(0,551,l),
(512,551,l),
(374,380,l),
(332,444,o),
(273,520,o),
(182,520,cs),
(110,520,o),
(75,488,o),
(75,457,cs),
(75,426,o),
(104,392,o),
(176,392,cs),
(201,392,o),
(235,397,o),
(255,407,c),
(273,398,o),
(299,368,o),
(328,322,c),
(265,240,o),
(227,176,o),
(227,113,cs),
(227,54,o),
(268,-10,o),
(363,-10,cs),
(470,-10,o),
(506,47,o),
(506,120,cs),
(506,148,o),
(480,212,o),
(437,282,cs),
(413,320,l),
(605,551,l),
(658,551,l)
);
},
{
closed = 1;
nodes = (
(380,235,l),
(407,188,o),
(428,150,o),
(428,123,cs),
(428,86,o),
(413,62,o),
(363,62,cs),
(331,62,o),
(305,87,o),
(305,123,cs),
(305,156,o),
(325,198,o),
(366,257,c)
);
}
);
width = 658;
}
);
unicode = 71201;
},
{
glyphname = Pa;
layers = (
{
anchors = (
{
name = Anchor11;
position = "{575, 622}";
},
{
name = Anchor13;
position = "{513, 718}";
},
{
name = Anchor15;
position = "{357, 718}";
},
{
name = Anchor3;
position = "{455, -80}";
},
{
name = Anchor5;
position = "{357, -80}";
},
{
name = Anchor9;
position = "{356, -79}";
}
);
background = {
shapes = (
{
closed = 1;
nodes = (
(724,622,l),
(0,622,l),
(0,551,l),
(124,551,l),
(96,486,o),
(60,377,o),
(60,270,cs),
(60,71,o),
(131,-10,o),
(239,-10,cs),
(293,-10,o),
(332,16,o),
(357,58,c),
(382,16,o),
(421,-10,o),
(475,-10,cs),
(583,-10,o),
(654,71,o),
(654,270,cs),
(654,377,o),
(617,486,o),
(590,551,c),
(724,551,l)
);
},
{
closed = 1;
nodes = (
(319,213,l),
(316,105,o),
(282,64,o),
(237,64,cs),
(190,64,o),
(140,114,o),
(140,271,cs),
(140,375,o),
(177,488,o),
(205,551,c),
(508,551,l),
(537,488,o),
(574,375,o),
(574,271,cs),
(574,114,o),
(524,64,o),
(477,64,cs),
(432,64,o),
(398,105,o),
(395,213,c)
);
}
);
};
layerId = "A38B966D-CDEB-4149-A2FB-BDE2BCA6D0C9";
shapes = (
{
closed = 1;
nodes = (
(724,622,l),
(0,622,l),
(0,551,l),
(124,551,l),
(96,486,o),
(60,377,o),
(60,270,cs),
(60,71,o),
(131,-10,o),
(239,-10,cs),
(293,-10,o),
(332,16,o),
(357,58,c),
(382,16,o),
(421,-10,o),
(475,-10,cs),
(583,-10,o),
(654,71,o),
(654,270,cs),
(654,377,o),
(617,486,o),
(590,551,c),
(724,551,l)
);
},
{
closed = 1;
nodes = (
(319,213,l),
(316,105,o),
(282,64,o),
(237,64,cs),
(190,64,o),
(140,114,o),
(140,271,cs),
(140,375,o),
(177,488,o),
(205,551,c),
(508,551,l),
(537,488,o),
(574,375,o),
(574,271,cs),
(574,114,o),
(524,64,o),
(477,64,cs),
(432,64,o),
(398,105,o),
(395,213,c)
);
}
);
width = 714;
}
);
unicode = 71202;
},
{
glyphname = Pha;
layers = (
{
anchors = (
{
name = Anchor11;
position = "{676, 622}";
},
{
name = Anchor13;
position = "{644, 718}";
},
{
name = Anchor3;
position = "{610, -80}";
},
{
name = Anchor5;
position = "{471, -80}";
},
{
name = Anchor7;
position = "{573, 90}";
},
{
name = Anchor9;
position = "{653, -50}";
}
);
background = {
shapes = (
{
closed = 1;
nodes = (
(0,551,l),
(784,551,l),
(784,622,l),
(0,622,l)
);
},
{
closed = 1;
nodes = (
(604,580,l),
(559,459,o),
(530,285,o),
(530,193,cs),
(530,62,o),
(572,-10,o),
(652,-10,cs),
(737,-10,o),
(754,58,o),
(754,85,cs),
(754,156,o),
(691,248,o),
(535,248,cs),
(425,248,o),
(286,201,o),
(226,0,c),
(303,0,l),
(337,144,o),
(470,178,o),
(537,178,cs),
(656,178,o),
(679,121,o),
(679,89,cs),
(679,81,o),
(671,60,o),
(653,60,cs),
(631,60,o),
(610,84,o),
(610,183,cs),
(610,257,o),
(618,396,o),
(682,569,c)
);
},
{
closed = 1;
nodes = (
(274,284,ls),
(274,202,o),
(263,110,o),
(227,3,c),
(310,36,l),
(336,117,o),
(351,213,o),
(351,289,cs),
(351,532,l),
(274,510,l)
);
},
{
closed = 1;
nodes = (
(271,515,ls),
(271,421,o),
(256,389,o),
(200,389,cs),
(159,389,o),
(130,408,o),
(130,515,cs),
(130,600,l),
(50,600,l),
(50,514,ls),
(50,366,o),
(106,318,o),
(196,318,cs),
(291,318,o),
(351,380,o),
(351,500,cs),
(351,595,l),
(271,595,l)
);
}
);
};
layerId = "A38B966D-CDEB-4149-A2FB-BDE2BCA6D0C9";
shapes = (
{
closed = 1;
nodes = (
(0,551,l),
(784,551,l),
(784,622,l),
(0,622,l)
);
},
{
closed = 1;
nodes = (
(604,580,l),
(559,459,o),
(530,285,o),
(530,193,cs),
(530,62,o),
(572,-10,o),
(652,-10,cs),
(737,-10,o),
(754,58,o),
(754,85,cs),
(754,156,o),
(691,248,o),
(535,248,cs),
(425,248,o),
(286,201,o),
(226,0,c),
(303,0,l),
(337,144,o),
(470,178,o),
(537,178,cs),
(656,178,o),
(679,121,o),
(679,89,cs),
(679,81,o),
(671,60,o),
(653,60,cs),
(631,60,o),
(610,84,o),
(610,183,cs),
(610,257,o),
(618,396,o),
(682,569,c)
);
},
{
closed = 1;
nodes = (
(274,284,ls),
(274,202,o),
(263,110,o),
(227,3,c),
(310,36,l),
(336,117,o),
(351,213,o),
(351,289,cs),
(351,532,l),
(274,510,l)
);
},
{
closed = 1;
nodes = (
(271,515,ls),
(271,421,o),
(256,389,o),
(200,389,cs),
(159,389,o),
(130,408,o),
(130,515,cs),
(130,600,l),
(50,600,l),
(50,514,ls),
(50,366,o),
(106,318,o),
(196,318,cs),
(291,318,o),
(351,380,o),
(351,500,cs),
(351,595,l),
(271,595,l)
);
}
);
width = 774;
}
);
unicode = 71203;
},
{
glyphname = Ba;
layers = (
{
anchors = (
{
name = Anchor11;
position = "{561, 622}";
},
{
name = Anchor13;
position = "{516, 718}";
},
{
name = Anchor3;
position = "{481, 0}";
},
{
name = Anchor5;
position = "{320, -80}";
},
{
name = Anchor7;
position = "{356, 54}";
}
);
background = {
shapes = (
{
closed = 1;
nodes = (
(561,551,l),
(651,551,l),
(651,622,l),
(0,622,l),
(0,551,l),
(67,551,l),
(50,519,o),
(40,482,o),
(40,446,cs),
(40,380,o),
(77,318,o),
(153,304,c),
(118,264,o),
(105,221,o),
(105,171,cs),
(105,67,o),
(186,-10,o),
(315,-10,cs),
(388,-10,o),
(442,9,o),
(481,43,c),
(481,0,l),
(561,0,l)
);
},
{
closed = 1;
nodes = (
(481,236,ls),
(481,139,o),
(433,64,o),
(316,64,cs),
(223,64,o),
(185,119,o),
(185,175,cs),
(185,245,o),
(223,288,o),
(302,331,c),
(272,390,l),
(238,376,o),
(216,372,o),
(197,372,cs),
(147,372,o),
(120,402,o),
(120,448,cs),
(120,477,o),
(126,513,o),
(153,551,c),
(481,551,l)
);
}
);
};
layerId = "A38B966D-CDEB-4149-A2FB-BDE2BCA6D0C9";
shapes = (
{
closed = 1;
nodes = (
(561,551,l),
(651,551,l),
(651,622,l),
(0,622,l),
(0,551,l),
(67,551,l),
(50,519,o),
(40,482,o),
(40,446,cs),
(40,380,o),
(77,318,o),
(153,304,c),
(118,264,o),
(105,221,o),
(105,171,cs),
(105,67,o),
(186,-10,o),
(315,-10,cs),
(388,-10,o),
(442,9,o),
(481,43,c),
(481,0,l),
(561,0,l)
);
},
{
closed = 1;
nodes = (
(481,236,ls),
(481,139,o),
(433,64,o),
(316,64,cs),
(223,64,o),
(185,119,o),
(185,175,cs),
(185,245,o),
(223,288,o),
(302,331,c),
(272,390,l),
(238,376,o),
(216,372,o),
(197,372,cs),
(147,372,o),
(120,402,o),
(120,448,cs),
(120,477,o),
(126,513,o),
(153,551,c),
(481,551,l)
);
}
);
width = 641;
}
);
unicode = 71204;
},
{
glyphname = Bha;
layers = (
{
anchors = (
{
name = Anchor11;
position = "{648, 622}";
},
{
name = Anchor13;
position = "{603, 718}";
},
{
name = Anchor3;
position = "{568, 0}";
},
{
name = Anchor5;
position = "{449, -80}";
},
{
name = Anchor7;
position = "{568, 120}";
}
);
background = {
shapes = (
{
closed = 1;
nodes = (
(350,271,l),
(568,271,l),
(568,0,l),
(648,0,l),
(648,551,l),
(738,551,l),
(738,622,l),
(0,622,l),
(0,551,l),
(93,551,l),
(73,524,o),
(60,485,o),
(60,432,cs),
(60,315,o),
(141,271,o),
(244,271,cs),
(270,271,l),
(270,0,l),
(350,0,l)
);
},
{
closed = 1;
nodes = (
(350,388,ls),
(350,458,o),
(337,514,o),
(311,551,c),
(568,551,l),
(568,342,l),
(350,342,l)
);
},
{
closed = 1;
nodes = (
(140,512,o),
(170,533,o),
(202,533,cs),
(252,533,o),
(270,483,o),
(270,387,cs),
(270,342,l),
(246,342,ls),
(219,342,o),
(140,342,o),
(140,431,cs)
);
}
);
};
layerId = "A38B966D-CDEB-4149-A2FB-BDE2BCA6D0C9";
shapes = (
{
closed = 1;
nodes = (
(350,271,l),
(568,271,l),
(568,0,l),
(648,0,l),
(648,551,l),
(738,551,l),
(738,622,l),
(0,622,l),
(0,551,l),
(93,551,l),
(73,524,o),
(60,485,o),
(60,432,cs),
(60,315,o),
(141,271,o),
(244,271,cs),
(270,271,l),
(270,0,l),
(350,0,l)
);
},
{
closed = 1;
nodes = (
(350,388,ls),
(350,458,o),
(337,514,o),
(311,551,c),
(568,551,l),
(568,342,l),
(350,342,l)
);
},
{
closed = 1;
nodes = (
(140,512,o),
(170,533,o),
(202,533,cs),
(252,533,o),
(270,483,o),
(270,387,cs),
(270,342,l),
(246,342,ls),
(219,342,o),
(140,342,o),
(140,431,cs)
);
}
);
width = 728;
}
);
unicode = 71205;
},
{
glyphname = Ma;
layers = (
{
anchors = (
{
name = Anchor11;
position = "{547, 622}";
},
{
name = Anchor13;
position = "{500, 718}";
},
{
name = Anchor3;
position = "{482, -80}";
},
{
name = Anchor5;
position = "{328, -80}";
},
{
name = Anchor7;
position = "{438, 90}";
},
{
name = Anchor9;
position = "{525, -47}";
}
);
background = {
shapes = (
{
closed = 1;
nodes = (
(0,551,l),
(79,551,l),
(101,464,o),
(111,362,o),
(111,284,cs),
(111,191,o),
(101,110,o),
(85,49,c),
(79,34,o),
(74,17,o),
(69,0,c),
(146,0,l),
(179,141,o),
(282,176,o),
(402,178,c),
(405,56,o),
(447,-10,o),
(524,-10,cs),
(609,-10,o),
(626,58,o),
(626,85,cs),
(626,143,o),
(578,214,o),
(483,239,c),
(487,314,o),
(502,422,o),
(547,551,c),
(656,551,l),
(656,622,l),
(0,622,l)
);
},
{
closed = 1;
nodes = (
(315,247,o),
(240,228,o),
(182,184,c),
(187,216,o),
(191,249,o),
(191,275,cs),
(191,358,o),
(181,451,o),
(162,551,c),
(465,551,l),
(434,455,o),
(412,335,o),
(404,248,c)
);
},
{
closed = 1;
nodes = (
(551,81,o),
(543,60,o),
(525,60,cs),
(504,60,o),
(484,81,o),
(482,167,c),
(533,149,o),
(551,112,o),
(551,89,cs)
);
}
);
};
layerId = "A38B966D-CDEB-4149-A2FB-BDE2BCA6D0C9";
shapes = (
{
closed = 1;
nodes = (
(0,551,l),
(79,551,l),
(101,464,o),
(111,362,o),
(111,284,cs),
(111,191,o),
(101,110,o),
(85,49,c),
(79,34,o),
(74,17,o),
(69,0,c),
(146,0,l),
(179,141,o),
(282,176,o),
(402,178,c),
(405,56,o),
(447,-10,o),
(524,-10,cs),
(609,-10,o),
(626,58,o),
(626,85,cs),
(626,143,o),
(578,214,o),
(483,239,c),
(487,314,o),
(502,422,o),
(547,551,c),
(656,551,l),
(656,622,l),
(0,622,l)
);
},
{
closed = 1;
nodes = (
(315,247,o),
(240,228,o),
(182,184,c),
(187,216,o),
(191,249,o),
(191,275,cs),
(191,358,o),
(181,451,o),
(162,551,c),
(465,551,l),
(434,455,o),
(412,335,o),
(404,248,c)
);
},
{
closed = 1;
nodes = (
(551,81,o),
(543,60,o),
(525,60,cs),
(504,60,o),
(484,81,o),
(482,167,c),
(533,149,o),
(551,112,o),
(551,89,cs)
);
}
);
width = 646;
}
);
unicode = 71206;
},
{
glyphname = Ya;
layers = (
{
anchors = (
{
name = Anchor11;
position = "{568, 622}";
},
{
name = Anchor13;
position = "{523, 718}";
},
{
name = Anchor15;
position = "{324, 718}";
},
{
name = Anchor3;
position = "{323, -80}";
},
{
name = Anchor5;
position = "{324, -80}";
},
{
name = Anchor9;
position = "{323, -70}";
}
);
background = {
shapes = (
{
closed = 1;
nodes = (
(0,551,l),
(103,551,l),
(75,514,o),
(60,458,o),
(60,388,cs),
(60,171,o),
(128,-10,o),
(323,-10,cs),
(503,-10,o),
(568,144,o),
(568,301,cs),
(568,551,l),
(658,551,l),
(658,622,l),
(0,622,l)
);
},
{
closed = 1;
nodes = (
(183,64,o),
(147,219,o),
(140,337,c),
(158,328,o),
(179,322,o),
(203,322,cs),
(280,322,o),
(340,385,o),
(340,462,cs),
(340,497,o),
(329,527,o),
(312,551,c),
(488,551,l),
(488,302,ls),
(488,186,o),
(448,64,o),
(324,64,cs)
);
},
{
closed = 1;
nodes = (
(249,533,o),
(270,502,o),
(270,461,cs),
(270,412,o),
(228,392,o),
(201,392,cs),
(176,392,o),
(156,401,o),
(139,414,c),
(143,492,o),
(165,533,o),
(210,533,cs)
);
}
);
};
layerId = "A38B966D-CDEB-4149-A2FB-BDE2BCA6D0C9";
shapes = (
{
closed = 1;
nodes = (
(0,551,l),
(103,551,l),
(75,514,o),
(60,458,o),
(60,388,cs),
(60,171,o),
(128,-10,o),
(323,-10,cs),
(503,-10,o),
(568,144,o),
(568,301,cs),
(568,551,l),
(658,551,l),
(658,622,l),
(0,622,l)
);
},
{
closed = 1;
nodes = (
(183,64,o),
(147,219,o),
(140,337,c),
(158,328,o),
(179,322,o),
(203,322,cs),
(280,322,o),
(340,385,o),
(340,462,cs),
(340,497,o),
(329,527,o),
(312,551,c),
(488,551,l),
(488,302,ls),
(488,186,o),
(448,64,o),
(324,64,cs)
);
},
{
closed = 1;
nodes = (
(249,533,o),
(270,502,o),
(270,461,cs),
(270,412,o),
(228,392,o),
(201,392,cs),
(176,392,o),
(156,401,o),
(139,414,c),
(143,492,o),
(165,533,o),
(210,533,cs)
);
}
);
width = 648;
}
);
unicode = 71207;
},
{
glyphname = Ra;
layers = (
{
anchors = (
{
name = Anchor11;
position = "{478, 622}";
},
{
name = Anchor13;
position = "{415, 718}";
},
{
name = Anchor15;
position = "{285, 718}";
},
{
name = Anchor3;
position = "{284, -80}";
},
{
name = Anchor5;
position = "{285, -80}";
},
{
name = Anchor9;
position = "{286, -70}";
}
);
background = {
shapes = (
{
closed = 1;
nodes = (
(580,622,l),
(0,622,l),
(0,551,l),
(393,551,l),
(382,523,o),
(378,498,o),
(378,474,cs),
(378,393,o),
(430,326,o),
(430,236,cs),
(430,139,o),
(373,64,o),
(284,64,cs),
(208,64,o),
(141,131,o),
(83,234,c),
(19,194,l),
(83,74,o),
(165,-10,o),
(284,-10,cs),
(423,-10,o),
(510,93,o),
(510,227,cs),
(510,325,o),
(458,416,o),
(458,473,cs),
(458,501,o),
(462,523,o),
(478,551,c),
(580,551,l)
);
}
);
};
layerId = "A38B966D-CDEB-4149-A2FB-BDE2BCA6D0C9";
shapes = (
{
closed = 1;
nodes = (
(580,622,l),
(0,622,l),
(0,551,l),
(393,551,l),
(382,523,o),
(378,498,o),
(378,474,cs),
(378,393,o),
(430,326,o),
(430,236,cs),
(430,139,o),
(373,64,o),
(284,64,cs),
(208,64,o),
(141,131,o),
(83,234,c),
(19,194,l),
(83,74,o),
(165,-10,o),
(284,-10,cs),
(423,-10,o),
(510,93,o),
(510,227,cs),
(510,325,o),
(458,416,o),
(458,473,cs),
(458,501,o),
(462,523,o),
(478,551,c),
(580,551,l)
);
}
);
width = 570;
}
);
unicode = 71208;
},
{
glyphname = La;
layers = (
{
anchors = (
{
name = Anchor11;
position = "{528, 622}";
},
{
name = Anchor13;
position = "{472, 718}";
},
{
name = Anchor15;
position = "{311, 718}";
},
{
name = Anchor3;
position = "{325, -80}";
},
{
name = Anchor5;
position = "{301, -80}";
},
{
name = Anchor7;
position = "{359, 54}";
},
{
name = Anchor9;
position = "{311, -70}";
}
);
background = {
shapes = (
{
closed = 1;
nodes = (
(632,622,l),
(0,622,l),
(0,551,l),
(79,551,l),
(64,523,o),
(60,489,o),
(60,457,cs),
(60,365,o),
(146,315,o),
(233,272,c),
(175,236,o),
(130,192,o),
(130,126,cs),
(130,52,o),
(187,-10,o),
(300,-10,cs),
(323,-10,l),
(435,-9,o),
(492,52,o),
(492,126,cs),
(492,192,o),
(446,236,o),
(388,272,c),
(475,315,o),
(562,365,o),
(562,457,cs),
(562,489,o),
(557,523,o),
(543,551,c),
(632,551,l)
);
},
{
closed = 1;
nodes = (
(140,498,o),
(150,533,o),
(162,551,c),
(460,551,l),
(471,533,o),
(482,498,o),
(482,464,cs),
(482,395,o),
(397,355,o),
(311,314,c),
(224,355,o),
(140,395,o),
(140,464,cs)
);
},
{
closed = 1;
nodes = (
(412,83,o),
(371,62,o),
(321,62,cs),
(301,62,ls),
(251,62,o),
(210,83,o),
(210,129,cs),
(210,174,o),
(254,205,o),
(311,235,c),
(368,205,o),
(412,174,o),
(412,129,cs)
);
}
);
};
layerId = "A38B966D-CDEB-4149-A2FB-BDE2BCA6D0C9";
shapes = (
{
closed = 1;
nodes = (
(632,622,l),
(0,622,l),
(0,551,l),
(79,551,l),
(64,523,o),
(60,489,o),
(60,457,cs),
(60,365,o),
(146,315,o),
(233,272,c),
(175,236,o),
(130,192,o),
(130,126,cs),
(130,52,o),
(187,-10,o),
(300,-10,cs),
(323,-10,l),
(435,-9,o),
(492,52,o),
(492,126,cs),
(492,192,o),
(446,236,o),
(388,272,c),
(475,315,o),
(562,365,o),
(562,457,cs),
(562,489,o),
(557,523,o),
(543,551,c),
(632,551,l)
);
},
{
closed = 1;
nodes = (
(140,498,o),
(150,533,o),
(162,551,c),
(460,551,l),
(471,533,o),
(482,498,o),
(482,464,cs),
(482,395,o),
(397,355,o),
(311,314,c),
(224,355,o),
(140,395,o),
(140,464,cs)
);
},
{
closed = 1;
nodes = (
(412,83,o),
(371,62,o),
(321,62,cs),
(301,62,ls),
(251,62,o),
(210,83,o),
(210,129,cs),
(210,174,o),
(254,205,o),
(311,235,c),
(368,205,o),
(412,174,o),
(412,129,cs)
);
}
);
width = 622;
}
);
unicode = 71209;
},
{
glyphname = Va;
layers = (
{
anchors = (
{
name = Anchor11;
position = "{546, 622}";
},
{
name = Anchor13;
position = "{494, 718}";
},
{
name = Anchor15;
position = "{315, 718}";
},
{
name = Anchor3;
position = "{473, -80}";
},
{
name = Anchor5;
position = "{351, -80}";
},
{
name = Anchor7;
position = "{356, 56}";
},
{
name = Anchor9;
position = "{333, -70}";
}
);
background = {
shapes = (
{
closed = 1;
nodes = (
(0,551,l),
(83,551,l),
(69,487,o),
(60,383,o),
(60,303,cs),
(60,141,o),
(107,-10,o),
(284,-10,cs),
(380,-10,o),
(429,20,o),
(490,20,cs),
(517,20,o),
(522,10,o),
(553,-21,c),
(627,9,l),
(608,35,o),
(593,54,o),
(578,66,c),
(541,123,o),
(519,196,o),
(519,355,cs),
(519,420,o),
(529,485,o),
(546,551,c),
(641,551,l),
(641,622,l),
(0,622,l)
);
},
{
closed = 1;
nodes = (
(159,61,o),
(140,189,o),
(140,296,cs),
(140,356,o),
(146,475,o),
(165,551,c),
(464,551,l),
(448,484,o),
(438,417,o),
(438,352,cs),
(438,239,o),
(451,150,o),
(479,89,c),
(410,85,o),
(356,61,o),
(283,61,cs)
);
}
);
};
layerId = "A38B966D-CDEB-4149-A2FB-BDE2BCA6D0C9";
shapes = (
{
closed = 1;
nodes = (
(0,551,l),
(83,551,l),
(69,487,o),
(60,383,o),
(60,303,cs),
(60,141,o),
(107,-10,o),
(284,-10,cs),
(380,-10,o),
(429,20,o),
(490,20,cs),
(517,20,o),
(522,10,o),
(553,-21,c),
(627,9,l),
(608,35,o),
(593,54,o),
(578,66,c),
(541,123,o),
(519,196,o),
(519,355,cs),
(519,420,o),
(529,485,o),
(546,551,c),
(641,551,l),
(641,622,l),
(0,622,l)
);
},
{
closed = 1;
nodes = (
(159,61,o),
(140,189,o),
(140,296,cs),
(140,356,o),
(146,475,o),
(165,551,c),
(464,551,l),
(448,484,o),
(438,417,o),
(438,352,cs),
(438,239,o),
(451,150,o),
(479,89,c),
(410,85,o),
(356,61,o),
(283,61,cs)
);
}
);
width = 631;
}
);
unicode = 71210;
},
{
glyphname = Sha;
layers = (
{
anchors = (
{
name = Anchor11;
position = "{526, 622}";
},
{
name = Anchor13;
position = "{481, 718}";
},
{
name = Anchor3;
position = "{446, 0}";
},
{
name = Anchor5;
position = "{303, -80}";
},
{
name = Anchor7;
position = "{446, 55}";
}
);
background = {
shapes = (
{
closed = 1;
nodes = (
(526,551,l),
(616,551,l),
(616,622,l),
(0,622,l),
(0,551,l),
(124,551,l),
(124,482,l),
(97,477,o),
(69,466,o),
(38,448,c),
(66,382,l),
(100,402,o),
(130,411,o),
(153,411,cs),
(189,411,o),
(210,390,o),
(210,369,cs),
(210,285,o),
(50,244,o),
(50,119,cs),
(50,22,o),
(128,-10,o),
(210,-10,cs),
(260,-10,o),
(311,2,o),
(347,19,c),
(328,88,l),
(305,76,o),
(255,62,o),
(212,62,cs),
(168,62,o),
(130,76,o),
(130,121,cs),
(130,211,o),
(290,243,o),
(290,369,cs),
(290,420,o),
(259,463,o),
(204,478,c),
(204,551,l),
(446,551,l),
(446,0,l),
(526,0,l)
);
}
);
};
layerId = "A38B966D-CDEB-4149-A2FB-BDE2BCA6D0C9";
shapes = (
{
closed = 1;
nodes = (
(526,551,l),
(616,551,l),
(616,622,l),
(0,622,l),
(0,551,l),
(124,551,l),
(124,482,l),
(97,477,o),
(69,466,o),
(38,448,c),
(66,382,l),
(100,402,o),
(130,411,o),
(153,411,cs),
(189,411,o),
(210,390,o),
(210,369,cs),
(210,285,o),
(50,244,o),
(50,119,cs),
(50,22,o),
(128,-10,o),
(210,-10,cs),
(260,-10,o),
(311,2,o),
(347,19,c),
(328,88,l),
(305,76,o),
(255,62,o),
(212,62,cs),
(168,62,o),
(130,76,o),
(130,121,cs),
(130,211,o),
(290,243,o),
(290,369,cs),
(290,420,o),
(259,463,o),
(204,478,c),
(204,551,l),
(446,551,l),
(446,0,l),
(526,0,l)
);
}
);
width = 606;
}
);
unicode = 71211;
},
{
glyphname = Ssa;
layers = (
{
anchors = (
{
name = Anchor11;
position = "{507, 622}";
},
{
name = Anchor13;
position = "{462, 718}";
},
{
name = Anchor3;
position = "{427, 0}";
},
{
name = Anchor7;
position = "{427, 140}";
}
);
background = {
shapes = (
{
closed = 1;
nodes = (
(507,551,l),
(597,551,l),
(597,622,l),
(0,622,l),
(0,551,l),
(80,551,l),
(80,358,ls),
(80,236,o),
(126,146,o),
(255,146,cs),
(294,146,o),
(361,154,o),
(427,196,c),
(427,0,l),
(507,0,l)
);
},
{
closed = 1;
nodes = (
(163,217,o),
(160,292,o),
(160,355,cs),
(160,507,l),
(388,255,l),
(340,224,o),
(286,217,o),
(263,217,cs)
);
},
{
closed = 1;
nodes = (
(427,551,l),
(427,308,l),
(205,551,l)
);
}
);
};
layerId = "A38B966D-CDEB-4149-A2FB-BDE2BCA6D0C9";
shapes = (
{
closed = 1;
nodes = (
(507,551,l),
(597,551,l),
(597,622,l),
(0,622,l),
(0,551,l),
(80,551,l),
(80,358,ls),
(80,236,o),
(126,146,o),
(255,146,cs),
(294,146,o),
(361,154,o),
(427,196,c),
(427,0,l),
(507,0,l)
);
},
{
closed = 1;
nodes = (
(163,217,o),
(160,292,o),
(160,355,cs),
(160,507,l),
(388,255,l),
(340,224,o),
(286,217,o),
(263,217,cs)
);
},
{
closed = 1;
nodes = (
(427,551,l),
(427,308,l),
(205,551,l)
);
}
);
width = 587;
}
);
unicode = 71212;
},
{
glyphname = Sa;
layers = (
{
anchors = (
{
name = Anchor11;
position = "{524, 622}";
},
{
name = Anchor13;
position = "{492, 718}";
},
{
name = Anchor15;
position = "{324, 718}";
},
{
name = Anchor3;
position = "{325, -80}";
},
{
name = Anchor5;
position = "{325, -80}";
},
{
name = Anchor7;
position = "{359, 54}";
},
{
name = Anchor9;
position = "{323, -70}";
}
);
background = {
shapes = (
{
closed = 1;
nodes = (
(0,551,l),
(107,551,l),
(88,488,o),
(80,416,o),
(80,339,cs),
(80,301,ls),
(80,144,o),
(145,-10,o),
(325,-10,cs),
(520,-10,o),
(588,171,o),
(588,388,cs),
(588,458,o),
(573,514,o),
(544,551,c),
(658,551,l),
(658,622,l),
(0,622,l)
);
},
{
closed = 1;
nodes = (
(308,385,o),
(368,322,o),
(445,322,cs),
(468,322,o),
(490,328,o),
(507,337,c),
(500,219,o),
(464,64,o),
(324,64,cs),
(200,64,o),
(160,186,o),
(160,302,cs),
(160,352,ls),
(160,419,o),
(170,490,o),
(190,551,c),
(335,551,l),
(318,527,o),
(308,497,o),
(308,462,cs)
);
},
{
closed = 1;
nodes = (
(420,392,o),
(378,412,o),
(378,461,cs),
(378,502,o),
(399,533,o),
(438,533,cs),
(483,533,o),
(504,492,o),
(508,414,c),
(491,401,o),
(471,392,o),
(447,392,cs)
);
}
);
};
layerId = "A38B966D-CDEB-4149-A2FB-BDE2BCA6D0C9";
shapes = (
{
closed = 1;
nodes = (
(0,551,l),
(107,551,l),
(88,488,o),
(80,416,o),
(80,339,cs),
(80,301,ls),
(80,144,o),
(145,-10,o),
(325,-10,cs),
(520,-10,o),
(588,171,o),
(588,388,cs),
(588,458,o),
(573,514,o),
(544,551,c),
(658,551,l),
(658,622,l),
(0,622,l)
);
},
{
closed = 1;
nodes = (
(308,385,o),
(368,322,o),
(445,322,cs),
(468,322,o),
(490,328,o),
(507,337,c),
(500,219,o),
(464,64,o),
(324,64,cs),
(200,64,o),
(160,186,o),
(160,302,cs),
(160,352,ls),
(160,419,o),
(170,490,o),
(190,551,c),
(335,551,l),
(318,527,o),
(308,497,o),
(308,462,cs)
);
},
{
closed = 1;
nodes = (
(420,392,o),
(378,412,o),
(378,461,cs),
(378,502,o),
(399,533,o),
(438,533,cs),
(483,533,o),
(504,492,o),
(508,414,c),
(491,401,o),
(471,392,o),
(447,392,cs)
);
}
);
width = 648;
}
);
unicode = 71213;
},
{
glyphname = Ha;
layers = (
{
anchors = (
{
name = Anchor11;
position = "{553, 622}";
},
{
name = Anchor13;
position = "{508, 718}";
},
{
name = Anchor15;
position = "{316, 718}";
},
{
name = Anchor3;
position = "{295, -80}";
},
{
name = Anchor5;
position = "{315, -80}";
},
{
name = Anchor7;
position = "{335, 54}";
},
{
name = Anchor9;
position = "{312, -70}";
}
);
background = {
shapes = (
{
closed = 1;
nodes = (
(643,622,l),
(0,622,l),
(0,551,l),
(28,551,l),
(47,503,o),
(82,429,o),
(129,373,c),
(82,325,o),
(60,266,o),
(60,209,cs),
(60,95,o),
(150,-10,o),
(295,-10,cs),
(492,-10,o),
(553,147,o),
(553,301,cs),
(553,551,l),
(643,551,l)
);
},
{
closed = 1;
nodes = (
(473,302,ls),
(473,169,o),
(427,64,o),
(295,64,cs),
(198,64,o),
(140,132,o),
(140,210,cs),
(140,263,o),
(169,320,o),
(229,363,c),
(196,395,o),
(132,494,o),
(114,551,c),
(473,551,l)
);
}
);
};
layerId = "A38B966D-CDEB-4149-A2FB-BDE2BCA6D0C9";
shapes = (
{
closed = 1;
nodes = (
(643,622,l),
(0,622,l),
(0,551,l),
(28,551,l),
(47,503,o),
(82,429,o),
(129,373,c),
(82,325,o),
(60,266,o),
(60,209,cs),
(60,95,o),
(150,-10,o),
(295,-10,cs),
(492,-10,o),
(553,147,o),
(553,301,cs),
(553,551,l),
(643,551,l)
);
},
{
closed = 1;
nodes = (
(473,302,ls),
(473,169,o),
(427,64,o),
(295,64,cs),
(198,64,o),
(140,132,o),
(140,210,cs),
(140,263,o),
(169,320,o),
(229,363,c),
(196,395,o),
(132,494,o),
(114,551,c),
(473,551,l)
);
}
);
width = 633;
}
);
unicode = 71214;
},
{
glyphname = Lla;
layers = (
{
anchors = (
{
name = Anchor11;
position = "{432, 622}";
},
{
name = Anchor13;
position = "{634, 718}";
},
{
name = Anchor15;
position = "{391, 718}";
},
{
name = Anchor3;
position = "{555, -80}";
},
{
name = Anchor5;
position = "{391, -80}";
},
{
name = Anchor7;
position = "{575, 50}";
},
{
name = Anchor9;
position = "{391, -80}";
}
);
background = {
shapes = (
{
closed = 1;
nodes = (
(792,622,l),
(0,622,l),
(0,551,l),
(350,551,l),
(350,341,l),
(314,381,o),
(270,398,o),
(214,398,cs),
(108,398,o),
(40,318,o),
(40,195,cs),
(40,63,o),
(126,-10,o),
(222,-10,cs),
(289,-10,o),
(344,18,o),
(391,105,c),
(448,1,o),
(509,-10,o),
(556,-10,cs),
(668,-10,o),
(742,78,o),
(742,193,cs),
(742,295,o),
(691,398,o),
(564,398,cs),
(514,398,o),
(472,386,o),
(432,337,c),
(432,551,l),
(792,551,l)
);
},
{
closed = 1;
nodes = (
(173,61,o),
(120,99,o),
(120,191,cs),
(120,285,o),
(165,327,o),
(225,327,cs),
(257,327,o),
(314,303,o),
(353,192,c),
(348,181,ls),
(310,98,o),
(274,61,o),
(224,61,cs)
);
},
{
closed = 1;
nodes = (
(438,206,ls),
(477,290,o),
(507,327,o),
(557,327,cs),
(617,327,o),
(662,290,o),
(662,196,cs),
(662,107,o),
(620,61,o),
(555,61,cs),
(528,61,o),
(481,73,o),
(430,189,c)
);
}
);
};
layerId = "A38B966D-CDEB-4149-A2FB-BDE2BCA6D0C9";
shapes = (
{
closed = 1;
nodes = (
(792,622,l),
(0,622,l),
(0,551,l),
(350,551,l),
(350,341,l),
(314,381,o),
(270,398,o),
(214,398,cs),
(108,398,o),
(40,318,o),
(40,195,cs),
(40,63,o),
(126,-10,o),
(222,-10,cs),
(289,-10,o),
(344,18,o),
(391,105,c),
(448,1,o),
(509,-10,o),
(556,-10,cs),
(668,-10,o),
(742,78,o),
(742,193,cs),
(742,295,o),
(691,398,o),
(564,398,cs),
(514,398,o),
(472,386,o),
(432,337,c),
(432,551,l),
(792,551,l)
);
},
{
closed = 1;
nodes = (
(173,61,o),
(120,99,o),
(120,191,cs),
(120,285,o),
(165,327,o),
(225,327,cs),
(257,327,o),
(314,303,o),
(353,192,c),
(348,181,ls),
(310,98,o),
(274,61,o),
(224,61,cs)
);
},
{
closed = 1;
nodes = (
(438,206,ls),
(477,290,o),
(507,327,o),
(557,327,cs),
(617,327,o),
(662,290,o),
(662,196,cs),
(662,107,o),
(620,61,o),
(555,61,cs),
(528,61,o),
(481,73,o),
(430,189,c)
);
}
);
width = 782;
}
);
unicode = 71215;
},
{
glyphname = AA_dv;
layers = (
{
anchors = (
{
name = Anchor13;
position = "{115, 718}";
},
{
name = Anchor15;
position = "{-74, 880}";
}
);
background = {
shapes = (
{
closed = 1;
nodes = (
(160,551,l),
(250,551,l),
(250,622,l),
(0,622,l),
(0,551,l),
(80,551,l),
(80,0,l),
(160,0,l)
);
}
);
};
layerId = "A38B966D-CDEB-4149-A2FB-BDE2BCA6D0C9";
shapes = (
{
closed = 1;
nodes = (
(160,551,l),
(250,551,l),
(250,622,l),
(0,622,l),
(0,551,l),
(80,551,l),
(80,0,l),
(160,0,l)
);
}
);
width = 240;
}
);
unicode = 71216;
},
{
glyphname = I_dv;
layers = (
{
anchors = (
{
name = Anchor13;
position = "{195, 758}";
},
{
name = Anchor15;
position = "{230, 806}";
}
);
background = {
shapes = (
{
closed = 1;
nodes = (
(-30,551,l),
(80,551,l),
(80,0,l),
(160,0,l),
(160,551,l),
(250,551,l),
(250,622,l),
(154,622,l),
(101,796,o),
(37,878,o),
(-68,878,cs),
(-148,878,o),
(-200,815,o),
(-200,724,cs),
(-200,685,o),
(-194,649,o),
(-180,612,c),
(-98,612,l),
(-110,642,o),
(-120,676,o),
(-120,719,cs),
(-120,769,o),
(-104,806,o),
(-62,806,cs),
(2,806,o),
(37,725,o),
(75,622,c),
(-30,622,l)
);
}
);
};
layerId = "A38B966D-CDEB-4149-A2FB-BDE2BCA6D0C9";
shapes = (
{
closed = 1;
nodes = (
(-30,551,l),
(80,551,l),
(80,0,l),
(160,0,l),
(160,551,l),
(250,551,l),
(250,622,l),
(154,622,l),
(101,796,o),
(37,878,o),
(-68,878,cs),
(-148,878,o),
(-200,815,o),
(-200,724,cs),
(-200,685,o),
(-194,649,o),
(-180,612,c),
(-98,612,l),
(-110,642,o),
(-120,676,o),
(-120,719,cs),
(-120,769,o),
(-104,806,o),
(-62,806,cs),
(2,806,o),
(37,725,o),
(75,622,c),
(-30,622,l)
);
}
);
width = 240;
}
);
unicode = 71217;
},
{
glyphname = II_dv;
layers = (
{
anchors = (
{
name = Anchor13;
position = "{242, 758}";
},
{
name = Anchor15;
position = "{264, 806}";
}
);
background = {
shapes = (
{
closed = 1;
nodes = (
(-30,551,l),
(153,551,l),
(162,520,o),
(169,487,o),
(175,455,c),
(100,377,o),
(46,274,o),
(46,161,cs),
(46,55,o),
(84,-10,o),
(158,-10,cs),
(257,-10,o),
(277,106,o),
(277,207,cs),
(277,302,o),
(264,433,o),
(234,551,c),
(336,551,l),
(336,622,l),
(213,622,l),
(165,764,o),
(77,878,o),
(-61,878,cs),
(-162,878,o),
(-199,801,o),
(-199,718,cs),
(-199,682,o),
(-192,645,o),
(-180,612,c),
(-98,612,l),
(-110,645,o),
(-121,686,o),
(-121,723,cs),
(-121,768,o),
(-104,805,o),
(-53,805,cs),
(30,805,o),
(91,727,o),
(130,622,c),
(-30,622,l)
);
},
{
closed = 1;
nodes = (
(197,119,o),
(187,61,o),
(160,61,cs),
(137,61,o),
(126,105,o),
(126,161,cs),
(126,235,o),
(147,304,o),
(188,361,c),
(194,303,o),
(197,247,o),
(197,198,cs)
);
}
);
};
layerId = "A38B966D-CDEB-4149-A2FB-BDE2BCA6D0C9";
shapes = (
{
closed = 1;
nodes = (
(-30,551,l),
(153,551,l),
(162,520,o),
(169,487,o),
(175,455,c),
(100,377,o),
(46,274,o),
(46,161,cs),
(46,55,o),
(84,-10,o),
(158,-10,cs),
(257,-10,o),
(277,106,o),
(277,207,cs),
(277,302,o),
(264,433,o),
(234,551,c),
(336,551,l),
(336,622,l),
(213,622,l),
(165,764,o),
(77,878,o),
(-61,878,cs),
(-162,878,o),
(-199,801,o),
(-199,718,cs),
(-199,682,o),
(-192,645,o),
(-180,612,c),
(-98,612,l),
(-110,645,o),
(-121,686,o),
(-121,723,cs),
(-121,768,o),
(-104,805,o),
(-53,805,cs),
(30,805,o),
(91,727,o),
(130,622,c),
(-30,622,l)
);
},
{
closed = 1;
nodes = (
(197,119,o),
(187,61,o),
(160,61,cs),
(137,61,o),
(126,105,o),
(126,161,cs),
(126,235,o),
(147,304,o),
(188,361,c),
(194,303,o),
(197,247,o),
(197,198,cs)
);
}
);
width = 326;
}
);
unicode = 71218;
},
{
glyphname = U_dv;
layers = (
{
anchors = (
{
name = _Anchor3;
position = "{-159, -50}";
}
);
background = {
shapes = (
{
closed = 1;
nodes = (
(-442,-144,l),
(-364,-225,o),
(-273,-270,o),
(-149,-270,cs),
(-37,-270,o),
(17,-216,o),
(17,-150,cs),
(17,-72,o),
(-47,-30,o),
(-131,-30,cs),
(-177,-30,o),
(-204,-37,o),
(-239,-51,c),
(-213,-117,l),
(-181,-102,o),
(-156,-98,o),
(-131,-98,cs),
(-108,-98,o),
(-61,-107,o),
(-61,-147,cs),
(-61,-177,o),
(-87,-202,o),
(-151,-202,cs),
(-237,-202,o),
(-314,-170,o),
(-387,-99,c)
);
}
);
};
layerId = "A38B966D-CDEB-4149-A2FB-BDE2BCA6D0C9";
shapes = (
{
closed = 1;
nodes = (
(-442,-144,l),
(-364,-225,o),
(-273,-270,o),
(-149,-270,cs),
(-37,-270,o),
(17,-216,o),
(17,-150,cs),
(17,-72,o),
(-47,-30,o),
(-131,-30,cs),
(-177,-30,o),
(-204,-37,o),
(-239,-51,c),
(-213,-117,l),
(-181,-102,o),
(-156,-98,o),
(-131,-98,cs),
(-108,-98,o),
(-61,-107,o),
(-61,-147,cs),
(-61,-177,o),
(-87,-202,o),
(-151,-202,cs),
(-237,-202,o),
(-314,-170,o),
(-387,-99,c)
);
}
);
width = 0;
}
);
unicode = 71219;
},
{
glyphname = UU_dv;
layers = (
{
anchors = (
{
name = _Anchor3;
position = "{-179, -50}";
}
);
background = {
shapes = (
{
closed = 1;
nodes = (
(159,-188,l),
(81,-107,o),
(-32,-30,o),
(-156,-30,cs),
(-268,-30,o),
(-322,-85,o),
(-322,-151,cs),
(-322,-229,o),
(-258,-270,o),
(-167,-270,cs),
(-128,-270,o),
(-101,-263,o),
(-66,-249,c),
(-92,-183,l),
(-124,-198,o),
(-149,-202,o),
(-174,-202,cs),
(-197,-202,o),
(-244,-194,o),
(-244,-154,cs),
(-244,-124,o),
(-218,-98,o),
(-154,-98,cs),
(-68,-98,o),
(29,-166,o),
(102,-237,c)
);
}
);
};
layerId = "A38B966D-CDEB-4149-A2FB-BDE2BCA6D0C9";
shapes = (
{
closed = 1;
nodes = (
(159,-188,l),
(81,-107,o),
(-32,-30,o),
(-156,-30,cs),
(-268,-30,o),
(-322,-85,o),
(-322,-151,cs),
(-322,-229,o),
(-258,-270,o),
(-167,-270,cs),
(-128,-270,o),
(-101,-263,o),
(-66,-249,c),
(-92,-183,l),
(-124,-198,o),
(-149,-202,o),
(-174,-202,cs),
(-197,-202,o),
(-244,-194,o),
(-244,-154,cs),
(-244,-124,o),
(-218,-98,o),
(-154,-98,cs),
(-68,-98,o),
(29,-166,o),
(102,-237,c)
);
}
);
width = 0;
}
);
unicode = 71220;
},
{
glyphname = VocR_dv;
layers = (
{
anchors = (
{
name = _Anchor3;
position = "{-143, -50}";
}
);
background = {
shapes = (
{
closed = 1;
nodes = (
(18,-185,l),
(-13,-195,o),
(-45,-202,o),
(-81,-202,cs),
(-128,-202,o),
(-154,-177,o),
(-154,-147,cs),
(-154,-107,o),
(-80,-85,o),
(-57,-85,c),
(-64,-20,l),
(-155,-20,o),
(-232,-79,o),
(-232,-150,cs),
(-232,-216,o),
(-178,-270,o),
(-82,-270,cs),
(-36,-270,o),
(12,-258,o),
(39,-247,c)
);
}
);
};
layerId = "A38B966D-CDEB-4149-A2FB-BDE2BCA6D0C9";
shapes = (
{
closed = 1;
nodes = (
(18,-185,l),
(-13,-195,o),
(-45,-202,o),
(-81,-202,cs),
(-128,-202,o),
(-154,-177,o),
(-154,-147,cs),
(-154,-107,o),
(-80,-85,o),
(-57,-85,c),
(-64,-20,l),
(-155,-20,o),
(-232,-79,o),
(-232,-150,cs),
(-232,-216,o),
(-178,-270,o),
(-82,-270,cs),
(-36,-270,o),
(12,-258,o),
(39,-247,c)
);
}
);
width = 0;
}
);
unicode = 71221;
},
{
glyphname = VocRR_dv;
layers = (
{
anchors = (
{
name = _Anchor3;
position = "{-163, -50}";
}
);
background = {
shapes = (
{
closed = 1;
nodes = (
(-23,-164,l),
(-47,-175,o),
(-73,-179,o),
(-101,-179,cs),
(-135,-179,o),
(-167,-170,o),
(-167,-136,cs),
(-167,-112,o),
(-143,-91,o),
(-79,-85,c),
(-84,-25,l),
(-192,-31,o),
(-239,-82,o),
(-239,-140,cs),
(-239,-176,o),
(-222,-206,o),
(-190,-225,c),
(-203,-242,o),
(-209,-263,o),
(-209,-285,cs),
(-209,-355,o),
(-156,-400,o),
(-74,-400,cs),
(-25,-400,o),
(11,-392,o),
(50,-372,c),
(25,-307,l),
(-2,-322,o),
(-31,-332,o),
(-67,-332,cs),
(-104,-332,o),
(-137,-314,o),
(-137,-280,cs),
(-137,-265,o),
(-132,-255,o),
(-122,-246,c),
(-114,-247,o),
(-105,-247,o),
(-96,-247,cs),
(-65,-247,o),
(-35,-241,o),
(-3,-229,c)
);
}
);
};
layerId = "A38B966D-CDEB-4149-A2FB-BDE2BCA6D0C9";
shapes = (
{
closed = 1;
nodes = (
(-23,-164,l),
(-47,-175,o),
(-73,-179,o),
(-101,-179,cs),
(-135,-179,o),
(-167,-170,o),
(-167,-136,cs),
(-167,-112,o),
(-143,-91,o),
(-79,-85,c),
(-84,-25,l),
(-192,-31,o),
(-239,-82,o),
(-239,-140,cs),
(-239,-176,o),
(-222,-206,o),
(-190,-225,c),
(-203,-242,o),
(-209,-263,o),
(-209,-285,cs),
(-209,-355,o),
(-156,-400,o),
(-74,-400,cs),
(-25,-400,o),
(11,-392,o),
(50,-372,c),
(25,-307,l),
(-2,-322,o),
(-31,-332,o),
(-67,-332,cs),
(-104,-332,o),
(-137,-314,o),
(-137,-280,cs),
(-137,-265,o),
(-132,-255,o),
(-122,-246,c),
(-114,-247,o),
(-105,-247,o),
(-96,-247,cs),
(-65,-247,o),
(-35,-241,o),
(-3,-229,c)
);
}
);
width = 0;
}
);
unicode = 71222;
},
{
glyphname = VocL_dv;
layers = (
{
anchors = (
{
name = _Anchor3;
position = "{-146, -50}";
},
{
name = _Anchor5;
position = "{-202, -50}";
}
);
background = {
shapes = (
{
closed = 1;
nodes = (
(-290,-262,l),
(-315,-228,o),
(-334,-194,o),
(-334,-156,cs),
(-334,-123,o),
(-319,-98,o),
(-289,-98,cs),
(-261,-98,o),
(-240,-117,o),
(-231,-166,c),
(-172,-166,l),
(-170,-122,o),
(-141,-97,o),
(-115,-97,cs),
(-92,-97,o),
(-71,-114,o),
(-71,-140,cs),
(-71,-198,o),
(-154,-232,o),
(-154,-303,cs),
(-154,-351,o),
(-120,-400,o),
(-35,-400,cs),
(-9,-400,o),
(16,-394,o),
(36,-386,c),
(22,-322,l),
(8,-328,o),
(-14,-332,o),
(-36,-332,cs),
(-54,-332,o),
(-82,-324,o),
(-82,-300,cs),
(-82,-251,o),
(1,-237,o),
(1,-131,cs),
(1,-68,o),
(-45,-30,o),
(-102,-30,cs),
(-144,-30,o),
(-179,-48,o),
(-202,-78,c),
(-226,-45,o),
(-262,-30,o),
(-293,-30,cs),
(-369,-30,o),
(-406,-77,o),
(-406,-145,cs),
(-406,-194,o),
(-387,-248,o),
(-347,-297,c)
);
}
);
};
layerId = "A38B966D-CDEB-4149-A2FB-BDE2BCA6D0C9";
shapes = (
{
closed = 1;
nodes = (
(-290,-262,l),
(-315,-228,o),
(-334,-194,o),
(-334,-156,cs),
(-334,-123,o),
(-319,-98,o),
(-289,-98,cs),
(-261,-98,o),
(-240,-117,o),
(-231,-166,c),
(-172,-166,l),
(-170,-122,o),
(-141,-97,o),
(-115,-97,cs),
(-92,-97,o),
(-71,-114,o),
(-71,-140,cs),
(-71,-198,o),
(-154,-232,o),
(-154,-303,cs),
(-154,-351,o),
(-120,-400,o),
(-35,-400,cs),
(-9,-400,o),
(16,-394,o),
(36,-386,c),
(22,-322,l),
(8,-328,o),
(-14,-332,o),
(-36,-332,cs),
(-54,-332,o),
(-82,-324,o),
(-82,-300,cs),
(-82,-251,o),
(1,-237,o),
(1,-131,cs),
(1,-68,o),
(-45,-30,o),
(-102,-30,cs),
(-144,-30,o),
(-179,-48,o),
(-202,-78,c),
(-226,-45,o),
(-262,-30,o),
(-293,-30,cs),
(-369,-30,o),
(-406,-77,o),
(-406,-145,cs),
(-406,-194,o),
(-387,-248,o),
(-347,-297,c)
);
}
);
width = 0;
}
);
unicode = 71223;
},
{
glyphname = VocLL_dv;
layers = (
{
anchors = (
{
name = _Anchor3;
position = "{-146, -50}";
},
{
name = _Anchor5;
position = "{-201, -50}";
}
);
background = {
shapes = (
{
closed = 1;
nodes = (
(-290,-262,l),
(-315,-228,o),
(-334,-194,o),
(-334,-156,cs),
(-334,-123,o),
(-319,-99,o),
(-289,-99,cs),
(-261,-99,o),
(-240,-117,o),
(-231,-166,c),
(-172,-166,l),
(-170,-122,o),
(-141,-99,o),
(-111,-99,cs),
(-89,-99,o),
(-71,-110,o),
(-71,-131,cs),
(-71,-168,o),
(-143,-187,o),
(-143,-258,cs),
(-143,-273,o),
(-138,-291,o),
(-125,-306,c),
(-136,-323,o),
(-144,-341,o),
(-144,-363,cs),
(-144,-411,o),
(-110,-460,o),
(-25,-460,cs),
(1,-460,o),
(26,-454,o),
(46,-446,c),
(32,-384,l),
(18,-390,o),
(-6,-394,o),
(-28,-394,cs),
(-46,-394,o),
(-74,-386,o),
(-74,-362,cs),
(-74,-353,o),
(-71,-345,o),
(-66,-337,c),
(-57,-339,o),
(-46,-340,o),
(-35,-340,cs),
(-16,-340,o),
(9,-337,o),
(28,-332,c),
(18,-268,l),
(5,-272,o),
(-11,-275,o),
(-26,-275,cs),
(-44,-275,o),
(-73,-269,o),
(-73,-245,cs),
(-73,-210,o),
(1,-186,o),
(1,-123,cs),
(1,-68,o),
(-38,-30,o),
(-104,-30,cs),
(-141,-30,o),
(-177,-48,o),
(-201,-79,c),
(-225,-45,o),
(-261,-30,o),
(-293,-30,cs),
(-369,-30,o),
(-406,-84,o),
(-406,-145,cs),
(-406,-194,o),
(-387,-248,o),
(-347,-297,c)
);
}
);
};
layerId = "A38B966D-CDEB-4149-A2FB-BDE2BCA6D0C9";
shapes = (
{
closed = 1;
nodes = (
(-290,-262,l),
(-315,-228,o),
(-334,-194,o),
(-334,-156,cs),
(-334,-123,o),
(-319,-99,o),
(-289,-99,cs),
(-261,-99,o),
(-240,-117,o),
(-231,-166,c),
(-172,-166,l),
(-170,-122,o),
(-141,-99,o),
(-111,-99,cs),
(-89,-99,o),
(-71,-110,o),
(-71,-131,cs),
(-71,-168,o),
(-143,-187,o),
(-143,-258,cs),
(-143,-273,o),
(-138,-291,o),
(-125,-306,c),
(-136,-323,o),
(-144,-341,o),
(-144,-363,cs),
(-144,-411,o),
(-110,-460,o),
(-25,-460,cs),
(1,-460,o),
(26,-454,o),
(46,-446,c),
(32,-384,l),
(18,-390,o),
(-6,-394,o),
(-28,-394,cs),
(-46,-394,o),
(-74,-386,o),
(-74,-362,cs),
(-74,-353,o),
(-71,-345,o),
(-66,-337,c),
(-57,-339,o),
(-46,-340,o),
(-35,-340,cs),
(-16,-340,o),
(9,-337,o),
(28,-332,c),
(18,-268,l),
(5,-272,o),
(-11,-275,o),
(-26,-275,cs),
(-44,-275,o),
(-73,-269,o),
(-73,-245,cs),
(-73,-210,o),
(1,-186,o),
(1,-123,cs),
(1,-68,o),
(-38,-30,o),
(-104,-30,cs),
(-141,-30,o),
(-177,-48,o),
(-201,-79,c),
(-225,-45,o),
(-261,-30,o),
(-293,-30,cs),
(-369,-30,o),
(-406,-84,o),
(-406,-145,cs),
(-406,-194,o),
(-387,-248,o),
(-347,-297,c)
);
}
);
width = 0;
}
);
unicode = 71224;
},
{
glyphname = E_dv;
layers = (
{
anchors = (
{
name = Anchor17;
position = "{-160, 920}";
},
{
name = Anchor19;
position = "{13, 758}";
},
{
name = _Anchor11;
position = "{0, 617}";
}
);
background = {
shapes = (
{
closed = 1;
nodes = (
(-327,781,l),
(-150,771,o),
(-108,694,o),
(-82,615,c),
(0,615,l),
(-25,717,o),
(-106,848,o),
(-346,848,c)
);
}
);
};
layerId = "A38B966D-CDEB-4149-A2FB-BDE2BCA6D0C9";
shapes = (
{
closed = 1;
nodes = (
(-327,781,l),
(-150,771,o),
(-108,694,o),
(-82,615,c),
(0,615,l),
(-25,717,o),
(-106,848,o),
(-346,848,c)
);
}
);
width = 0;
}
);
unicode = 71225;
},
{
glyphname = AI_dv;
layers = (
{
anchors = (
{
name = Anchor17;
position = "{-220, 900}";
},
{
name = Anchor19;
position = "{63, 758}";
},
{
name = _Anchor11;
position = "{0, 617}";
}
);
background = {
shapes = (
{
closed = 1;
nodes = (
(-393,799,l),
(-334,736,o),
(-263,725,o),
(-215,725,cs),
(-174,725,o),
(-133,735,o),
(-102,749,c),
(-79,615,l),
(0,615,l),
(-39,819,l),
(-88,836,l),
(-109,819,o),
(-155,795,o),
(-220,795,cs),
(-266,795,o),
(-311,818,o),
(-344,847,c)
);
}
);
};
layerId = "A38B966D-CDEB-4149-A2FB-BDE2BCA6D0C9";
shapes = (
{
closed = 1;
nodes = (
(-393,799,l),
(-334,736,o),
(-263,725,o),
(-215,725,cs),
(-174,725,o),
(-133,735,o),
(-102,749,c),
(-79,615,l),
(0,615,l),
(-39,819,l),
(-88,836,l),
(-109,819,o),
(-155,795,o),
(-220,795,cs),
(-266,795,o),
(-311,818,o),
(-344,847,c)
);
}
);
width = 0;
}
);
unicode = 71226;
},
{
glyphname = O_dv;
layers = (
{
anchors = (
{
name = Anchor13;
position = "{171, 758}";
}
);
background = {
shapes = (
{
closed = 1;
nodes = (
(160,551,l),
(250,551,l),
(250,622,l),
(0,622,l),
(0,551,l),
(80,551,l),
(80,0,l),
(160,0,l)
);
},
{
closed = 1;
nodes = (
(-166,781,l),
(11,771,o),
(53,694,o),
(79,615,c),
(161,615,l),
(136,717,o),
(55,848,o),
(-185,848,c)
);
}
);
};
layerId = "A38B966D-CDEB-4149-A2FB-BDE2BCA6D0C9";
shapes = (
{
closed = 1;
nodes = (
(160,551,l),
(250,551,l),
(250,622,l),
(0,622,l),
(0,551,l),
(80,551,l),
(80,0,l),
(160,0,l)
);
},
{
closed = 1;
nodes = (
(-166,781,l),
(11,771,o),
(53,694,o),
(79,615,c),
(161,615,l),
(136,717,o),
(55,848,o),
(-185,848,c)
);
}
);
width = 240;
}
);
unicode = 71227;
},
{
glyphname = AU_dv;
layers = (
{
anchors = (
{
name = Anchor13;
position = "{228, 758}";
}
);
background = {
shapes = (
{
closed = 1;
nodes = (
(160,551,l),
(250,551,l),
(250,622,l),
(0,622,l),
(0,551,l),
(80,551,l),
(80,0,l),
(160,0,l)
);
},
{
closed = 1;
nodes = (
(-233,799,l),
(-174,736,o),
(-103,725,o),
(-55,725,cs),
(-14,725,o),
(27,735,o),
(58,749,c),
(81,615,l),
(160,615,l),
(121,819,l),
(72,836,l),
(51,819,o),
(5,795,o),
(-60,795,cs),
(-106,795,o),
(-151,818,o),
(-184,847,c)
);
}
);
};
layerId = "A38B966D-CDEB-4149-A2FB-BDE2BCA6D0C9";
shapes = (
{
closed = 1;
nodes = (
(160,551,l),
(250,551,l),
(250,622,l),
(0,622,l),
(0,551,l),
(80,551,l),
(80,0,l),
(160,0,l)
);
},
{
closed = 1;
nodes = (
(-233,799,l),
(-174,736,o),
(-103,725,o),
(-55,725,cs),
(-14,725,o),
(27,735,o),
(58,749,c),
(81,615,l),
(160,615,l),
(121,819,l),
(72,836,l),
(51,819,o),
(5,795,o),
(-60,795,cs),
(-106,795,o),
(-151,818,o),
(-184,847,c)
);
}
);
width = 240;
}
);
unicode = 71228;
},
{
glyphname = Anusvara;
layers = (
{
anchors = (
{
name = _Anchor13;
position = "{0, 680}";
},
{
name = _Anchor19;
position = "{0, 680}";
}
);
background = {
shapes = (
{
closed = 1;
nodes = (
(-28,790,o),
(-52,766,o),
(-52,735,cs),
(-52,706,o),
(-28,680,o),
(0,680,cs),
(28,680,o),
(52,706,o),
(52,735,cs),
(52,766,o),
(28,790,o),
(0,790,cs)
);
}
);
};
layerId = "A38B966D-CDEB-4149-A2FB-BDE2BCA6D0C9";
shapes = (
{
closed = 1;
nodes = (
(-28,790,o),
(-52,766,o),
(-52,735,cs),
(-52,706,o),
(-28,680,o),
(0,680,cs),
(28,680,o),
(52,706,o),
(52,735,cs),
(52,766,o),
(28,790,o),
(0,790,cs)
);
}
);
width = 0;
}
);
unicode = 71229;
},
{
glyphname = Visarga;
layers = (
{
background = {
shapes = (
{
closed = 1;
nodes = (
(127,113,o),
(100,86,o),
(100,51,cs),
(100,19,o),
(127,-10,o),
(158,-10,cs),
(189,-10,o),
(216,19,o),
(216,51,cs),
(216,86,o),
(189,113,o),
(158,113,cs)
);
},
{
closed = 1;
nodes = (
(127,500,o),
(100,473,o),
(100,438,cs),
(100,406,o),
(127,377,o),
(158,377,cs),
(189,377,o),
(216,406,o),
(216,438,cs),
(216,473,o),
(189,500,o),
(158,500,cs)
);
}
);
};
layerId = "A38B966D-CDEB-4149-A2FB-BDE2BCA6D0C9";
shapes = (
{
closed = 1;
nodes = (
(127,113,o),
(100,86,o),
(100,51,cs),
(100,19,o),
(127,-10,o),
(158,-10,cs),
(189,-10,o),
(216,19,o),
(216,51,cs),
(216,86,o),
(189,113,o),
(158,113,cs)
);
},
{
closed = 1;
nodes = (
(127,500,o),
(100,473,o),
(100,438,cs),
(100,406,o),
(127,377,o),
(158,377,cs),
(189,377,o),
(216,406,o),
(216,438,cs),
(216,473,o),
(189,500,o),
(158,500,cs)
);
}
);
width = 316;
}
);
unicode = 71230;
},
{
glyphname = Virama;
layers = (
{
anchors = (
{
name = _Anchor3;
position = "{-129, -50}";
}
);
background = {
shapes = (
{
closed = 1;
nodes = (
(-254,-108,l),
(-186,-132,o),
(-85,-181,o),
(-15,-249,c),
(35,-204,l),
(-35,-135,o),
(-110,-86,o),
(-230,-50,c)
);
}
);
};
layerId = "A38B966D-CDEB-4149-A2FB-BDE2BCA6D0C9";
shapes = (
{
closed = 1;
nodes = (
(-254,-108,l),
(-186,-132,o),
(-85,-181,o),
(-15,-249,c),
(35,-204,l),
(-35,-135,o),
(-110,-86,o),
(-230,-50,c)
);
}
);
width = 0;
}
);
unicode = 71231;
},
{
glyphname = Ardhacandra;
layers = (
{
anchors = (
{
name = Anchor19;
position = "{0, 799}";
},
{
name = _Anchor13;
position = "{80, 712}";
},
{
name = _Anchor15;
position = "{0, 712}";
},
{
name = _Anchor17;
position = "{0, 712}";
},
{
name = _Anchor19;
position = "{80, 712}";
}
);
background = {
shapes = (
{
closed = 1;
nodes = (
(132,840,l),
(100,777,o),
(61,749,o),
(1,749,cs),
(-57,749,o),
(-98,777,o),
(-132,840,c),
(-200,808,l),
(-156,722,o),
(-90,680,o),
(1,680,cs),
(92,680,o),
(156,722,o),
(200,808,c)
);
}
);
};
layerId = "A38B966D-CDEB-4149-A2FB-BDE2BCA6D0C9";
shapes = (
{
closed = 1;
nodes = (
(132,840,l),
(100,777,o),
(61,749,o),
(1,749,cs),
(-57,749,o),
(-98,777,o),
(-132,840,c),
(-200,808,l),
(-156,722,o),
(-90,680,o),
(1,680,cs),
(92,680,o),
(156,722,o),
(200,808,c)
);
}
);
width = 0;
}
);
unicode = 71232;
},
{
glyphname = Danda;
layers = (
{
background = {
shapes = (
{
closed = 1;
nodes = (
(180,622,l),
(100,622,l),
(100,0,l),
(180,0,l)
);
}
);
};
layerId = "A38B966D-CDEB-4149-A2FB-BDE2BCA6D0C9";
shapes = (
{
closed = 1;
nodes = (
(180,622,l),
(100,622,l),
(100,0,l),
(180,0,l)
);
}
);
width = 280;
}
);
unicode = 71233;
},
{
glyphname = DblDanda;
layers = (
{
background = {
shapes = (
{
closed = 1;
nodes = (
(180,622,l),
(100,622,l),
(100,0,l),
(180,0,l)
);
},
{
closed = 1;
nodes = (
(360,622,l),
(280,622,l),
(280,0,l),
(360,0,l)
);
}
);
};
layerId = "A38B966D-CDEB-4149-A2FB-BDE2BCA6D0C9";
shapes = (
{
closed = 1;
nodes = (
(180,622,l),
(100,622,l),
(100,0,l),
(180,0,l)
);
},
{
closed = 1;
nodes = (
(360,622,l),
(280,622,l),
(280,0,l),
(360,0,l)
);
}
);
width = 460;
}
);
unicode = 71234;
},
{
glyphname = Abbreviation;
layers = (
{
background = {
shapes = (
{
closed = 1;
nodes = (
(80,51,o),
(141,-10,o),
(218,-10,cs),
(295,-10,o),
(357,51,o),
(357,128,cs),
(357,205,o),
(295,267,o),
(218,267,cs),
(141,267,o),
(80,205,o),
(80,128,cs)
);
},
{
closed = 1;
nodes = (
(150,167,o),
(178,199,o),
(218,199,cs),
(258,199,o),
(287,168,o),
(287,128,cs),
(287,88,o),
(258,57,o),
(218,57,cs),
(178,57,o),
(150,87,o),
(150,127,cs)
);
}
);
};
layerId = "A38B966D-CDEB-4149-A2FB-BDE2BCA6D0C9";
shapes = (
{
closed = 1;
nodes = (
(80,51,o),
(141,-10,o),
(218,-10,cs),
(295,-10,o),
(357,51,o),
(357,128,cs),
(357,205,o),
(295,267,o),
(218,267,cs),
(141,267,o),
(80,205,o),
(80,128,cs)
);
},
{
closed = 1;
nodes = (
(150,167,o),
(178,199,o),
(218,199,cs),
(258,199,o),
(287,168,o),
(287,128,cs),
(287,88,o),
(258,57,o),
(218,57,cs),
(178,57,o),
(150,87,o),
(150,127,cs)
);
}
);
width = 407;
}
);
unicode = 71235;
},
{
glyphname = Huva;
layers = (
{
background = {
shapes = (
{
closed = 1;
nodes = (
(20,166,l),
(64,57,o),
(137,-10,o),
(230,-10,cs),
(348,-10,o),
(392,53,o),
(392,157,cs),
(392,622,l),
(312,622,l),
(312,161,ls),
(312,106,o),
(288,64,o),
(230,64,cs),
(174,64,o),
(120,114,o),
(91,189,c)
);
}
);
};
layerId = "A38B966D-CDEB-4149-A2FB-BDE2BCA6D0C9";
shapes = (
{
closed = 1;
nodes = (
(20,166,l),
(64,57,o),
(137,-10,o),
(230,-10,cs),
(348,-10,o),
(392,53,o),
(392,157,cs),
(392,622,l),
(312,622,l),
(312,161,ls),
(312,106,o),
(288,64,o),
(230,64,cs),
(174,64,o),
(120,114,o),
(91,189,c)
);
}
);
width = 472;
}
);
unicode = 71236;
},
{
glyphname = u11650;
layers = (
{
background = {
shapes = (
{
closed = 1;
nodes = (
(144,490,o),
(60,408,o),
(60,291,cs),
(60,173,o),
(144,91,o),
(260,91,cs),
(376,91,o),
(461,173,o),
(461,289,cs),
(461,406,o),
(374,490,o),
(259,490,cs)
);
},
{
closed = 1;
nodes = (
(188,162,o),
(142,214,o),
(142,288,cs),
(142,363,o),
(192,418,o),
(262,418,cs),
(332,418,o),
(379,365,o),
(379,292,cs),
(379,218,o),
(328,162,o),
(258,162,cs)
);
}
);
};
layerId = "A38B966D-CDEB-4149-A2FB-BDE2BCA6D0C9";
shapes = (
{
closed = 1;
nodes = (
(144,490,o),
(60,408,o),
(60,291,cs),
(60,173,o),
(144,91,o),
(260,91,cs),
(376,91,o),
(461,173,o),
(461,289,cs),
(461,406,o),
(374,490,o),
(259,490,cs)
);
},
{
closed = 1;
nodes = (
(188,162,o),
(142,214,o),
(142,288,cs),
(142,363,o),
(192,418,o),
(262,418,cs),
(332,418,o),
(379,365,o),
(379,292,cs),
(379,218,o),
(328,162,o),
(258,162,cs)
);
}
);
width = 521;
}
);
unicode = 71248;
},
{
glyphname = u11651;
layers = (
{
background = {
shapes = (
{
closed = 1;
nodes = (
(447,64,l),
(415,69,o),
(391,86,o),
(391,141,cs),
(391,408,ls),
(391,541,o),
(333,600,o),
(226,600,cs),
(121,600,o),
(60,525,o),
(60,439,cs),
(60,340,o),
(134,275,o),
(231,275,cs),
(262,275,o),
(287,280,o),
(311,289,c),
(311,137,ls),
(311,33,o),
(348,-5,o),
(436,-10,c)
);
},
{
closed = 1;
nodes = (
(178,348,o),
(141,379,o),
(141,434,cs),
(141,491,o),
(174,527,o),
(227,527,cs),
(290,527,o),
(311,482,o),
(311,391,cs),
(311,370,l),
(288,356,o),
(262,348,o),
(233,348,cs)
);
}
);
};
layerId = "A38B966D-CDEB-4149-A2FB-BDE2BCA6D0C9";
shapes = (
{
closed = 1;
nodes = (
(447,64,l),
(415,69,o),
(391,86,o),
(391,141,cs),
(391,408,ls),
(391,541,o),
(333,600,o),
(226,600,cs),
(121,600,o),
(60,525,o),
(60,439,cs),
(60,340,o),
(134,275,o),
(231,275,cs),
(262,275,o),
(287,280,o),
(311,289,c),
(311,137,ls),
(311,33,o),
(348,-5,o),
(436,-10,c)
);
},
{
closed = 1;
nodes = (
(178,348,o),
(141,379,o),
(141,434,cs),
(141,491,o),
(174,527,o),
(227,527,cs),
(290,527,o),
(311,482,o),
(311,391,cs),
(311,370,l),
(288,356,o),
(262,348,o),
(233,348,cs)
);
}
);
width = 497;
}
);
unicode = 71249;
},
{
glyphname = u11652;
layers = (
{
background = {
shapes = (
{
closed = 1;
nodes = (
(55,51,l),
(77,53,o),
(85,53,o),
(97,53,cs),
(239,53,o),
(337,-15,o),
(393,-74,c),
(449,-20,l),
(407,23,o),
(336,76,o),
(249,104,c),
(342,154,o),
(403,241,o),
(403,382,cs),
(403,519,o),
(313,600,o),
(192,600,cs),
(137,600,o),
(79,585,o),
(30,564,c),
(54,496,l),
(101,518,o),
(140,526,o),
(188,526,cs),
(259,526,o),
(323,474,o),
(323,383,cs),
(323,170,o),
(161,129,o),
(42,123,c)
);
}
);
};
layerId = "A38B966D-CDEB-4149-A2FB-BDE2BCA6D0C9";
shapes = (
{
closed = 1;
nodes = (
(55,51,l),
(77,53,o),
(85,53,o),
(97,53,cs),
(239,53,o),
(337,-15,o),
(393,-74,c),
(449,-20,l),
(407,23,o),
(336,76,o),
(249,104,c),
(342,154,o),
(403,241,o),
(403,382,cs),
(403,519,o),
(313,600,o),
(192,600,cs),
(137,600,o),
(79,585,o),
(30,564,c),
(54,496,l),
(101,518,o),
(140,526,o),
(188,526,cs),
(259,526,o),
(323,474,o),
(323,383,cs),
(323,170,o),
(161,129,o),
(42,123,c)
);
}
);
width = 479;
}
);
unicode = 71250;
},
{
glyphname = u11653;
layers = (
{
background = {
shapes = (
{
closed = 1;
nodes = (
(30,13,l),
(65,0,o),
(123,-10,o),
(177,-10,cs),
(297,-10,o),
(382,65,o),
(382,173,cs),
(382,233,o),
(345,288,o),
(276,312,c),
(325,339,o),
(362,381,o),
(362,444,cs),
(362,555,o),
(273,600,o),
(173,600,cs),
(121,600,o),
(81,593,o),
(48,584,c),
(61,510,l),
(91,520,o),
(135,526,o),
(171,526,cs),
(239,526,o),
(282,494,o),
(282,450,cs),
(282,393,o),
(229,336,o),
(97,332,c),
(91,267,l),
(116,269,o),
(129,270,o),
(151,270,cs),
(222,270,o),
(302,255,o),
(302,168,cs),
(302,115,o),
(264,64,o),
(173,64,cs),
(142,64,o),
(85,76,o),
(44,86,c)
);
}
);
};
layerId = "A38B966D-CDEB-4149-A2FB-BDE2BCA6D0C9";
shapes = (
{
closed = 1;
nodes = (
(30,13,l),
(65,0,o),
(123,-10,o),
(177,-10,cs),
(297,-10,o),
(382,65,o),
(382,173,cs),
(382,233,o),
(345,288,o),
(276,312,c),
(325,339,o),
(362,381,o),
(362,444,cs),
(362,555,o),
(273,600,o),
(173,600,cs),
(121,600,o),
(81,593,o),
(48,584,c),
(61,510,l),
(91,520,o),
(135,526,o),
(171,526,cs),
(239,526,o),
(282,494,o),
(282,450,cs),
(282,393,o),
(229,336,o),
(97,332,c),
(91,267,l),
(116,269,o),
(129,270,o),
(151,270,cs),
(222,270,o),
(302,255,o),
(302,168,cs),
(302,115,o),
(264,64,o),
(173,64,cs),
(142,64,o),
(85,76,o),
(44,86,c)
);
}
);
width = 442;
}
);
unicode = 71251;
},
{
glyphname = u11654;
layers = (
{
background = {
shapes = (
{
closed = 1;
nodes = (
(399,-10,o),
(429,64,o),
(429,126,cs),
(429,194,o),
(383,263,o),
(322,326,c),
(380,386,o),
(458,457,o),
(555,544,c),
(506,598,l),
(486,579,o),
(441,538,o),
(389,492,cs),
(351,458,o),
(309,418,o),
(269,376,c),
(187,449,o),
(96,507,o),
(63,534,c),
(20,474,l),
(62,442,o),
(147,384,o),
(220,320,c),
(166,254,o),
(126,185,o),
(126,126,cs),
(126,64,o),
(156,-10,o),
(278,-10,cs)
);
},
{
closed = 1;
nodes = (
(225,62,o),
(206,95,o),
(206,129,cs),
(206,171,o),
(228,216,o),
(272,270,c),
(317,222,o),
(349,173,o),
(349,129,cs),
(349,95,o),
(335,62,o),
(280,62,cs)
);
}
);
};
layerId = "A38B966D-CDEB-4149-A2FB-BDE2BCA6D0C9";
shapes = (
{
closed = 1;
nodes = (
(399,-10,o),
(429,64,o),
(429,126,cs),
(429,194,o),
(383,263,o),
(322,326,c),
(380,386,o),
(458,457,o),
(555,544,c),
(506,598,l),
(486,579,o),
(441,538,o),
(389,492,cs),
(351,458,o),
(309,418,o),
(269,376,c),
(187,449,o),
(96,507,o),
(63,534,c),
(20,474,l),
(62,442,o),
(147,384,o),
(220,320,c),
(166,254,o),
(126,185,o),
(126,126,cs),
(126,64,o),
(156,-10,o),
(278,-10,cs)
);
},
{
closed = 1;
nodes = (
(225,62,o),
(206,95,o),
(206,129,cs),
(206,171,o),
(228,216,o),
(272,270,c),
(317,222,o),
(349,173,o),
(349,129,cs),
(349,95,o),
(335,62,o),
(280,62,cs)
);
}
);
width = 575;
}
);
unicode = 71252;
},
{
glyphname = u11655;
layers = (
{
background = {
shapes = (
{
closed = 1;
nodes = (
(535,128,l),
(513,102,o),
(471,64,o),
(396,64,cs),
(308,64,o),
(259,142,o),
(259,240,cs),
(259,343,o),
(308,456,o),
(439,523,c),
(430,605,l),
(400,594,o),
(372,581,o),
(347,561,cs),
(269,500,o),
(226,467,o),
(146,467,cs),
(115,467,o),
(81,479,o),
(55,502,c),
(20,435,l),
(52,407,o),
(96,393,o),
(145,393,cs),
(168,393,o),
(192,396,o),
(217,403,c),
(192,350,o),
(179,293,o),
(179,238,cs),
(179,94,o),
(261,-10,o),
(399,-10,cs),
(489,-10,o),
(561,35,o),
(596,82,c)
);
}
);
};
layerId = "A38B966D-CDEB-4149-A2FB-BDE2BCA6D0C9";
shapes = (
{
closed = 1;
nodes = (
(535,128,l),
(513,102,o),
(471,64,o),
(396,64,cs),
(308,64,o),
(259,142,o),
(259,240,cs),
(259,343,o),
(308,456,o),
(439,523,c),
(430,605,l),
(400,594,o),
(372,581,o),
(347,561,cs),
(269,500,o),
(226,467,o),
(146,467,cs),
(115,467,o),
(81,479,o),
(55,502,c),
(20,435,l),
(52,407,o),
(96,393,o),
(145,393,cs),
(168,393,o),
(192,396,o),
(217,403,c),
(192,350,o),
(179,293,o),
(179,238,cs),
(179,94,o),
(261,-10,o),
(399,-10,cs),
(489,-10,o),
(561,35,o),
(596,82,c)
);
}
);
width = 606;
}
);
unicode = 71253;
},
{
glyphname = u11656;
layers = (
{
background = {
shapes = (
{
closed = 1;
nodes = (
(430,105,l),
(388,85,o),
(316,64,o),
(261,64,cs),
(196,64,o),
(140,86,o),
(140,149,cs),
(140,218,o),
(212,273,o),
(327,282,c),
(316,351,l),
(299,348,o),
(283,346,o),
(268,346,cs),
(188,346,o),
(155,392,o),
(155,429,cs),
(155,489,o),
(244,528,o),
(317,534,c),
(310,609,l),
(181,598,o),
(75,539,o),
(75,429,cs),
(75,370,o),
(112,327,o),
(162,303,c),
(90,271,o),
(60,209,o),
(60,148,cs),
(60,38,o),
(156,-10,o),
(251,-10,cs),
(325,-10,o),
(397,6,o),
(452,34,c)
);
}
);
};
layerId = "A38B966D-CDEB-4149-A2FB-BDE2BCA6D0C9";
shapes = (
{
closed = 1;
nodes = (
(430,105,l),
(388,85,o),
(316,64,o),
(261,64,cs),
(196,64,o),
(140,86,o),
(140,149,cs),
(140,218,o),
(212,273,o),
(327,282,c),
(316,351,l),
(299,348,o),
(283,346,o),
(268,346,cs),
(188,346,o),
(155,392,o),
(155,429,cs),
(155,489,o),
(244,528,o),
(317,534,c),
(310,609,l),
(181,598,o),
(75,539,o),
(75,429,cs),
(75,370,o),
(112,327,o),
(162,303,c),
(90,271,o),
(60,209,o),
(60,148,cs),
(60,38,o),
(156,-10,o),
(251,-10,cs),
(325,-10,o),
(397,6,o),
(452,34,c)
);
}
);
width = 482;
}
);
unicode = 71254;
},
{
glyphname = u11657;
layers = (
{
background = {
shapes = (
{
closed = 1;
nodes = (
(30,286,l),
(42,126,o),
(137,-10,o),
(298,-10,cs),
(519,-10,o),
(594,191,o),
(594,385,cs),
(594,518,o),
(538,600,o),
(444,600,cs),
(373,600,o),
(309,544,o),
(309,459,cs),
(309,355,o),
(384,319,o),
(466,319,cs),
(481,319,o),
(497,320,o),
(512,322,c),
(501,193,o),
(448,64,o),
(297,64,cs),
(175,64,o),
(115,204,o),
(109,305,c)
);
},
{
closed = 1;
nodes = (
(420,393,o),
(384,410,o),
(384,458,cs),
(384,499,o),
(406,526,o),
(445,526,cs),
(492,526,o),
(513,484,o),
(515,397,c),
(498,394,o),
(482,393,o),
(468,393,cs)
);
}
);
};
layerId = "A38B966D-CDEB-4149-A2FB-BDE2BCA6D0C9";
shapes = (
{
closed = 1;
nodes = (
(30,286,l),
(42,126,o),
(137,-10,o),
(298,-10,cs),
(519,-10,o),
(594,191,o),
(594,385,cs),
(594,518,o),
(538,600,o),
(444,600,cs),
(373,600,o),
(309,544,o),
(309,459,cs),
(309,355,o),
(384,319,o),
(466,319,cs),
(481,319,o),
(497,320,o),
(512,322,c),
(501,193,o),
(448,64,o),
(297,64,cs),
(175,64,o),
(115,204,o),
(109,305,c)
);
},
{
closed = 1;
nodes = (
(420,393,o),
(384,410,o),
(384,458,cs),
(384,499,o),
(406,526,o),
(445,526,cs),
(492,526,o),
(513,484,o),
(515,397,c),
(498,394,o),
(482,393,o),
(468,393,cs)
);
}
);
width = 654;
}
);
unicode = 71255;
},
{
glyphname = u11658;
layers = (
{
background = {
shapes = (
{
closed = 1;
nodes = (
(284,605,l),
(173,449,o),
(30,211,o),
(30,108,cs),
(30,14,o),
(135,-10,o),
(231,-10,cs),
(305,-10,o),
(373,6,o),
(433,41,c),
(405,112,l),
(369,87,o),
(293,64,o),
(239,64,cs),
(168,64,o),
(110,76,o),
(110,113,cs),
(110,183,o),
(237,404,o),
(351,563,c)
);
}
);
};
layerId = "A38B966D-CDEB-4149-A2FB-BDE2BCA6D0C9";
shapes = (
{
closed = 1;
nodes = (
(284,605,l),
(173,449,o),
(30,211,o),
(30,108,cs),
(30,14,o),
(135,-10,o),
(231,-10,cs),
(305,-10,o),
(373,6,o),
(433,41,c),
(405,112,l),
(369,87,o),
(293,64,o),
(239,64,cs),
(168,64,o),
(110,76,o),
(110,113,cs),
(110,183,o),
(237,404,o),
(351,563,c)
);
}
);
width = 463;
}
);
unicode = 71256;
},
{
glyphname = u11659;
layers = (
{
background = {
shapes = (
{
closed = 1;
nodes = (
(583,338,l),
(548,190,o),
(478,64,o),
(353,64,cs),
(232,64,o),
(164,158,o),
(145,294,c),
(159,293,o),
(174,292,o),
(188,292,cs),
(261,292,o),
(370,319,o),
(370,459,cs),
(370,549,o),
(295,600,o),
(230,600,cs),
(116,600,o),
(60,518,o),
(60,385,cs),
(60,160,o),
(154,-10,o),
(351,-10,cs),
(515,-10,o),
(614,129,o),
(660,319,c)
);
},
{
closed = 1;
nodes = (
(139,384,ls),
(139,480,o),
(160,526,o),
(222,526,cs),
(266,526,o),
(290,495,o),
(290,454,cs),
(290,380,o),
(234,366,o),
(186,366,cs),
(171,366,o),
(155,368,o),
(139,370,c)
);
}
);
};
layerId = "A38B966D-CDEB-4149-A2FB-BDE2BCA6D0C9";
shapes = (
{
closed = 1;
nodes = (
(583,338,l),
(548,190,o),
(478,64,o),
(353,64,cs),
(232,64,o),
(164,158,o),
(145,294,c),
(159,293,o),
(174,292,o),
(188,292,cs),
(261,292,o),
(370,319,o),
(370,459,cs),
(370,549,o),
(295,600,o),
(230,600,cs),
(116,600,o),
(60,518,o),
(60,385,cs),
(60,160,o),
(154,-10,o),
(351,-10,cs),
(515,-10,o),
(614,129,o),
(660,319,c)
);
},
{
closed = 1;
nodes = (
(139,384,ls),
(139,480,o),
(160,526,o),
(222,526,cs),
(266,526,o),
(290,495,o),
(290,454,cs),
(290,380,o),
(234,366,o),
(186,366,cs),
(171,366,o),
(155,368,o),
(139,370,c)
);
}
);
width = 690;
}
);
unicode = 71257;
},
{
glyphname = Tha.alt;
layers = (
{
anchors = (
{
name = Anchor11;
position = "{552, 622}";
},
{
name = Anchor13;
position = "{507, 718}";
},
{
name = Anchor3;
position = "{472, 0}";
},
{
name = Anchor7;
position = "{354, 177}";
}
);
background = {
shapes = (
{
closed = 1;
nodes = (
(552,551,l),
(642,551,l),
(642,622,l),
(0,622,l),
(0,551,l),
(81,551,l),
(62,527,o),
(50,497,o),
(50,462,cs),
(50,385,o),
(110,322,o),
(187,322,cs),
(194,322,o),
(200,322,o),
(207,323,c),
(168,282,o),
(114,264,o),
(86,255,c),
(112,154,o),
(199,105,o),
(290,105,cs),
(356,105,o),
(424,129,o),
(472,172,c),
(472,0,l),
(552,0,l)
);
},
{
closed = 1;
nodes = (
(250,179,o),
(207,194,o),
(182,226,c),
(300,278,o),
(330,360,o),
(330,439,cs),
(330,480,o),
(321,521,o),
(299,551,c),
(472,551,l),
(472,294,l),
(434,215,o),
(362,179,o),
(294,179,cs)
);
},
{
closed = 1;
nodes = (
(162,392,o),
(120,412,o),
(120,461,cs),
(120,502,o),
(151,533,o),
(190,533,cs),
(240,533,o),
(251,483,o),
(251,439,cs),
(251,430,o),
(250,421,o),
(249,413,c),
(232,400,o),
(213,392,o),
(189,392,cs)
);
}
);
};
layerId = "A38B966D-CDEB-4149-A2FB-BDE2BCA6D0C9";
shapes = (
{
closed = 1;
nodes = (
(552,551,l),
(642,551,l),
(642,622,l),
(0,622,l),
(0,551,l),
(81,551,l),
(62,527,o),
(50,497,o),
(50,462,cs),
(50,385,o),
(110,322,o),
(187,322,cs),
(194,322,o),
(200,322,o),
(207,323,c),
(168,282,o),
(114,264,o),
(86,255,c),
(112,154,o),
(199,105,o),
(290,105,cs),
(356,105,o),
(424,129,o),
(472,172,c),
(472,0,l),
(552,0,l)
);
},
{
closed = 1;
nodes = (
(250,179,o),
(207,194,o),
(182,226,c),
(300,278,o),
(330,360,o),
(330,439,cs),
(330,480,o),
(321,521,o),
(299,551,c),
(472,551,l),
(472,294,l),
(434,215,o),
(362,179,o),
(294,179,cs)
);
},
{
closed = 1;
nodes = (
(162,392,o),
(120,412,o),
(120,461,cs),
(120,502,o),
(151,533,o),
(190,533,cs),
(240,533,o),
(251,483,o),
(251,439,cs),
(251,430,o),
(250,421,o),
(249,413,c),
(232,400,o),
(213,392,o),
(189,392,cs)
);
}
);
width = 632;
}
);
},
{
glyphname = Da.alt;
layers = (
{
anchors = (
{
name = Anchor11;
position = "{413, 622}";
},
{
name = Anchor13;
position = "{378, 718}";
},
{
name = Anchor3;
position = "{235, -80}";
},
{
name = Anchor5;
position = "{283, -80}";
},
{
name = Anchor7;
position = "{362, 60}";
},
{
name = Anchor9;
position = "{306, -70}";
}
);
background = {
shapes = (
{
closed = 1;
nodes = (
(526,622,l),
(0,622,l),
(0,551,l),
(91,551,l),
(70,491,o),
(60,426,o),
(60,364,cs),
(60,191,o),
(139,-10,o),
(306,-10,cs),
(421,-10,o),
(488,55,o),
(488,152,cs),
(488,223,o),
(446,265,o),
(397,288,c),
(418,306,o),
(432,331,o),
(432,363,cs),
(432,399,o),
(398,431,o),
(398,471,cs),
(398,496,o),
(401,524,o),
(413,551,c),
(526,551,l)
);
},
{
closed = 1;
nodes = (
(285,247,l),
(289,247,o),
(294,247,o),
(299,248,c),
(366,246,o),
(408,201,o),
(408,151,cs),
(408,100,o),
(375,64,o),
(311,64,cs),
(215,64,o),
(141,184,o),
(141,364,cs),
(141,424,o),
(151,491,o),
(175,551,c),
(330,551,l),
(321,523,o),
(318,493,o),
(318,472,cs),
(318,422,o),
(352,386,o),
(352,359,cs),
(352,326,o),
(304,313,o),
(281,313,c)
);
}
);
};
layerId = "A38B966D-CDEB-4149-A2FB-BDE2BCA6D0C9";
shapes = (
{
closed = 1;
nodes = (
(526,622,l),
(0,622,l),
(0,551,l),
(91,551,l),
(70,491,o),
(60,426,o),
(60,364,cs),
(60,191,o),
(139,-10,o),
(306,-10,cs),
(421,-10,o),
(488,55,o),
(488,152,cs),
(488,223,o),
(446,265,o),
(397,288,c),
(418,306,o),
(432,331,o),
(432,363,cs),
(432,399,o),
(398,431,o),
(398,471,cs),
(398,496,o),
(401,524,o),
(413,551,c),
(526,551,l)
);
},
{
closed = 1;
nodes = (
(285,247,l),
(289,247,o),
(294,247,o),
(299,248,c),
(366,246,o),
(408,201,o),
(408,151,cs),
(408,100,o),
(375,64,o),
(311,64,cs),
(215,64,o),
(141,184,o),
(141,364,cs),
(141,424,o),
(151,491,o),
(175,551,c),
(330,551,l),
(321,523,o),
(318,493,o),
(318,472,cs),
(318,422,o),
(352,386,o),
(352,359,cs),
(352,326,o),
(304,313,o),
(281,313,c)
);
}
);
width = 406;
}
);
},
{
glyphname = Dha.alt;
layers = (
{
anchors = (
{
name = Anchor11;
position = "{463, 622}";
},
{
name = Anchor13;
position = "{433, 718}";
},
{
name = Anchor3;
position = "{325, -80}";
},
{
name = Anchor5;
position = "{351, -80}";
},
{
name = Anchor7;
position = "{407, 59}";
},
{
name = Anchor9;
position = "{351, -70}";
}
);
background = {
shapes = (
{
closed = 1;
nodes = (
(533,224,l),
(503,147,o),
(460,62,o),
(354,62,cs),
(307,62,o),
(260,97,o),
(260,161,cs),
(260,206,o),
(305,255,o),
(349,270,c),
(319,328,l),
(311,324,l),
(280,310,o),
(254,304,o),
(232,304,cs),
(190,304,o),
(162,326,o),
(146,359,c),
(159,355,o),
(172,353,o),
(188,353,cs),
(265,353,o),
(323,398,o),
(323,479,cs),
(323,507,o),
(314,531,o),
(300,551,c),
(513,551,l),
(513,622,l),
(0,622,l),
(0,551,l),
(82,551,l),
(60,520,o),
(50,480,o),
(50,444,cs),
(50,343,o),
(105,247,o),
(209,237,c),
(192,211,o),
(185,184,o),
(185,158,cs),
(185,69,o),
(250,-10,o),
(351,-10,cs),
(476,-10,o),
(540,58,o),
(588,161,c)
);
},
{
closed = 1;
nodes = (
(128,450,ls),
(128,483,o),
(140,535,o),
(190,535,cs),
(229,535,o),
(245,506,o),
(245,479,cs),
(245,443,o),
(219,421,o),
(187,421,cs),
(164,421,o),
(145,429,o),
(128,441,c)
);
}
);
};
layerId = "A38B966D-CDEB-4149-A2FB-BDE2BCA6D0C9";
shapes = (
{
closed = 1;
nodes = (
(533,224,l),
(503,147,o),
(460,62,o),
(354,62,cs),
(307,62,o),
(260,97,o),
(260,161,cs),
(260,206,o),
(305,255,o),
(349,270,c),
(319,328,l),
(311,324,l),
(280,310,o),
(254,304,o),
(232,304,cs),
(190,304,o),
(162,326,o),
(146,359,c),
(159,355,o),
(172,353,o),
(188,353,cs),
(265,353,o),
(323,398,o),
(323,479,cs),
(323,507,o),
(314,531,o),
(300,551,c),
(513,551,l),
(513,622,l),
(0,622,l),
(0,551,l),
(82,551,l),
(60,520,o),
(50,480,o),
(50,444,cs),
(50,343,o),
(105,247,o),
(209,237,c),
(192,211,o),
(185,184,o),
(185,158,cs),
(185,69,o),
(250,-10,o),
(351,-10,cs),
(476,-10,o),
(540,58,o),
(588,161,c)
);
},
{
closed = 1;
nodes = (
(128,450,ls),
(128,483,o),
(140,535,o),
(190,535,cs),
(229,535,o),
(245,506,o),
(245,479,cs),
(245,443,o),
(219,421,o),
(187,421,cs),
(164,421,o),
(145,429,o),
(128,441,c)
);
}
);
width = 503;
}
);
},
{
glyphname = Pa.alt;
layers = (
{
anchors = (
{
name = Anchor11;
position = "{507, 622}";
},
{
name = Anchor13;
position = "{462, 718}";
},
{
name = Anchor3;
position = "{427, 0}";
},
{
name = Anchor7;
position = "{321, 215}";
}
);
background = {
shapes = (
{
closed = 1;
nodes = (
(507,551,l),
(597,551,l),
(597,622,l),
(0,622,l),
(0,551,l),
(80,551,l),
(80,358,ls),
(80,236,o),
(126,146,o),
(255,146,cs),
(294,146,o),
(361,154,o),
(427,196,c),
(427,0,l),
(507,0,l)
);
},
{
closed = 1;
nodes = (
(163,217,o),
(160,292,o),
(160,355,cs),
(160,551,l),
(427,551,l),
(427,288,l),
(373,228,o),
(293,217,o),
(263,217,cs)
);
}
);
};
layerId = "A38B966D-CDEB-4149-A2FB-BDE2BCA6D0C9";
shapes = (
{
closed = 1;
nodes = (
(507,551,l),
(597,551,l),
(597,622,l),
(0,622,l),
(0,551,l),
(80,551,l),
(80,358,ls),
(80,236,o),
(126,146,o),
(255,146,cs),
(294,146,o),
(361,154,o),
(427,196,c),
(427,0,l),
(507,0,l)
);
},
{
closed = 1;
nodes = (
(163,217,o),
(160,292,o),
(160,355,cs),
(160,551,l),
(427,551,l),
(427,288,l),
(373,228,o),
(293,217,o),
(263,217,cs)
);
}
);
width = 587;
}
);
},
{
glyphname = Ma.alt;
layers = (
{
anchors = (
{
name = Anchor11;
position = "{507, 622}";
},
{
name = Anchor13;
position = "{462, 718}";
},
{
name = Anchor3;
position = "{427, 0}";
},
{
name = Anchor7;
position = "{427, 213}";
}
);
background = {
shapes = (
{
closed = 1;
nodes = (
(176,142,l),
(248,261,o),
(348,263,o),
(427,287,c),
(427,0,l),
(507,0,l),
(507,551,l),
(597,551,l),
(597,622,l),
(0,622,l),
(0,551,l),
(79,551,l),
(103,464,o),
(118,361,o),
(118,275,cs),
(118,237,o),
(111,183,o),
(98,153,c)
);
},
{
closed = 1;
nodes = (
(198,358,o),
(182,451,o),
(162,551,c),
(427,551,l),
(427,372,l),
(360,339,o),
(267,333,o),
(198,275,c)
);
}
);
};
layerId = "A38B966D-CDEB-4149-A2FB-BDE2BCA6D0C9";
shapes = (
{
closed = 1;
nodes = (
(176,142,l),
(248,261,o),
(348,263,o),
(427,287,c),
(427,0,l),
(507,0,l),
(507,551,l),
(597,551,l),
(597,622,l),
(0,622,l),
(0,551,l),
(79,551,l),
(103,464,o),
(118,361,o),
(118,275,cs),
(118,237,o),
(111,183,o),
(98,153,c)
);
},
{
closed = 1;
nodes = (
(198,358,o),
(182,451,o),
(162,551,c),
(427,551,l),
(427,372,l),
(360,339,o),
(267,333,o),
(198,275,c)
);
}
);
width = 587;
}
);
},
{
glyphname = Ya.alt;
layers = (
{
anchors = (
{
name = Anchor11;
position = "{512, 622}";
},
{
name = Anchor13;
position = "{467, 718}";
},
{
name = Anchor3;
position = "{432, 0}";
},
{
name = Anchor7;
position = "{324, 185}";
}
);
background = {
shapes = (
{
closed = 1;
nodes = (
(512,551,l),
(602,551,l),
(602,622,l),
(0,622,l),
(0,551,l),
(83,551,l),
(120,503,o),
(134,455,o),
(134,413,cs),
(134,330,o),
(81,267,o),
(46,255,c),
(63,150,o),
(149,105,o),
(241,105,cs),
(310,105,o),
(383,133,o),
(432,179,c),
(432,0,l),
(512,0,l)
);
},
{
closed = 1;
nodes = (
(203,179,o),
(159,194,o),
(131,230,c),
(184,266,o),
(210,338,o),
(210,412,cs),
(210,460,o),
(197,508,o),
(170,551,c),
(432,551,l),
(432,290,l),
(397,219,o),
(320,179,o),
(248,179,cs)
);
}
);
};
layerId = "A38B966D-CDEB-4149-A2FB-BDE2BCA6D0C9";
shapes = (
{
closed = 1;
nodes = (
(512,551,l),
(602,551,l),
(602,622,l),
(0,622,l),
(0,551,l),
(83,551,l),
(120,503,o),
(134,455,o),
(134,413,cs),
(134,330,o),
(81,267,o),
(46,255,c),
(63,150,o),
(149,105,o),
(241,105,cs),
(310,105,o),
(383,133,o),
(432,179,c),
(432,0,l),
(512,0,l)
);
},
{
closed = 1;
nodes = (
(203,179,o),
(159,194,o),
(131,230,c),
(184,266,o),
(210,338,o),
(210,412,cs),
(210,460,o),
(197,508,o),
(170,551,c),
(432,551,l),
(432,290,l),
(397,219,o),
(320,179,o),
(248,179,cs)
);
}
);
width = 592;
}
);
},
{
glyphname = Ra.alt;
layers = (
{
anchors = (
{
name = Anchor11;
position = "{437, 622}";
},
{
name = Anchor3;
position = "{357, 0}";
},
{
name = Anchor7;
position = "{357, 213}";
}
);
background = {
shapes = (
{
closed = 1;
nodes = (
(437,551,l),
(527,551,l),
(527,622,l),
(0,622,l),
(0,551,l),
(357,551,l),
(357,426,l),
(336,365,o),
(282,284,o),
(159,284,cs),
(128,284,o),
(92,289,o),
(63,297,c),
(40,227,l),
(79,216,o),
(128,210,o),
(164,210,cs),
(232,210,o),
(300,221,o),
(357,286,c),
(357,0,l),
(437,0,l)
);
}
);
};
layerId = "A38B966D-CDEB-4149-A2FB-BDE2BCA6D0C9";
shapes = (
{
closed = 1;
nodes = (
(437,551,l),
(527,551,l),
(527,622,l),
(0,622,l),
(0,551,l),
(357,551,l),
(357,426,l),
(336,365,o),
(282,284,o),
(159,284,cs),
(128,284,o),
(92,289,o),
(63,297,c),
(40,227,l),
(79,216,o),
(128,210,o),
(164,210,cs),
(232,210,o),
(300,221,o),
(357,286,c),
(357,0,l),
(437,0,l)
);
}
);
width = 517;
}
);
},
{
glyphname = Dha.alt2;
layers = (
{
anchors = (
{
name = Anchor11;
position = "{552, 622}";
},
{
name = Anchor3;
position = "{472, 0}";
}
);
background = {
shapes = (
{
closed = 1;
nodes = (
(552,551,l),
(642,551,l),
(642,622,l),
(0,622,l),
(0,551,l),
(82,551,l),
(60,520,o),
(50,480,o),
(50,444,cs),
(50,352,o),
(89,270,o),
(174,250,c),
(160,226,o),
(155,200,o),
(155,175,cs),
(155,111,o),
(206,50,o),
(306,50,cs),
(361,50,o),
(423,69,o),
(472,119,c),
(472,0,l),
(552,0,l)
);
},
{
closed = 1;
nodes = (
(472,230,l),
(434,165,o),
(377,124,o),
(308,124,cs),
(263,124,o),
(235,151,o),
(235,181,cs),
(235,207,o),
(244,237,o),
(287,257,c),
(261,317,l),
(250,313,o),
(238,312,o),
(226,312,cs),
(186,312,o),
(148,332,o),
(139,371,c),
(153,366,o),
(169,363,o),
(188,363,cs),
(265,363,o),
(320,403,o),
(320,484,cs),
(320,511,o),
(313,533,o),
(301,551,c),
(472,551,l)
);
},
{
closed = 1;
nodes = (
(223,535,o),
(242,511,o),
(242,484,cs),
(242,448,o),
(214,431,o),
(187,431,cs),
(164,431,o),
(145,439,o),
(128,451,c),
(128,484,o),
(140,535,o),
(190,535,cs)
);
}
);
};
layerId = "A38B966D-CDEB-4149-A2FB-BDE2BCA6D0C9";
shapes = (
{
closed = 1;
nodes = (
(552,551,l),
(642,551,l),
(642,622,l),
(0,622,l),
(0,551,l),
(82,551,l),
(60,520,o),
(50,480,o),
(50,444,cs),
(50,352,o),
(89,270,o),
(174,250,c),
(160,226,o),
(155,200,o),
(155,175,cs),
(155,111,o),
(206,50,o),
(306,50,cs),
(361,50,o),
(423,69,o),
(472,119,c),
(472,0,l),
(552,0,l)
);
},
{
closed = 1;
nodes = (
(472,230,l),
(434,165,o),
(377,124,o),
(308,124,cs),
(263,124,o),
(235,151,o),
(235,181,cs),
(235,207,o),
(244,237,o),
(287,257,c),
(261,317,l),
(250,313,o),
(238,312,o),
(226,312,cs),
(186,312,o),
(148,332,o),
(139,371,c),
(153,366,o),
(169,363,o),
(188,363,cs),
(265,363,o),
(320,403,o),
(320,484,cs),
(320,511,o),
(313,533,o),
(301,551,c),
(472,551,l)
);
},
{
closed = 1;
nodes = (
(223,535,o),
(242,511,o),
(242,484,cs),
(242,448,o),
(214,431,o),
(187,431,cs),
(164,431,o),
(145,439,o),
(128,451,c),
(128,484,o),
(140,535,o),
(190,535,cs)
);
}
);
width = 632;
}
);
},
{
glyphname = Kaa;
layers = (
{
anchors = (
{
name = Anchor11;
position = "{711, 622}";
},
{
name = Anchor7;
position = "{602, 90}";
}
);
background = {
shapes = (
{
closed = 1;
nodes = (
(438,10,l),
(440,103,o),
(496,163,o),
(566,172,c),
(571,54,o),
(612,-10,o),
(688,-10,cs),
(773,-10,o),
(790,58,o),
(790,85,cs),
(790,146,o),
(748,222,o),
(648,242,c),
(652,318,o),
(667,424,o),
(711,551,c),
(820,551,l),
(820,622,l),
(0,622,l),
(0,551,l),
(101,551,l),
(57,493,o),
(40,452,o),
(40,395,cs),
(40,288,o),
(110,223,o),
(110,131,cs),
(110,107,o),
(106,74,o),
(99,41,c),
(95,28,o),
(91,14,o),
(88,0,c),
(165,0,l),
(189,115,o),
(260,174,o),
(308,174,cs),
(348,174,o),
(358,142,o),
(358,102,cs),
(358,0,l),
(438,0,l)
);
},
{
closed = 1;
nodes = (
(270,248,o),
(223,226,o),
(184,187,c),
(167,263,o),
(120,322,o),
(120,402,cs),
(120,444,o),
(133,487,o),
(199,551,c),
(629,551,l),
(597,454,o),
(575,334,o),
(568,247,c),
(505,242,o),
(460,216,o),
(428,176,c),
(410,221,o),
(371,248,o),
(317,248,cs)
);
},
{
closed = 1;
nodes = (
(715,81,o),
(707,60,o),
(689,60,cs),
(668,60,o),
(648,81,o),
(646,167,c),
(701,151,o),
(715,113,o),
(715,89,cs)
);
}
);
};
layerId = "A38B966D-CDEB-4149-A2FB-BDE2BCA6D0C9";
shapes = (
{
closed = 1;
nodes = (
(438,10,l),
(440,103,o),
(496,163,o),
(566,172,c),
(571,54,o),
(612,-10,o),
(688,-10,cs),
(773,-10,o),
(790,58,o),
(790,85,cs),
(790,146,o),
(748,222,o),
(648,242,c),
(652,318,o),
(667,424,o),
(711,551,c),
(820,551,l),
(820,622,l),
(0,622,l),
(0,551,l),
(101,551,l),
(57,493,o),
(40,452,o),
(40,395,cs),
(40,288,o),
(110,223,o),
(110,131,cs),
(110,107,o),
(106,74,o),
(99,41,c),
(95,28,o),
(91,14,o),
(88,0,c),
(165,0,l),
(189,115,o),
(260,174,o),
(308,174,cs),
(348,174,o),
(358,142,o),
(358,102,cs),
(358,0,l),
(438,0,l)
);
},
{
closed = 1;
nodes = (
(270,248,o),
(223,226,o),
(184,187,c),
(167,263,o),
(120,322,o),
(120,402,cs),
(120,444,o),
(133,487,o),
(199,551,c),
(629,551,l),
(597,454,o),
(575,334,o),
(568,247,c),
(505,242,o),
(460,216,o),
(428,176,c),
(410,221,o),
(371,248,o),
(317,248,cs)
);
},
{
closed = 1;
nodes = (
(715,81,o),
(707,60,o),
(689,60,cs),
(668,60,o),
(648,81,o),
(646,167,c),
(701,151,o),
(715,113,o),
(715,89,cs)
);
}
);
width = 810;
}
);
},
{
glyphname = Ku;
layers = (
{
anchors = (
{
name = Anchor7;
position = "{968, 90}";
}
);
background = {
shapes = (
{
closed = 1;
nodes = (
(540,622,l),
(206,622,l),
(245,684,o),
(305,726,o),
(393,726,cs),
(502,726,o),
(567,650,o),
(590,599,c),
(673,599,l),
(625,716,o),
(532,800,o),
(393,800,cs),
(272,800,o),
(178,731,o),
(121,622,c),
(0,622,l),
(0,551,l),
(91,551,l),
(71,488,o),
(60,417,o),
(60,340,cs),
(60,117,o),
(155,-10,o),
(299,-10,cs),
(419,-10,o),
(488,74,o),
(488,172,cs),
(488,239,o),
(457,287,o),
(392,318,c),
(435,347,o),
(465,394,o),
(465,464,cs),
(465,494,o),
(455,525,o),
(436,551,c),
(540,551,l)
);
},
{
closed = 1;
nodes = (
(254,274,l),
(258,274,o),
(262,274,o),
(266,275,c),
(367,275,o),
(408,238,o),
(408,170,cs),
(408,118,o),
(372,64,o),
(298,64,cs),
(226,64,o),
(141,140,o),
(141,338,cs),
(141,410,o),
(150,486,o),
(172,551,c),
(338,551,l),
(367,530,o),
(384,497,o),
(384,463,cs),
(384,403,o),
(357,344,o),
(272,344,cs),
(269,344,o),
(262,345,o),
(259,345,c)
);
},
{
closed = 1;
nodes = (
(530,551,l),
(609,551,l),
(631,464,o),
(641,362,o),
(641,284,cs),
(641,191,o),
(631,110,o),
(615,49,c),
(609,34,o),
(604,17,o),
(599,0,c),
(676,0,l),
(709,141,o),
(812,176,o),
(932,178,c),
(935,56,o),
(977,-10,o),
(1054,-10,cs),
(1139,-10,o),
(1156,58,o),
(1156,85,cs),
(1156,143,o),
(1108,214,o),
(1013,239,c),
(1017,314,o),
(1032,422,o),
(1077,551,c),
(1186,551,l),
(1186,622,l),
(530,622,l)
);
},
{
closed = 1;
nodes = (
(845,247,o),
(770,228,o),
(712,184,c),
(717,216,o),
(721,249,o),
(721,275,cs),
(721,358,o),
(711,451,o),
(692,551,c),
(995,551,l),
(964,455,o),
(942,335,o),
(934,248,c)
);
},
{
closed = 1;
nodes = (
(1081,81,o),
(1073,60,o),
(1055,60,cs),
(1034,60,o),
(1014,81,o),
(1012,167,c),
(1063,149,o),
(1081,112,o),
(1081,89,cs)
);
}
);
};
layerId = "A38B966D-CDEB-4149-A2FB-BDE2BCA6D0C9";
shapes = (
{
closed = 1;
nodes = (
(540,622,l),
(206,622,l),
(245,684,o),
(305,726,o),
(393,726,cs),
(502,726,o),
(567,650,o),
(590,599,c),
(673,599,l),
(625,716,o),
(532,800,o),
(393,800,cs),
(272,800,o),
(178,731,o),
(121,622,c),
(0,622,l),
(0,551,l),
(91,551,l),
(71,488,o),
(60,417,o),
(60,340,cs),
(60,117,o),
(155,-10,o),
(299,-10,cs),
(419,-10,o),
(488,74,o),
(488,172,cs),
(488,239,o),
(457,287,o),
(392,318,c),
(435,347,o),
(465,394,o),
(465,464,cs),
(465,494,o),
(455,525,o),
(436,551,c),
(540,551,l)
);
},
{
closed = 1;
nodes = (
(254,274,l),
(258,274,o),
(262,274,o),
(266,275,c),
(367,275,o),
(408,238,o),
(408,170,cs),
(408,118,o),
(372,64,o),
(298,64,cs),
(226,64,o),
(141,140,o),
(141,338,cs),
(141,410,o),
(150,486,o),
(172,551,c),
(338,551,l),
(367,530,o),
(384,497,o),
(384,463,cs),
(384,403,o),
(357,344,o),
(272,344,cs),
(269,344,o),
(262,345,o),
(259,345,c)
);
},
{
closed = 1;
nodes = (
(530,551,l),
(609,551,l),
(631,464,o),
(641,362,o),
(641,284,cs),
(641,191,o),
(631,110,o),
(615,49,c),
(609,34,o),
(604,17,o),
(599,0,c),
(676,0,l),
(709,141,o),
(812,176,o),
(932,178,c),
(935,56,o),
(977,-10,o),
(1054,-10,cs),
(1139,-10,o),
(1156,58,o),
(1156,85,cs),
(1156,143,o),
(1108,214,o),
(1013,239,c),
(1017,314,o),
(1032,422,o),
(1077,551,c),
(1186,551,l),
(1186,622,l),
(530,622,l)
);
},
{
closed = 1;
nodes = (
(845,247,o),
(770,228,o),
(712,184,c),
(717,216,o),
(721,249,o),
(721,275,cs),
(721,358,o),
(711,451,o),
(692,551,c),
(995,551,l),
(964,455,o),
(942,335,o),
(934,248,c)
);
},
{
closed = 1;
nodes = (
(1081,81,o),
(1073,60,o),
(1055,60,cs),
(1034,60,o),
(1014,81,o),
(1012,167,c),
(1063,149,o),
(1081,112,o),
(1081,89,cs)
);
}
);
width = 1176;
}
);
},
{
glyphname = Khaa;
layers = (
{
anchors = (
{
name = Anchor11;
position = "{819, 622}";
},
{
name = Anchor7;
position = "{710, 90}";
}
);
background = {
shapes = (
{
closed = 1;
nodes = (
(928,622,l),
(293,622,l),
(296,639,o),
(298,658,o),
(298,679,cs),
(298,744,o),
(256,800,o),
(166,800,cs),
(120,800,o),
(79,787,o),
(40,732,c),
(101,692,l),
(113,710,o),
(139,728,o),
(164,728,cs),
(209,728,o),
(218,698,o),
(218,675,cs),
(218,656,o),
(216,638,o),
(212,622,c),
(0,622,l),
(0,551,l),
(187,551,l),
(143,460,o),
(66,390,o),
(66,276,cs),
(66,181,o),
(127,120,o),
(223,120,cs),
(245,120,o),
(267,123,o),
(290,133,c),
(295,52,o),
(344,-10,o),
(440,-10,cs),
(520,-10,o),
(559,15,o),
(641,166,c),
(652,169,o),
(663,172,o),
(674,173,c),
(678,55,o),
(720,-10,o),
(796,-10,cs),
(881,-10,o),
(898,58,o),
(898,85,cs),
(898,146,o),
(856,222,o),
(756,242,c),
(760,318,o),
(775,424,o),
(819,551,c),
(928,551,l)
);
},
{
closed = 1;
nodes = (
(348,316,l),
(300,222,o),
(266,194,o),
(220,194,cs),
(172,194,o),
(146,229,o),
(146,282,cs),
(146,392,o),
(227,453,o),
(271,551,c),
(737,551,l),
(705,454,o),
(683,334,o),
(676,247,c),
(645,244,o),
(610,238,o),
(585,228,c),
(582,221,o),
(566,185,o),
(547,146,cs),
(527,105,o),
(492,64,o),
(444,64,cs),
(390,64,o),
(378,105,o),
(378,153,cs),
(378,183,o),
(386,216,o),
(402,247,cs),
(421,284,l)
);
},
{
closed = 1;
nodes = (
(823,81,o),
(815,60,o),
(797,60,cs),
(776,60,o),
(756,81,o),
(754,167,c),
(809,151,o),
(823,113,o),
(823,89,cs)
);
}
);
};
layerId = "A38B966D-CDEB-4149-A2FB-BDE2BCA6D0C9";
shapes = (
{
closed = 1;
nodes = (
(928,622,l),
(293,622,l),
(296,639,o),
(298,658,o),
(298,679,cs),
(298,744,o),
(256,800,o),
(166,800,cs),
(120,800,o),
(79,787,o),
(40,732,c),
(101,692,l),
(113,710,o),
(139,728,o),
(164,728,cs),
(209,728,o),
(218,698,o),
(218,675,cs),
(218,656,o),
(216,638,o),
(212,622,c),
(0,622,l),
(0,551,l),
(187,551,l),
(143,460,o),
(66,390,o),
(66,276,cs),
(66,181,o),
(127,120,o),
(223,120,cs),
(245,120,o),
(267,123,o),
(290,133,c),
(295,52,o),
(344,-10,o),
(440,-10,cs),
(520,-10,o),
(559,15,o),
(641,166,c),
(652,169,o),
(663,172,o),
(674,173,c),
(678,55,o),
(720,-10,o),
(796,-10,cs),
(881,-10,o),
(898,58,o),
(898,85,cs),
(898,146,o),
(856,222,o),
(756,242,c),
(760,318,o),
(775,424,o),
(819,551,c),
(928,551,l)
);
},
{
closed = 1;
nodes = (
(348,316,l),
(300,222,o),
(266,194,o),
(220,194,cs),
(172,194,o),
(146,229,o),
(146,282,cs),
(146,392,o),
(227,453,o),
(271,551,c),
(737,551,l),
(705,454,o),
(683,334,o),
(676,247,c),
(645,244,o),
(610,238,o),
(585,228,c),
(582,221,o),
(566,185,o),
(547,146,cs),
(527,105,o),
(492,64,o),
(444,64,cs),
(390,64,o),
(378,105,o),
(378,153,cs),
(378,183,o),
(386,216,o),
(402,247,cs),
(421,284,l)
);
},
{
closed = 1;
nodes = (
(823,81,o),
(815,60,o),
(797,60,cs),
(776,60,o),
(756,81,o),
(754,167,c),
(809,151,o),
(823,113,o),
(823,89,cs)
);
}
);
width = 918;
}
);
},
{
glyphname = Kha.alt;
layers = (
{
anchors = (
{
name = Anchor11;
position = "{421, 622}";
}
);
background = {
shapes = (
{
closed = 1;
nodes = (
(540,622,l),
(0,622,l),
(0,551,l),
(91,551,l),
(70,488,o),
(60,416,o),
(60,340,cs),
(60,117,o),
(155,-10,o),
(299,-10,cs),
(419,-10,o),
(488,74,o),
(488,172,cs),
(488,239,o),
(457,287,o),
(392,318,c),
(435,347,o),
(465,394,o),
(465,464,cs),
(465,494,o),
(455,525,o),
(436,551,c),
(540,551,l)
);
},
{
closed = 1;
nodes = (
(254,274,l),
(264,275,o),
(268,275,o),
(275,275,cs),
(345,275,o),
(408,250,o),
(408,170,cs),
(408,118,o),
(372,64,o),
(298,64,cs),
(226,64,o),
(141,140,o),
(141,338,cs),
(141,410,o),
(149,486,o),
(172,551,c),
(338,551,l),
(367,530,o),
(384,497,o),
(384,463,cs),
(384,403,o),
(357,344,o),
(272,344,cs),
(269,344,o),
(262,345,o),
(259,345,c)
);
},
{
closed = 1;
nodes = (
(499,422,o),
(475,398,o),
(475,367,cs),
(475,338,o),
(499,312,o),
(527,312,cs),
(555,312,o),
(579,338,o),
(579,367,cs),
(579,398,o),
(555,422,o),
(527,422,cs)
);
}
);
};
layerId = "A38B966D-CDEB-4149-A2FB-BDE2BCA6D0C9";
shapes = (
{
closed = 1;
nodes = (
(540,622,l),
(0,622,l),
(0,551,l),
(91,551,l),
(70,488,o),
(60,416,o),
(60,340,cs),
(60,117,o),
(155,-10,o),
(299,-10,cs),
(419,-10,o),
(488,74,o),
(488,172,cs),
(488,239,o),
(457,287,o),
(392,318,c),
(435,347,o),
(465,394,o),
(465,464,cs),
(465,494,o),
(455,525,o),
(436,551,c),
(540,551,l)
);
},
{
closed = 1;
nodes = (
(254,274,l),
(264,275,o),
(268,275,o),
(275,275,cs),
(345,275,o),
(408,250,o),
(408,170,cs),
(408,118,o),
(372,64,o),
(298,64,cs),
(226,64,o),
(141,140,o),
(141,338,cs),
(141,410,o),
(149,486,o),
(172,551,c),
(338,551,l),
(367,530,o),
(384,497,o),
(384,463,cs),
(384,403,o),
(357,344,o),
(272,344,cs),
(269,344,o),
(262,345,o),
(259,345,c)
);
},
{
closed = 1;
nodes = (
(499,422,o),
(475,398,o),
(475,367,cs),
(475,338,o),
(499,312,o),
(527,312,cs),
(555,312,o),
(579,338,o),
(579,367,cs),
(579,398,o),
(555,422,o),
(527,422,cs)
);
}
);
width = 390;
}
);
},
{
glyphname = U.alt3;
layers = (
{
anchors = (
{
name = Anchor13;
position = "{487, 758}";
},
{
name = Anchor15;
position = "{232, 880}";
}
);
background = {
shapes = (
{
closed = 1;
nodes = (
(557,622,l),
(457,622,l),
(424,726,o),
(357,800,o),
(232,800,cs),
(112,800,o),
(37,722,o),
(-5,622,c),
(-50,622,l),
(-50,551,l),
(-28,551,l),
(-41,500,o),
(-47,448,o),
(-47,400,cs),
(-47,260,o),
(7,100,o),
(164,100,cs),
(270,100,o),
(320,167,o),
(320,231,cs),
(320,259,o),
(305,296,o),
(266,320,c),
(294,342,o),
(311,373,o),
(311,404,cs),
(311,463,o),
(265,520,o),
(176,520,cs),
(138,520,o),
(89,504,o),
(58,486,c),
(92,429,l),
(112,442,o),
(148,453,o),
(178,453,cs),
(217,453,o),
(232,429,o),
(232,403,cs),
(232,373,o),
(208,343,o),
(159,342,c),
(159,285,l),
(166,285,o),
(174,285,o),
(181,286,c),
(232,279,o),
(243,248,o),
(243,229,cs),
(243,187,o),
(215,167,o),
(169,167,cs),
(107,167,o),
(31,211,o),
(31,399,cs),
(31,445,o),
(36,500,o),
(50,551,c),
(394,551,l),
(405,495,o),
(407,434,o),
(407,381,cs),
(407,293,o),
(395,198,o),
(376,116,c),
(452,94,l),
(474,187,o),
(487,290,o),
(487,382,cs),
(487,440,o),
(483,498,o),
(474,551,c),
(557,551,l)
);
},
{
closed = 1;
nodes = (
(307,726,o),
(350,683,o),
(374,622,c),
(78,622,l),
(109,682,o),
(157,726,o),
(232,726,cs)
);
}
);
};
layerId = "A38B966D-CDEB-4149-A2FB-BDE2BCA6D0C9";
shapes = (
{
closed = 1;
nodes = (
(557,622,l),
(457,622,l),
(424,726,o),
(357,800,o),
(232,800,cs),
(112,800,o),
(37,722,o),
(-5,622,c),
(-50,622,l),
(-50,551,l),
(-28,551,l),
(-41,500,o),
(-47,448,o),
(-47,400,cs),
(-47,260,o),
(7,100,o),
(164,100,cs),
(270,100,o),
(320,167,o),
(320,231,cs),
(320,259,o),
(305,296,o),
(266,320,c),
(294,342,o),
(311,373,o),
(311,404,cs),
(311,463,o),
(265,520,o),
(176,520,cs),
(138,520,o),
(89,504,o),
(58,486,c),
(92,429,l),
(112,442,o),
(148,453,o),
(178,453,cs),
(217,453,o),
(232,429,o),
(232,403,cs),
(232,373,o),
(208,343,o),
(159,342,c),
(159,285,l),
(166,285,o),
(174,285,o),
(181,286,c),
(232,279,o),
(243,248,o),
(243,229,cs),
(243,187,o),
(215,167,o),
(169,167,cs),
(107,167,o),
(31,211,o),
(31,399,cs),
(31,445,o),
(36,500,o),
(50,551,c),
(394,551,l),
(405,495,o),
(407,434,o),
(407,381,cs),
(407,293,o),
(395,198,o),
(376,116,c),
(452,94,l),
(474,187,o),
(487,290,o),
(487,382,cs),
(487,440,o),
(483,498,o),
(474,551,c),
(557,551,l)
);
},
{
closed = 1;
nodes = (
(307,726,o),
(350,683,o),
(374,622,c),
(78,622,l),
(109,682,o),
(157,726,o),
(232,726,cs)
);
}
);
width = 547;
}
);
},
{
glyphname = UU.alt1;
layers = (
{
anchors = (
{
name = Anchor13;
position = "{552, 758}";
},
{
name = Anchor15;
position = "{261, 880}";
}
);
background = {
shapes = (
{
closed = 1;
nodes = (
(470,551,l),
(475,536,o),
(479,520,o),
(482,504,c),
(422,456,o),
(344,365,o),
(344,239,cs),
(344,166,o),
(367,100,o),
(452,100,cs),
(566,100,o),
(572,272,o),
(572,349,cs),
(572,413,o),
(564,484,o),
(545,551,c),
(632,551,l),
(632,622,l),
(519,622,l),
(473,723,o),
(393,800,o),
(261,800,cs),
(136,800,o),
(52,721,o),
(3,622,c),
(-50,622,l),
(-50,551,l),
(-24,551,l),
(-40,500,o),
(-47,448,o),
(-47,400,cs),
(-47,260,o),
(7,100,o),
(164,100,cs),
(270,100,o),
(320,167,o),
(320,231,cs),
(320,259,o),
(305,296,o),
(266,320,c),
(294,342,o),
(311,373,o),
(311,404,cs),
(311,463,o),
(265,520,o),
(176,520,cs),
(138,520,o),
(89,504,o),
(58,486,c),
(92,429,l),
(112,442,o),
(148,453,o),
(178,453,cs),
(217,453,o),
(232,429,o),
(232,403,cs),
(232,373,o),
(208,343,o),
(159,342,c),
(159,285,l),
(166,285,o),
(174,285,o),
(181,286,c),
(232,279,o),
(243,248,o),
(243,229,cs),
(243,187,o),
(215,167,o),
(169,167,cs),
(107,167,o),
(31,211,o),
(31,399,cs),
(31,445,o),
(39,500,o),
(56,551,c)
);
},
{
closed = 1;
nodes = (
(345,726,o),
(401,683,o),
(438,622,c),
(90,622,l),
(127,682,o),
(182,726,o),
(260,726,cs)
);
},
{
closed = 1;
nodes = (
(497,296,o),
(484,170,o),
(451,170,cs),
(426,170,o),
(421,202,o),
(421,235,cs),
(421,280,o),
(447,370,o),
(495,416,c),
(496,398,o),
(497,380,o),
(497,363,cs)
);
}
);
};
layerId = "A38B966D-CDEB-4149-A2FB-BDE2BCA6D0C9";
shapes = (
{
closed = 1;
nodes = (
(470,551,l),
(475,536,o),
(479,520,o),
(482,504,c),
(422,456,o),
(344,365,o),
(344,239,cs),
(344,166,o),
(367,100,o),
(452,100,cs),
(566,100,o),
(572,272,o),
(572,349,cs),
(572,413,o),
(564,484,o),
(545,551,c),
(632,551,l),
(632,622,l),
(519,622,l),
(473,723,o),
(393,800,o),
(261,800,cs),
(136,800,o),
(52,721,o),
(3,622,c),
(-50,622,l),
(-50,551,l),
(-24,551,l),
(-40,500,o),
(-47,448,o),
(-47,400,cs),
(-47,260,o),
(7,100,o),
(164,100,cs),
(270,100,o),
(320,167,o),
(320,231,cs),
(320,259,o),
(305,296,o),
(266,320,c),
(294,342,o),
(311,373,o),
(311,404,cs),
(311,463,o),
(265,520,o),
(176,520,cs),
(138,520,o),
(89,504,o),
(58,486,c),
(92,429,l),
(112,442,o),
(148,453,o),
(178,453,cs),
(217,453,o),
(232,429,o),
(232,403,cs),
(232,373,o),
(208,343,o),
(159,342,c),
(159,285,l),
(166,285,o),
(174,285,o),
(181,286,c),
(232,279,o),
(243,248,o),
(243,229,cs),
(243,187,o),
(215,167,o),
(169,167,cs),
(107,167,o),
(31,211,o),
(31,399,cs),
(31,445,o),
(39,500,o),
(56,551,c)
);
},
{
closed = 1;
nodes = (
(345,726,o),
(401,683,o),
(438,622,c),
(90,622,l),
(127,682,o),
(182,726,o),
(260,726,cs)
);
},
{
closed = 1;
nodes = (
(497,296,o),
(484,170,o),
(451,170,cs),
(426,170,o),
(421,202,o),
(421,235,cs),
(421,280,o),
(447,370,o),
(495,416,c),
(496,398,o),
(497,380,o),
(497,363,cs)
);
}
);
width = 622;
}
);
},
{
glyphname = Ca.alt;
layers = (
{
anchors = (
{
name = Anchor11;
position = "{662, 622}";
}
);
background = {
shapes = (
{
closed = 1;
nodes = (
(670,622,l),
(0,622,l),
(0,551,l),
(587,551,l),
(563,488,o),
(507,364,o),
(382,364,cs),
(379,364,o),
(372,365,o),
(369,365,c),
(364,295,l),
(457,292,o),
(493,237,o),
(493,181,cs),
(493,123,o),
(451,64,o),
(385,64,cs),
(256,64,o),
(217,231,o),
(72,231,cs),
(45,231,o),
(29,226,o),
(10,218,c),
(31,150,l),
(45,155,o),
(58,159,o),
(72,159,cs),
(171,159,o),
(216,-10,o),
(383,-10,cs),
(503,-10,o),
(573,72,o),
(573,180,cs),
(573,236,o),
(549,289,o),
(496,326,c),
(593,376,o),
(639,478,o),
(662,551,c),
(670,551,l)
);
}
);
};
layerId = "A38B966D-CDEB-4149-A2FB-BDE2BCA6D0C9";
shapes = (
{
closed = 1;
nodes = (
(670,622,l),
(0,622,l),
(0,551,l),
(587,551,l),
(563,488,o),
(507,364,o),
(382,364,cs),
(379,364,o),
(372,365,o),
(369,365,c),
(364,295,l),
(457,292,o),
(493,237,o),
(493,181,cs),
(493,123,o),
(451,64,o),
(385,64,cs),
(256,64,o),
(217,231,o),
(72,231,cs),
(45,231,o),
(29,226,o),
(10,218,c),
(31,150,l),
(45,155,o),
(58,159,o),
(72,159,cs),
(171,159,o),
(216,-10,o),
(383,-10,cs),
(503,-10,o),
(573,72,o),
(573,180,cs),
(573,236,o),
(549,289,o),
(496,326,c),
(593,376,o),
(639,478,o),
(662,551,c),
(670,551,l)
);
}
);
width = 635;
}
);
},
{
glyphname = Guu;
layers = (
{
anchors = (
{
name = Anchor7;
position = "{484, 90}";
}
);
background = {
shapes = (
{
closed = 1;
nodes = (
(747,622,l),
(625,622,l),
(578,725,o),
(499,800,o),
(368,800,cs),
(243,800,o),
(159,721,o),
(110,622,c),
(0,622,l),
(0,551,l),
(82,551,l),
(67,500,o),
(60,448,o),
(60,400,cs),
(60,260,o),
(114,98,o),
(271,98,cs),
(377,98,o),
(417,167,o),
(417,231,cs),
(417,268,o),
(392,351,o),
(256,351,cs),
(249,351,o),
(246,351,o),
(236,350,c),
(231,287,l),
(245,287,ls),
(337,287,o),
(340,250,o),
(340,229,cs),
(340,187,o),
(314,165,o),
(276,165,cs),
(214,165,o),
(138,211,o),
(138,399,cs),
(138,445,o),
(146,500,o),
(163,551,c),
(574,551,l),
(580,533,o),
(585,515,o),
(589,496,c),
(506,412,o),
(448,250,o),
(448,139,cs),
(448,46,o),
(484,-10,o),
(552,-10,cs),
(672,-10,o),
(687,160,o),
(687,264,cs),
(687,354,o),
(679,459,o),
(651,551,c),
(747,551,l)
);
},
{
closed = 1;
nodes = (
(450,726,o),
(506,683,o),
(542,622,c),
(197,622,l),
(234,682,o),
(289,726,o),
(367,726,cs)
);
},
{
closed = 1;
nodes = (
(611,161,o),
(592,60,o),
(556,60,cs),
(543,60,o),
(528,75,o),
(528,134,cs),
(528,190,o),
(541,314,o),
(605,401,c),
(609,358,o),
(611,316,o),
(611,280,cs)
);
},
{
closed = 1;
nodes = (
(276,510,o),
(252,486,o),
(252,455,cs),
(252,426,o),
(276,400,o),
(304,400,cs),
(332,400,o),
(356,426,o),
(356,455,cs),
(356,486,o),
(332,510,o),
(304,510,cs)
);
}
);
};
layerId = "A38B966D-CDEB-4149-A2FB-BDE2BCA6D0C9";
shapes = (
{
closed = 1;
nodes = (
(747,622,l),
(625,622,l),
(578,725,o),
(499,800,o),
(368,800,cs),
(243,800,o),
(159,721,o),
(110,622,c),
(0,622,l),
(0,551,l),
(82,551,l),
(67,500,o),
(60,448,o),
(60,400,cs),
(60,260,o),
(114,98,o),
(271,98,cs),
(377,98,o),
(417,167,o),
(417,231,cs),
(417,268,o),
(392,351,o),
(256,351,cs),
(249,351,o),
(246,351,o),
(236,350,c),
(231,287,l),
(245,287,ls),
(337,287,o),
(340,250,o),
(340,229,cs),
(340,187,o),
(314,165,o),
(276,165,cs),
(214,165,o),
(138,211,o),
(138,399,cs),
(138,445,o),
(146,500,o),
(163,551,c),
(574,551,l),
(580,533,o),
(585,515,o),
(589,496,c),
(506,412,o),
(448,250,o),
(448,139,cs),
(448,46,o),
(484,-10,o),
(552,-10,cs),
(672,-10,o),
(687,160,o),
(687,264,cs),
(687,354,o),
(679,459,o),
(651,551,c),
(747,551,l)
);
},
{
closed = 1;
nodes = (
(450,726,o),
(506,683,o),
(542,622,c),
(197,622,l),
(234,682,o),
(289,726,o),
(367,726,cs)
);
},
{
closed = 1;
nodes = (
(611,161,o),
(592,60,o),
(556,60,cs),
(543,60,o),
(528,75,o),
(528,134,cs),
(528,190,o),
(541,314,o),
(605,401,c),
(609,358,o),
(611,316,o),
(611,280,cs)
);
},
{
closed = 1;
nodes = (
(276,510,o),
(252,486,o),
(252,455,cs),
(252,426,o),
(276,400,o),
(304,400,cs),
(332,400,o),
(356,426,o),
(356,455,cs),
(356,486,o),
(332,510,o),
(304,510,cs)
);
}
);
width = 737;
}
);
},
{
glyphname = Jaa;
layers = (
{
anchors = (
{
name = Anchor11;
position = "{647, 622}";
},
{
name = Anchor7;
position = "{538, 90}";
}
);
background = {
shapes = (
{
closed = 1;
nodes = (
(298,42,l),
(340,146,o),
(444,175,o),
(502,178,c),
(505,56,o),
(547,-10,o),
(624,-10,cs),
(709,-10,o),
(726,58,o),
(726,85,cs),
(726,143,o),
(678,214,o),
(583,239,c),
(587,314,o),
(602,422,o),
(647,551,c),
(756,551,l),
(756,622,l),
(0,622,l),
(0,551,l),
(565,551,l),
(534,455,o),
(512,335,o),
(504,248,c),
(433,246,o),
(373,224,o),
(327,190,c),
(330,220,o),
(332,247,o),
(332,270,cs),
(332,455,o),
(249,520,o),
(175,520,cs),
(96,520,o),
(40,475,o),
(40,390,cs),
(40,313,o),
(95,257,o),
(168,257,cs),
(203,257,o),
(232,267,o),
(252,280,c),
(252,275,ls),
(252,201,o),
(242,107,o),
(209,0,c),
(286,0,l)
);
},
{
closed = 1;
nodes = (
(151,329,o),
(115,342,o),
(115,389,cs),
(115,426,o),
(140,448,o),
(171,448,cs),
(202,448,o),
(232,425,o),
(245,357,c),
(226,340,o),
(203,329,o),
(174,329,cs)
);
},
{
closed = 1;
nodes = (
(651,81,o),
(643,60,o),
(625,60,cs),
(604,60,o),
(584,81,o),
(582,167,c),
(633,149,o),
(651,112,o),
(651,89,cs)
);
}
);
};
layerId = "A38B966D-CDEB-4149-A2FB-BDE2BCA6D0C9";
shapes = (
{
closed = 1;
nodes = (
(298,42,l),
(340,146,o),
(444,175,o),
(502,178,c),
(505,56,o),
(547,-10,o),
(624,-10,cs),
(709,-10,o),
(726,58,o),
(726,85,cs),
(726,143,o),
(678,214,o),
(583,239,c),
(587,314,o),
(602,422,o),
(647,551,c),
(756,551,l),
(756,622,l),
(0,622,l),
(0,551,l),
(565,551,l),
(534,455,o),
(512,335,o),
(504,248,c),
(433,246,o),
(373,224,o),
(327,190,c),
(330,220,o),
(332,247,o),
(332,270,cs),
(332,455,o),
(249,520,o),
(175,520,cs),
(96,520,o),
(40,475,o),
(40,390,cs),
(40,313,o),
(95,257,o),
(168,257,cs),
(203,257,o),
(232,267,o),
(252,280,c),
(252,275,ls),
(252,201,o),
(242,107,o),
(209,0,c),
(286,0,l)
);
},
{
closed = 1;
nodes = (
(151,329,o),
(115,342,o),
(115,389,cs),
(115,426,o),
(140,448,o),
(171,448,cs),
(202,448,o),
(232,425,o),
(245,357,c),
(226,340,o),
(203,329,o),
(174,329,cs)
);
},
{
closed = 1;
nodes = (
(651,81,o),
(643,60,o),
(625,60,cs),
(604,60,o),
(584,81,o),
(582,167,c),
(633,149,o),
(651,112,o),
(651,89,cs)
);
}
);
width = 746;
}
);
},
{
glyphname = Ju;
layers = (
{
anchors = (
{
name = Anchor7;
position = "{567, 50}";
}
);
background = {
shapes = (
{
closed = 1;
nodes = (
(-50,55,l),
(1,-34,o),
(91,-140,o),
(200,-140,cs),
(320,-140,o),
(380,-63,o),
(380,31,cs),
(380,78,o),
(358,124,o),
(312,156,c),
(342,167,o),
(380,177,o),
(442,178,c),
(445,56,o),
(487,-10,o),
(564,-10,cs),
(649,-10,o),
(666,58,o),
(666,85,cs),
(666,143,o),
(618,214,o),
(523,239,c),
(527,314,o),
(542,422,o),
(587,551,c),
(696,551,l),
(696,622,l),
(0,622,l),
(0,551,l),
(505,551,l),
(474,455,o),
(452,335,o),
(444,248,c),
(383,247,o),
(336,238,o),
(296,223,c),
(316,260,o),
(326,301,o),
(326,342,cs),
(326,436,o),
(273,520,o),
(175,520,cs),
(96,520,o),
(40,467,o),
(40,390,cs),
(40,313,o),
(95,257,o),
(168,257,cs),
(196,257,o),
(220,264,o),
(239,273,c),
(229,240,o),
(209,211,o),
(179,198,c),
(169,133,l),
(275,126,o),
(300,90,o),
(300,33,cs),
(300,-24,o),
(268,-66,o),
(202,-66,cs),
(126,-66,o),
(59,9,o),
(9,92,c)
);
},
{
closed = 1;
nodes = (
(151,329,o),
(115,342,o),
(115,389,cs),
(115,418,o),
(136,448,o),
(179,448,cs),
(223,448,o),
(246,410,o),
(249,361,c),
(230,342,o),
(205,329,o),
(174,329,cs)
);
},
{
closed = 1;
nodes = (
(591,81,o),
(583,60,o),
(565,60,cs),
(544,60,o),
(524,81,o),
(522,167,c),
(573,149,o),
(591,112,o),
(591,89,cs)
);
}
);
};
layerId = "A38B966D-CDEB-4149-A2FB-BDE2BCA6D0C9";
shapes = (
{
closed = 1;
nodes = (
(-50,55,l),
(1,-34,o),
(91,-140,o),
(200,-140,cs),
(320,-140,o),
(380,-63,o),
(380,31,cs),
(380,78,o),
(358,124,o),
(312,156,c),
(342,167,o),
(380,177,o),
(442,178,c),
(445,56,o),
(487,-10,o),
(564,-10,cs),
(649,-10,o),
(666,58,o),
(666,85,cs),
(666,143,o),
(618,214,o),
(523,239,c),
(527,314,o),
(542,422,o),
(587,551,c),
(696,551,l),
(696,622,l),
(0,622,l),
(0,551,l),
(505,551,l),
(474,455,o),
(452,335,o),
(444,248,c),
(383,247,o),
(336,238,o),
(296,223,c),
(316,260,o),
(326,301,o),
(326,342,cs),
(326,436,o),
(273,520,o),
(175,520,cs),
(96,520,o),
(40,467,o),
(40,390,cs),
(40,313,o),
(95,257,o),
(168,257,cs),
(196,257,o),
(220,264,o),
(239,273,c),
(229,240,o),
(209,211,o),
(179,198,c),
(169,133,l),
(275,126,o),
(300,90,o),
(300,33,cs),
(300,-24,o),
(268,-66,o),
(202,-66,cs),
(126,-66,o),
(59,9,o),
(9,92,c)
);
},
{
closed = 1;
nodes = (
(151,329,o),
(115,342,o),
(115,389,cs),
(115,418,o),
(136,448,o),
(179,448,cs),
(223,448,o),
(246,410,o),
(249,361,c),
(230,342,o),
(205,329,o),
(174,329,cs)
);
},
{
closed = 1;
nodes = (
(591,81,o),
(583,60,o),
(565,60,cs),
(544,60,o),
(524,81,o),
(522,167,c),
(573,149,o),
(591,112,o),
(591,89,cs)
);
}
);
width = 686;
}
);
},
{
glyphname = Jhaa;
layers = (
{
anchors = (
{
name = Anchor11;
position = "{851, 622}";
},
{
name = Anchor7;
position = "{742, 90}";
}
);
background = {
shapes = (
{
closed = 1;
nodes = (
(0,551,l),
(161,551,l),
(100,504,o),
(60,449,o),
(60,386,cs),
(60,312,o),
(120,278,o),
(169,278,cs),
(199,278,o),
(215,287,o),
(253,287,cs),
(294,287,o),
(306,255,o),
(306,216,cs),
(306,189,o),
(288,157,o),
(262,129,c),
(224,168,o),
(182,195,o),
(124,195,cs),
(87,195,o),
(5,179,o),
(5,88,cs),
(5,29,o),
(61,-10,o),
(120,-10,cs),
(221,-10,o),
(320,55,o),
(364,132,c),
(391,160,o),
(424,174,o),
(448,174,cs),
(488,174,o),
(498,142,o),
(498,102,cs),
(498,0,l),
(578,0,l),
(578,4,ls),
(578,97,o),
(635,163,o),
(706,172,c),
(711,54,o),
(752,-10,o),
(828,-10,cs),
(913,-10,o),
(930,58,o),
(930,85,cs),
(930,145,o),
(885,221,o),
(788,242,c),
(792,318,o),
(807,424,o),
(851,551,c),
(960,551,l),
(960,622,l),
(0,622,l)
);
},
{
closed = 1;
nodes = (
(651,241,o),
(603,216,o),
(568,174,c),
(551,220,o),
(512,248,o),
(457,248,cs),
(434,248,o),
(409,243,o),
(386,233,c),
(379,311,o),
(331,357,o),
(262,357,cs),
(225,357,o),
(207,348,o),
(188,348,cs),
(163,348,o),
(140,358,o),
(140,388,cs),
(140,434,o),
(189,499,o),
(289,551,c),
(769,551,l),
(737,454,o),
(715,333,o),
(708,246,c)
);
},
{
closed = 1;
nodes = (
(95,60,o),
(81,77,o),
(81,90,cs),
(81,116,o),
(106,125,o),
(128,125,cs),
(152,125,o),
(177,108,o),
(203,83,c),
(178,69,o),
(152,60,o),
(127,60,cs)
);
},
{
closed = 1;
nodes = (
(855,81,o),
(847,60,o),
(829,60,cs),
(808,60,o),
(788,81,o),
(786,167,c),
(842,151,o),
(855,114,o),
(855,89,cs)
);
}
);
};
layerId = "A38B966D-CDEB-4149-A2FB-BDE2BCA6D0C9";
shapes = (
{
closed = 1;
nodes = (
(0,551,l),
(161,551,l),
(100,504,o),
(60,449,o),
(60,386,cs),
(60,312,o),
(120,278,o),
(169,278,cs),
(199,278,o),
(215,287,o),
(253,287,cs),
(294,287,o),
(306,255,o),
(306,216,cs),
(306,189,o),
(288,157,o),
(262,129,c),
(224,168,o),
(182,195,o),
(124,195,cs),
(87,195,o),
(5,179,o),
(5,88,cs),
(5,29,o),
(61,-10,o),
(120,-10,cs),
(221,-10,o),
(320,55,o),
(364,132,c),
(391,160,o),
(424,174,o),
(448,174,cs),
(488,174,o),
(498,142,o),
(498,102,cs),
(498,0,l),
(578,0,l),
(578,4,ls),
(578,97,o),
(635,163,o),
(706,172,c),
(711,54,o),
(752,-10,o),
(828,-10,cs),
(913,-10,o),
(930,58,o),
(930,85,cs),
(930,145,o),
(885,221,o),
(788,242,c),
(792,318,o),
(807,424,o),
(851,551,c),
(960,551,l),
(960,622,l),
(0,622,l)
);
},
{
closed = 1;
nodes = (
(651,241,o),
(603,216,o),
(568,174,c),
(551,220,o),
(512,248,o),
(457,248,cs),
(434,248,o),
(409,243,o),
(386,233,c),
(379,311,o),
(331,357,o),
(262,357,cs),
(225,357,o),
(207,348,o),
(188,348,cs),
(163,348,o),
(140,358,o),
(140,388,cs),
(140,434,o),
(189,499,o),
(289,551,c),
(769,551,l),
(737,454,o),
(715,333,o),
(708,246,c)
);
},
{
closed = 1;
nodes = (
(95,60,o),
(81,77,o),
(81,90,cs),
(81,116,o),
(106,125,o),
(128,125,cs),
(152,125,o),
(177,108,o),
(203,83,c),
(178,69,o),
(152,60,o),
(127,60,cs)
);
},
{
closed = 1;
nodes = (
(855,81,o),
(847,60,o),
(829,60,cs),
(808,60,o),
(788,81,o),
(786,167,c),
(842,151,o),
(855,114,o),
(855,89,cs)
);
}
);
width = 950;
}
);
},
{
glyphname = Jha.alt;
layers = (
{
anchors = (
{
name = Anchor11;
position = "{480, 622}";
}
);
background = {
shapes = (
{
closed = 1;
nodes = (
(593,284,l),
(538,262,o),
(489,232,o),
(452,195,c),
(433,201,o),
(411,206,o),
(387,207,c),
(387,214,ls),
(387,304,o),
(337,357,o),
(262,357,cs),
(225,357,o),
(207,348,o),
(188,348,cs),
(163,348,o),
(140,358,o),
(140,388,cs),
(140,434,o),
(189,499,o),
(289,551,c),
(580,551,l),
(580,622,l),
(0,622,l),
(0,551,l),
(161,551,l),
(100,504,o),
(60,449,o),
(60,386,cs),
(60,312,o),
(120,278,o),
(169,278,cs),
(199,278,o),
(215,287,o),
(253,287,cs),
(294,287,o),
(306,255,o),
(306,216,cs),
(306,189,o),
(288,157,o),
(262,129,c),
(224,168,o),
(182,195,o),
(124,195,cs),
(87,195,o),
(5,179,o),
(5,88,cs),
(5,29,o),
(61,-10,o),
(120,-10,cs),
(223,-10,o),
(323,57,o),
(366,137,c),
(374,137,ls),
(385,137,o),
(396,136,o),
(406,134,c),
(387,100,o),
(376,63,o),
(376,23,cs),
(376,-53,o),
(408,-110,o),
(488,-110,cs),
(573,-110,o),
(590,-22,o),
(590,5,cs),
(590,59,o),
(566,118,o),
(518,158,c),
(543,180,o),
(574,198,o),
(610,211,c)
);
},
{
closed = 1;
nodes = (
(515,-16,o),
(505,-40,o),
(487,-40,cs),
(463,-40,o),
(452,-11,o),
(452,28,cs),
(452,54,o),
(459,80,o),
(473,104,c),
(504,77,o),
(515,39,o),
(515,9,cs)
);
},
{
closed = 1;
nodes = (
(95,60,o),
(81,77,o),
(81,90,cs),
(81,116,o),
(106,125,o),
(128,125,cs),
(152,125,o),
(177,108,o),
(203,83,c),
(178,69,o),
(152,60,o),
(127,60,cs)
);
}
);
};
layerId = "A38B966D-CDEB-4149-A2FB-BDE2BCA6D0C9";
shapes = (
{
closed = 1;
nodes = (
(593,284,l),
(538,262,o),
(489,232,o),
(452,195,c),
(433,201,o),
(411,206,o),
(387,207,c),
(387,214,ls),
(387,304,o),
(337,357,o),
(262,357,cs),
(225,357,o),
(207,348,o),
(188,348,cs),
(163,348,o),
(140,358,o),
(140,388,cs),
(140,434,o),
(189,499,o),
(289,551,c),
(580,551,l),
(580,622,l),
(0,622,l),
(0,551,l),
(161,551,l),
(100,504,o),
(60,449,o),
(60,386,cs),
(60,312,o),
(120,278,o),
(169,278,cs),
(199,278,o),
(215,287,o),
(253,287,cs),
(294,287,o),
(306,255,o),
(306,216,cs),
(306,189,o),
(288,157,o),
(262,129,c),
(224,168,o),
(182,195,o),
(124,195,cs),
(87,195,o),
(5,179,o),
(5,88,cs),
(5,29,o),
(61,-10,o),
(120,-10,cs),
(223,-10,o),
(323,57,o),
(366,137,c),
(374,137,ls),
(385,137,o),
(396,136,o),
(406,134,c),
(387,100,o),
(376,63,o),
(376,23,cs),
(376,-53,o),
(408,-110,o),
(488,-110,cs),
(573,-110,o),
(590,-22,o),
(590,5,cs),
(590,59,o),
(566,118,o),
(518,158,c),
(543,180,o),
(574,198,o),
(610,211,c)
);
},
{
closed = 1;
nodes = (
(515,-16,o),
(505,-40,o),
(487,-40,cs),
(463,-40,o),
(452,-11,o),
(452,28,cs),
(452,54,o),
(459,80,o),
(473,104,c),
(504,77,o),
(515,39,o),
(515,9,cs)
);
},
{
closed = 1;
nodes = (
(95,60,o),
(81,77,o),
(81,90,cs),
(81,116,o),
(106,125,o),
(128,125,cs),
(152,125,o),
(177,108,o),
(203,83,c),
(178,69,o),
(152,60,o),
(127,60,cs)
);
}
);
width = 570;
}
);
},
{
glyphname = Nyaa;
layers = (
{
anchors = (
{
name = Anchor11;
position = "{801, 622}";
},
{
name = Anchor7;
position = "{692, 90}";
}
);
background = {
shapes = (
{
closed = 1;
nodes = (
(20,166,l),
(65,86,o),
(124,30,o),
(218,30,cs),
(293,30,o),
(382,73,o),
(397,174,c),
(408,174,ls),
(448,174,o),
(468,142,o),
(468,102,cs),
(468,0,l),
(548,0,l),
(548,10,l),
(550,99,o),
(590,157,o),
(656,171,c),
(661,54,o),
(702,-10,o),
(778,-10,cs),
(863,-10,o),
(880,58,o),
(880,85,cs),
(880,147,o),
(836,225,o),
(738,244,c),
(742,319,o),
(757,425,o),
(801,551,c),
(908,551,l),
(908,622,l),
(0,622,l),
(0,551,l),
(719,551,l),
(687,454,o),
(665,333,o),
(658,246,c),
(603,239,o),
(563,214,o),
(534,179,c),
(513,222,o),
(470,248,o),
(417,248,cs),
(409,248,o),
(402,248,o),
(395,247,c),
(377,322,o),
(311,367,o),
(231,367,cs),
(185,367,o),
(150,357,o),
(122,349,c),
(141,283,l),
(161,289,o),
(200,297,o),
(229,297,cs),
(283,297,o),
(320,264,o),
(320,203,cs),
(320,141,o),
(280,100,o),
(220,100,cs),
(158,100,o),
(110,146,o),
(76,206,c)
);
},
{
closed = 1;
nodes = (
(805,81,o),
(797,60,o),
(779,60,cs),
(758,60,o),
(738,81,o),
(736,168,c),
(790,153,o),
(805,114,o),
(805,89,cs)
);
}
);
};
layerId = "A38B966D-CDEB-4149-A2FB-BDE2BCA6D0C9";
shapes = (
{
closed = 1;
nodes = (
(20,166,l),
(65,86,o),
(124,30,o),
(218,30,cs),
(293,30,o),
(382,73,o),
(397,174,c),
(408,174,ls),
(448,174,o),
(468,142,o),
(468,102,cs),
(468,0,l),
(548,0,l),
(548,10,l),
(550,99,o),
(590,157,o),
(656,171,c),
(661,54,o),
(702,-10,o),
(778,-10,cs),
(863,-10,o),
(880,58,o),
(880,85,cs),
(880,147,o),
(836,225,o),
(738,244,c),
(742,319,o),
(757,425,o),
(801,551,c),
(908,551,l),
(908,622,l),
(0,622,l),
(0,551,l),
(719,551,l),
(687,454,o),
(665,333,o),
(658,246,c),
(603,239,o),
(563,214,o),
(534,179,c),
(513,222,o),
(470,248,o),
(417,248,cs),
(409,248,o),
(402,248,o),
(395,247,c),
(377,322,o),
(311,367,o),
(231,367,cs),
(185,367,o),
(150,357,o),
(122,349,c),
(141,283,l),
(161,289,o),
(200,297,o),
(229,297,cs),
(283,297,o),
(320,264,o),
(320,203,cs),
(320,141,o),
(280,100,o),
(220,100,cs),
(158,100,o),
(110,146,o),
(76,206,c)
);
},
{
closed = 1;
nodes = (
(805,81,o),
(797,60,o),
(779,60,cs),
(758,60,o),
(738,81,o),
(736,168,c),
(790,153,o),
(805,114,o),
(805,89,cs)
);
}
);
width = 898;
}
);
},
{
glyphname = Nya.alt;
layers = (
{
anchors = (
{
name = Anchor11;
position = "{521, 622}";
}
);
background = {
shapes = (
{
closed = 1;
nodes = (
(20,176,l),
(65,96,o),
(124,40,o),
(218,40,cs),
(280,40,o),
(351,69,o),
(383,136,c),
(393,137,o),
(404,137,o),
(415,137,cs),
(426,137,o),
(437,136,o),
(447,134,c),
(428,100,o),
(417,63,o),
(417,23,cs),
(417,-53,o),
(449,-110,o),
(529,-110,cs),
(614,-110,o),
(631,-22,o),
(631,5,cs),
(631,59,o),
(607,118,o),
(559,158,c),
(584,180,o),
(615,198,o),
(651,211,c),
(634,284,l),
(579,262,o),
(530,232,o),
(493,195,c),
(471,202,o),
(445,207,o),
(417,207,cs),
(400,207,l),
(400,216,ls),
(400,315,o),
(325,377,o),
(231,377,cs),
(185,377,o),
(150,367,o),
(122,359,c),
(141,293,l),
(161,299,o),
(200,307,o),
(229,307,cs),
(283,307,o),
(320,274,o),
(320,213,cs),
(320,151,o),
(280,110,o),
(220,110,cs),
(158,110,o),
(110,156,o),
(76,216,c)
);
},
{
closed = 1;
nodes = (
(0,551,l),
(621,551,l),
(621,622,l),
(0,622,l)
);
},
{
closed = 1;
nodes = (
(556,-16,o),
(546,-40,o),
(528,-40,cs),
(504,-40,o),
(493,-11,o),
(493,28,cs),
(493,54,o),
(500,80,o),
(514,104,c),
(545,77,o),
(556,39,o),
(556,9,cs)
);
}
);
};
layerId = "A38B966D-CDEB-4149-A2FB-BDE2BCA6D0C9";
shapes = (
{
closed = 1;
nodes = (
(20,176,l),
(65,96,o),
(124,40,o),
(218,40,cs),
(280,40,o),
(351,69,o),
(383,136,c),
(393,137,o),
(404,137,o),
(415,137,cs),
(426,137,o),
(437,136,o),
(447,134,c),
(428,100,o),
(417,63,o),
(417,23,cs),
(417,-53,o),
(449,-110,o),
(529,-110,cs),
(614,-110,o),
(631,-22,o),
(631,5,cs),
(631,59,o),
(607,118,o),
(559,158,c),
(584,180,o),
(615,198,o),
(651,211,c),
(634,284,l),
(579,262,o),
(530,232,o),
(493,195,c),
(471,202,o),
(445,207,o),
(417,207,cs),
(400,207,l),
(400,216,ls),
(400,315,o),
(325,377,o),
(231,377,cs),
(185,377,o),
(150,367,o),
(122,359,c),
(141,293,l),
(161,299,o),
(200,307,o),
(229,307,cs),
(283,307,o),
(320,274,o),
(320,213,cs),
(320,151,o),
(280,110,o),
(220,110,cs),
(158,110,o),
(110,156,o),
(76,216,c)
);
},
{
closed = 1;
nodes = (
(0,551,l),
(621,551,l),
(621,622,l),
(0,622,l)
);
},
{
closed = 1;
nodes = (
(556,-16,o),
(546,-40,o),
(528,-40,cs),
(504,-40,o),
(493,-11,o),
(493,28,cs),
(493,54,o),
(500,80,o),
(514,104,c),
(545,77,o),
(556,39,o),
(556,9,cs)
);
}
);
width = 611;
}
);
},
{
glyphname = Ttaa;
layers = (
{
anchors = (
{
name = Anchor11;
position = "{656, 622}";
},
{
name = Anchor7;
position = "{550, 90}";
}
);
background = {
shapes = (
{
closed = 1;
nodes = (
(765,622,l),
(0,622,l),
(0,551,l),
(576,551,l),
(535,419,o),
(515,314,o),
(511,246,c),
(433,195,o),
(400,64,o),
(273,64,cs),
(185,64,o),
(140,114,o),
(140,197,cs),
(140,251,o),
(174,318,o),
(255,318,cs),
(274,318,o),
(295,314,o),
(318,306,c),
(343,379,l),
(314,388,o),
(285,392,o),
(258,392,cs),
(140,392,o),
(60,314,o),
(60,190,cs),
(60,64,o),
(143,-10,o),
(271,-10,cs),
(414,-10,o),
(466,85,o),
(514,145,c),
(526,21,o),
(570,-10,o),
(633,-10,cs),
(710,-10,o),
(735,52,o),
(735,101,cs),
(735,175,o),
(682,258,o),
(594,266,c),
(599,339,o),
(617,433,o),
(656,551,c),
(765,551,l)
);
},
{
closed = 1;
nodes = (
(660,81,o),
(652,60,o),
(639,60,cs),
(616,60,o),
(594,68,o),
(592,192,c),
(635,188,o),
(660,143,o),
(660,106,cs)
);
}
);
};
layerId = "A38B966D-CDEB-4149-A2FB-BDE2BCA6D0C9";
shapes = (
{
closed = 1;
nodes = (
(765,622,l),
(0,622,l),
(0,551,l),
(576,551,l),
(535,419,o),
(515,314,o),
(511,246,c),
(433,195,o),
(400,64,o),
(273,64,cs),
(185,64,o),
(140,114,o),
(140,197,cs),
(140,251,o),
(174,318,o),
(255,318,cs),
(274,318,o),
(295,314,o),
(318,306,c),
(343,379,l),
(314,388,o),
(285,392,o),
(258,392,cs),
(140,392,o),
(60,314,o),
(60,190,cs),
(60,64,o),
(143,-10,o),
(271,-10,cs),
(414,-10,o),
(466,85,o),
(514,145,c),
(526,21,o),
(570,-10,o),
(633,-10,cs),
(710,-10,o),
(735,52,o),
(735,101,cs),
(735,175,o),
(682,258,o),
(594,266,c),
(599,339,o),
(617,433,o),
(656,551,c),
(765,551,l)
);
},
{
closed = 1;
nodes = (
(660,81,o),
(652,60,o),
(639,60,cs),
(616,60,o),
(594,68,o),
(592,192,c),
(635,188,o),
(660,143,o),
(660,106,cs)
);
}
);
width = 755;
}
);
},
{
glyphname = Dda.alt;
layers = (
{
anchors = (
{
name = Anchor11;
position = "{449, 622}";
}
);
background = {
shapes = (
{
closed = 1;
nodes = (
(0,622,l),
(0,551,l),
(91,551,l),
(70,490,o),
(60,425,o),
(60,364,cs),
(60,157,o),
(154,-10,o),
(346,-10,cs),
(486,-10,o),
(561,82,o),
(561,170,cs),
(561,271,o),
(513,330,o),
(419,330,cs),
(388,330,o),
(360,320,o),
(339,320,cs),
(311,320,o),
(287,331,o),
(287,365,cs),
(287,417,o),
(338,492,o),
(454,551,c),
(523,551,l),
(523,622,l)
);
},
{
closed = 1;
nodes = (
(208,280,o),
(270,249,o),
(324,249,cs),
(357,249,o),
(381,259,o),
(399,259,cs),
(470,259,o),
(482,217,o),
(482,173,cs),
(482,118,o),
(442,64,o),
(347,64,cs),
(222,64,o),
(141,164,o),
(141,364,cs),
(141,424,o),
(152,491,o),
(176,551,c),
(330,551,l),
(258,497,o),
(208,436,o),
(208,363,cs)
);
}
);
};
layerId = "A38B966D-CDEB-4149-A2FB-BDE2BCA6D0C9";
shapes = (
{
closed = 1;
nodes = (
(0,622,l),
(0,551,l),
(91,551,l),
(70,490,o),
(60,425,o),
(60,364,cs),
(60,157,o),
(154,-10,o),
(346,-10,cs),
(486,-10,o),
(561,82,o),
(561,170,cs),
(561,271,o),
(513,330,o),
(419,330,cs),
(388,330,o),
(360,320,o),
(339,320,cs),
(311,320,o),
(287,331,o),
(287,365,cs),
(287,417,o),
(338,492,o),
(454,551,c),
(523,551,l),
(523,622,l)
);
},
{
closed = 1;
nodes = (
(208,280,o),
(270,249,o),
(324,249,cs),
(357,249,o),
(381,259,o),
(399,259,cs),
(470,259,o),
(482,217,o),
(482,173,cs),
(482,118,o),
(442,64,o),
(347,64,cs),
(222,64,o),
(141,164,o),
(141,364,cs),
(141,424,o),
(152,491,o),
(176,551,c),
(330,551,l),
(258,497,o),
(208,436,o),
(208,363,cs)
);
}
);
width = 521;
}
);
},
{
glyphname = Ta.alt;
layers = (
{
anchors = (
{
name = Anchor11;
position = "{421, 622}";
}
);
background = {
shapes = (
{
closed = 1;
nodes = (
(540,622,l),
(0,622,l),
(0,551,l),
(91,551,l),
(70,488,o),
(60,416,o),
(60,340,cs),
(60,117,o),
(155,-10,o),
(299,-10,cs),
(419,-10,o),
(488,74,o),
(488,172,cs),
(488,239,o),
(457,287,o),
(392,318,c),
(435,347,o),
(465,394,o),
(465,464,cs),
(465,494,o),
(455,525,o),
(436,551,c),
(540,551,l)
);
},
{
closed = 1;
nodes = (
(254,274,l),
(259,275,o),
(262,275,o),
(266,275,cs),
(367,275,o),
(408,238,o),
(408,170,cs),
(408,118,o),
(372,64,o),
(298,64,cs),
(226,64,o),
(141,140,o),
(141,338,cs),
(141,410,o),
(149,486,o),
(172,551,c),
(338,551,l),
(367,530,o),
(384,497,o),
(384,463,cs),
(384,403,o),
(357,344,o),
(272,344,cs),
(269,344,o),
(262,345,o),
(259,345,c)
);
}
);
};
layerId = "A38B966D-CDEB-4149-A2FB-BDE2BCA6D0C9";
shapes = (
{
closed = 1;
nodes = (
(540,622,l),
(0,622,l),
(0,551,l),
(91,551,l),
(70,488,o),
(60,416,o),
(60,340,cs),
(60,117,o),
(155,-10,o),
(299,-10,cs),
(419,-10,o),
(488,74,o),
(488,172,cs),
(488,239,o),
(457,287,o),
(392,318,c),
(435,347,o),
(465,394,o),
(465,464,cs),
(465,494,o),
(455,525,o),
(436,551,c),
(540,551,l)
);
},
{
closed = 1;
nodes = (
(254,274,l),
(259,275,o),
(262,275,o),
(266,275,cs),
(367,275,o),
(408,238,o),
(408,170,cs),
(408,118,o),
(372,64,o),
(298,64,cs),
(226,64,o),
(141,140,o),
(141,338,cs),
(141,410,o),
(149,486,o),
(172,551,c),
(338,551,l),
(367,530,o),
(384,497,o),
(384,463,cs),
(384,403,o),
(357,344,o),
(272,344,cs),
(269,344,o),
(262,345,o),
(259,345,c)
);
}
);
width = 390;
}
);
},
{
glyphname = AA_dv.alt;
layers = (
{
anchors = (
{
name = Anchor11;
position = "{25, 622}";
},
{
name = Anchor13;
position = "{125, 718}";
},
{
name = Anchor15;
position = "{2, 702}";
}
);
background = {
shapes = (
{
closed = 1;
nodes = (
(-100,429,l),
(38,418,o),
(45,337,o),
(45,243,cs),
(45,0,l),
(125,0,l),
(125,242,ls),
(125,374,o),
(114,476,o),
(-97,500,c)
);
},
{
closed = 1;
nodes = (
(-35,551,l),
(215,551,l),
(215,622,l),
(-35,622,l)
);
}
);
};
layerId = "A38B966D-CDEB-4149-A2FB-BDE2BCA6D0C9";
shapes = (
{
closed = 1;
nodes = (
(-100,429,l),
(38,418,o),
(45,337,o),
(45,243,cs),
(45,0,l),
(125,0,l),
(125,242,ls),
(125,374,o),
(114,476,o),
(-97,500,c)
);
},
{
closed = 1;
nodes = (
(-35,551,l),
(215,551,l),
(215,622,l),
(-35,622,l)
);
}
);
width = 205;
}
);
},
{
glyphname = U.alt4;
layers = (
{
anchors = (
{
name = Anchor13;
position = "{322, 758}";
},
{
name = Anchor15;
position = "{-6, 880}";
}
);
background = {
shapes = (
{
closed = 1;
nodes = (
(376,622,l),
(249,622,l),
(201,725,o),
(118,800,o),
(-6,800,cs),
(-150,800,o),
(-247,712,o),
(-300,597,c),
(-212,597,l),
(-170,671,o),
(-103,726,o),
(-6,726,cs),
(66,726,o),
(125,690,o),
(166,622,c),
(96,622,l),
(96,551,l),
(197,551,l),
(216,494,o),
(226,425,o),
(226,343,cs),
(226,254,o),
(225,163,o),
(209,98,c),
(286,83,l),
(305,160,o),
(306,256,o),
(306,342,cs),
(306,411,o),
(296,484,o),
(276,551,c),
(376,551,l)
);
}
);
};
layerId = "A38B966D-CDEB-4149-A2FB-BDE2BCA6D0C9";
shapes = (
{
closed = 1;
nodes = (
(376,622,l),
(249,622,l),
(201,725,o),
(118,800,o),
(-6,800,cs),
(-150,800,o),
(-247,712,o),
(-300,597,c),
(-212,597,l),
(-170,671,o),
(-103,726,o),
(-6,726,cs),
(66,726,o),
(125,690,o),
(166,622,c),
(96,622,l),
(96,551,l),
(197,551,l),
(216,494,o),
(226,425,o),
(226,343,cs),
(226,254,o),
(225,163,o),
(209,98,c),
(286,83,l),
(305,160,o),
(306,256,o),
(306,342,cs),
(306,411,o),
(296,484,o),
(276,551,c),
(376,551,l)
);
}
);
width = 366;
}
);
},
{
glyphname = UU.alt3;
layers = (
{
anchors = (
{
name = Anchor13;
position = "{401, 758}";
},
{
name = Anchor15;
position = "{44, 880}";
}
);
background = {
shapes = (
{
closed = 1;
nodes = (
(491,622,l),
(349,622,l),
(286,728,o),
(183,800,o),
(44,800,cs),
(-107,800,o),
(-224,711,o),
(-275,622,c),
(-300,622,l),
(-300,551,l),
(305,551,l),
(313,533,o),
(320,513,o),
(326,492,c),
(245,406,o),
(200,294,o),
(200,189,cs),
(200,96,o),
(234,40,o),
(295,40,cs),
(406,40,o),
(421,187,o),
(421,342,cs),
(421,415,o),
(408,487,o),
(384,551,c),
(491,551,l)
);
},
{
closed = 1;
nodes = (
(134,726,o),
(210,689,o),
(263,622,c),
(-188,622,l),
(-135,679,o),
(-63,726,o),
(45,726,cs)
);
},
{
closed = 1;
nodes = (
(345,222,o),
(326,110,o),
(303,110,cs),
(291,110,o),
(278,125,o),
(278,184,cs),
(278,239,o),
(288,323,o),
(342,401,c),
(344,382,o),
(345,363,o),
(345,343,cs)
);
}
);
};
layerId = "A38B966D-CDEB-4149-A2FB-BDE2BCA6D0C9";
shapes = (
{
closed = 1;
nodes = (
(491,622,l),
(349,622,l),
(286,728,o),
(183,800,o),
(44,800,cs),
(-107,800,o),
(-224,711,o),
(-275,622,c),
(-300,622,l),
(-300,551,l),
(305,551,l),
(313,533,o),
(320,513,o),
(326,492,c),
(245,406,o),
(200,294,o),
(200,189,cs),
(200,96,o),
(234,40,o),
(295,40,cs),
(406,40,o),
(421,187,o),
(421,342,cs),
(421,415,o),
(408,487,o),
(384,551,c),
(491,551,l)
);
},
{
closed = 1;
nodes = (
(134,726,o),
(210,689,o),
(263,622,c),
(-188,622,l),
(-135,679,o),
(-63,726,o),
(45,726,cs)
);
},
{
closed = 1;
nodes = (
(345,222,o),
(326,110,o),
(303,110,cs),
(291,110,o),
(278,125,o),
(278,184,cs),
(278,239,o),
(288,323,o),
(342,401,c),
(344,382,o),
(345,363,o),
(345,343,cs)
);
}
);
width = 481;
}
);
},
{
glyphname = Da.alt2;
layers = (
{
anchors = (
{
name = Anchor11;
position = "{360, 622}";
}
);
background = {
shapes = (
{
closed = 1;
nodes = (
(402,77,l),
(382,68,o),
(359,64,o),
(335,64,cs),
(238,64,o),
(198,125,o),
(198,183,cs),
(198,247,o),
(224,288,o),
(302,331,c),
(272,390,l),
(238,376,o),
(216,372,o),
(197,372,cs),
(147,372,o),
(120,402,o),
(120,448,cs),
(120,477,o),
(126,513,o),
(153,551,c),
(410,551,l),
(410,622,l),
(0,622,l),
(0,551,l),
(67,551,l),
(50,519,o),
(40,482,o),
(40,446,cs),
(40,379,o),
(78,316,o),
(157,304,c),
(126,265,o),
(118,224,o),
(118,179,cs),
(118,75,o),
(195,-10,o),
(331,-10,cs),
(368,-10,o),
(400,-4,o),
(428,7,c)
);
}
);
};
layerId = "A38B966D-CDEB-4149-A2FB-BDE2BCA6D0C9";
shapes = (
{
closed = 1;
nodes = (
(402,77,l),
(382,68,o),
(359,64,o),
(335,64,cs),
(238,64,o),
(198,125,o),
(198,183,cs),
(198,247,o),
(224,288,o),
(302,331,c),
(272,390,l),
(238,376,o),
(216,372,o),
(197,372,cs),
(147,372,o),
(120,402,o),
(120,448,cs),
(120,477,o),
(126,513,o),
(153,551,c),
(410,551,l),
(410,622,l),
(0,622,l),
(0,551,l),
(67,551,l),
(50,519,o),
(40,482,o),
(40,446,cs),
(40,379,o),
(78,316,o),
(157,304,c),
(126,265,o),
(118,224,o),
(118,179,cs),
(118,75,o),
(195,-10,o),
(331,-10,cs),
(368,-10,o),
(400,-4,o),
(428,7,c)
);
}
);
width = 400;
}
);
},
{
glyphname = Naa;
layers = (
{
anchors = (
{
name = Anchor11;
position = "{647, 622}";
},
{
name = Anchor7;
position = "{538, 90}";
}
);
background = {
shapes = (
{
closed = 1;
nodes = (
(286,0,l),
(291,15,o),
(296,32,o),
(299,44,c),
(342,146,o),
(443,175,o),
(502,178,c),
(505,56,o),
(547,-10,o),
(624,-10,cs),
(709,-10,o),
(726,58,o),
(726,85,cs),
(726,143,o),
(678,214,o),
(583,239,c),
(587,314,o),
(602,422,o),
(647,551,c),
(756,551,l),
(756,622,l),
(0,622,l),
(0,551,l),
(565,551,l),
(534,455,o),
(512,335,o),
(504,248,c),
(433,246,o),
(374,223,o),
(328,189,c),
(330,207,o),
(330,224,o),
(330,242,cs),
(330,404,o),
(261,520,o),
(142,520,cs),
(70,520,o),
(35,488,o),
(35,457,cs),
(35,426,o),
(64,392,o),
(136,392,cs),
(161,392,o),
(195,397,o),
(215,407,c),
(238,375,o),
(249,309,o),
(249,235,cs),
(249,154,o),
(229,58,o),
(209,0,c)
);
},
{
closed = 1;
nodes = (
(651,81,o),
(643,60,o),
(625,60,cs),
(604,60,o),
(584,81,o),
(582,167,c),
(633,149,o),
(651,112,o),
(651,89,cs)
);
}
);
};
layerId = "A38B966D-CDEB-4149-A2FB-BDE2BCA6D0C9";
shapes = (
{
closed = 1;
nodes = (
(286,0,l),
(291,15,o),
(296,32,o),
(299,44,c),
(342,146,o),
(443,175,o),
(502,178,c),
(505,56,o),
(547,-10,o),
(624,-10,cs),
(709,-10,o),
(726,58,o),
(726,85,cs),
(726,143,o),
(678,214,o),
(583,239,c),
(587,314,o),
(602,422,o),
(647,551,c),
(756,551,l),
(756,622,l),
(0,622,l),
(0,551,l),
(565,551,l),
(534,455,o),
(512,335,o),
(504,248,c),
(433,246,o),
(374,223,o),
(328,189,c),
(330,207,o),
(330,224,o),
(330,242,cs),
(330,404,o),
(261,520,o),
(142,520,cs),
(70,520,o),
(35,488,o),
(35,457,cs),
(35,426,o),
(64,392,o),
(136,392,cs),
(161,392,o),
(195,397,o),
(215,407,c),
(238,375,o),
(249,309,o),
(249,235,cs),
(249,154,o),
(229,58,o),
(209,0,c)
);
},
{
closed = 1;
nodes = (
(651,81,o),
(643,60,o),
(625,60,cs),
(604,60,o),
(584,81,o),
(582,167,c),
(633,149,o),
(651,112,o),
(651,89,cs)
);
}
);
width = 746;
}
);
},
